<svg xmlns="http://www.w3.org/2000/svg" width="25" height="25" viewBox="0 0 25 25">
  <path id="icons8-search" d="M23.952,14.4a9.567,9.567,0,1,0,6.758,2.794A9.526,9.526,0,0,0,23.952,14.4Zm-.012,1.486a7.94,7.94,0,0,1,5.688,2.366,8.021,8.021,0,1,1-5.688-2.366Zm0,1.511a6.4,6.4,0,0,0-4.606,1.938,6.54,6.54,0,0,0-1.913,4.381.742.742,0,0,0,.73.78h.025a.77.77,0,0,0,.755-.73,5.108,5.108,0,0,1,1.46-3.374,4.991,4.991,0,0,1,3.549-1.485.755.755,0,0,0,0-1.511Zm-4.355,9.491a.755.755,0,1,0,.755.755A.755.755,0,0,0,19.585,26.888Zm12.173,4.154a.7.7,0,0,0-.519.227.73.73,0,0,0,0,1.057l.629.629a2.166,2.166,0,0,0-.227.982,2.266,2.266,0,0,0,.654,1.611l3.222,3.172a2.269,2.269,0,0,0,1.61.68,2.353,2.353,0,0,0,1.611-.654,2.264,2.264,0,0,0,0-3.2l-3.222-3.223a2.264,2.264,0,0,0-1.611-.654,2.164,2.164,0,0,0-.982.227l-.629-.629A.761.761,0,0,0,31.758,31.042Zm2.149,2.115a.685.685,0,0,1,.528.227l3.2,3.2a.747.747,0,0,1-1.057,1.057l-3.2-3.172a.781.781,0,0,1-.227-.554.686.686,0,0,1,.227-.529A.724.724,0,0,1,33.907,33.157Z" transform="translate(-14.4 -14.4)"/>
</svg>
