<svg xmlns="http://www.w3.org/2000/svg" width="21.368" height="25.582" viewBox="0 0 21.368 25.582">
  <path id="Path_160" data-name="Path 160" d="M71.6,16.516l-1.562-.436-3.4-2.108v-.483a4.251,4.251,0,0,0,1.785-3.018A1,1,0,0,0,69.3,9.5V8.171c0-.005,0-.01,0-.015V6.472a.72.72,0,0,0,.321-.6V4.336l2.346-.379a.794.794,0,0,0,.69-.724.78.78,0,0,0-.578-.808L64.172.037a.869.869,0,0,0-.5,0L55.76,2.426a.78.78,0,0,0-.577.807A.77.77,0,0,0,55.5,3.8V5.819h-.019a.789.789,0,0,0-.808.767v1l-.521,2.906a.839.839,0,0,0,.856.963h1.765a.839.839,0,0,0,.856-.963l-.521-2.906v-1a.789.789,0,0,0-.808-.767h-.019v-1.8l1.939.314v1.54a.72.72,0,0,0,.32.595V9.5a1,1,0,0,0,.872.972A4.251,4.251,0,0,0,61.2,13.488v.485l-3.4,2.108-1.561.435a3.8,3.8,0,0,0-2.85,3.615v1.1a.39.39,0,0,0,.78,0v-1.1a3.069,3.069,0,0,1,2.29-2.9l1.454-.405L63.722,20.1a.413.413,0,0,0,.4,0l5.811-3.279,1.454.405a3.069,3.069,0,0,1,2.289,2.9v3.577a.856.856,0,0,1-.876.832H71.08v-1.6a.39.39,0,0,0-.78,0v1.6H57.54v-1.6a.39.39,0,0,0-.78,0v1.6H55.043a.856.856,0,0,1-.876-.832v-.742a.39.39,0,0,0-.78,0v.742a1.618,1.618,0,0,0,1.656,1.573H72.8a1.618,1.618,0,0,0,1.656-1.573V20.131a3.8,3.8,0,0,0-2.85-3.615Zm-14.831-5.8H55.009a.085.085,0,0,1-.087-.1l.472-2.629h1l.472,2.629A.085.085,0,0,1,56.774,10.713Zm-.445-4.128v.661h-.874V6.586a.027.027,0,0,1,.028-.026H56.3A.027.027,0,0,1,56.328,6.586Zm6.2,11.84.155.227L58.7,16.406l2.527-1.567A7.525,7.525,0,0,0,62.526,18.426Zm0-1.6a10.552,10.552,0,0,0,2.794,0,6.954,6.954,0,0,1-.656,1.195L63.921,19.1l-.741-1.082a6.954,6.954,0,0,1-.656-1.195Zm2.792,1.6a7.524,7.524,0,0,0,1.3-3.587l2.527,1.567L65.16,18.652ZM67.6,6.61h.924V7.8h-.459a.455.455,0,0,1-.466-.442V6.61ZM56,3.132,63.9.743a.054.054,0,0,1,.031,0l7.908,2.389a.042.042,0,0,1,.036.05.043.043,0,0,1-.043.045l-2.614.423-.982-.115a.386.386,0,0,0-.435.322.375.375,0,0,0,.339.413l.7.082V5.87H59V4.351l4.035-.474a7.6,7.6,0,0,1,1.771,0l1.527.179a.386.386,0,0,0,.435-.322.375.375,0,0,0-.339-.413L64.9,3.142a8.419,8.419,0,0,0-1.962,0l-4.32.508L56,3.227a.043.043,0,0,1-.043-.045A.042.042,0,0,1,56,3.132ZM59.32,7.8V6.61h.926v.748a.455.455,0,0,1-.466.442h-.46Zm.858,2.481a.592.592,0,0,0-.6-.538A.251.251,0,0,1,59.32,9.5V8.541h.459a1.217,1.217,0,0,0,1.245-1.183V6.61h5.791v.748a1.217,1.217,0,0,0,1.245,1.183h.459V9.5a.251.251,0,0,1-.257.244.592.592,0,0,0-.6.538,3.767,3.767,0,0,1-7.485,0Zm3.742,4.075a4.7,4.7,0,0,0,1.943-.418v.235a6.726,6.726,0,0,1-.263,1.86,9.686,9.686,0,0,1-3.36,0,6.726,6.726,0,0,1-.263-1.86c0-.008,0-.016,0-.023s0,0,0,0v-.208A4.7,4.7,0,0,0,63.921,14.356Z" transform="translate(-53.237 0.151)" stroke="#000" stroke-width="0.3"/>
</svg>
