<svg xmlns="http://www.w3.org/2000/svg" width="24.285" height="20.396" viewBox="0 0 24.285 20.396">
  <g id="accepted" transform="translate(0 -41)">
    <path id="Path_8795" data-name="Path 8795" d="M237.506,377h-3.795a.712.712,0,0,0,0,1.423h3.795a.712.712,0,0,0,0-1.423Z" transform="translate(-221.948 -320.063)" fill="#fff"/>
    <path id="Path_8796" data-name="Path 8796" d="M233.711,314.423h2.656a.711.711,0,1,0,0-1.423h-2.656a.711.711,0,0,0,0,1.423Z" transform="translate(-221.948 -259.098)" fill="#fff"/>
    <path id="Path_8797" data-name="Path 8797" d="M24.285,46.644a5.645,5.645,0,0,0-10.977-1.85H2.134A2.137,2.137,0,0,0,0,46.929V59.262A2.137,2.137,0,0,0,2.134,61.4H19.827a2.137,2.137,0,0,0,2.134-2.134V51.206A5.64,5.64,0,0,0,24.285,46.644Zm-5.644-4.222a4.222,4.222,0,1,1-4.222,4.222A4.226,4.226,0,0,1,18.641,42.423Zm1.9,16.839a.712.712,0,0,1-.711.711H2.134a.712.712,0,0,1-.711-.711V46.929a.712.712,0,0,1,.711-.711H13.013q-.016.211-.016.427a5.644,5.644,0,0,0,7.542,5.316Z" fill="#fff"/>
    <path id="Path_8798" data-name="Path 8798" d="M346.83,124.307a.712.712,0,0,0,.554.389.724.724,0,0,0,.082,0,.712.712,0,0,0,.547-.256l1.9-2.277a.711.711,0,1,0-1.093-.911l-1.2,1.441-.272-.545a.711.711,0,1,0-1.273.636Z" transform="translate(-329.585 -76.206)" fill="#fff"/>
    <path id="Path_8799" data-name="Path 8799" d="M69.842,213.442a2.609,2.609,0,1,0-3.708,0A2.984,2.984,0,0,0,65,215.783v1.9a.712.712,0,0,0,.711.711h4.554a.711.711,0,0,0,.711-.711v-1.9A2.984,2.984,0,0,0,69.842,213.442Zm-3.04-1.833a1.186,1.186,0,1,1,1.186,1.186A1.187,1.187,0,0,1,66.8,211.609Zm2.751,5.36H66.423v-1.186a1.565,1.565,0,1,1,3.131,0Z" transform="translate(-61.917 -160.031)" fill="#fff"/>
  </g>
</svg>
