<svg xmlns="http://www.w3.org/2000/svg" width="19.588" height="20.002" viewBox="0 0 19.588 20.002">
  <g id="added" transform="translate(-5.298)">
    <g id="Group_318" data-name="Group 318" transform="translate(8.224 10.956)">
      <g id="Group_317" data-name="Group 317">
        <path id="Path_8768" data-name="Path 8768" d="M82.616,280.47a.293.293,0,0,0-.382.161.8.8,0,0,1-1.477,0,.293.293,0,1,0-.543.219,1.384,1.384,0,0,0,2.564,0A.293.293,0,0,0,82.616,280.47Z" transform="translate(-80.192 -280.448)"/>
      </g>
    </g>
    <g id="Group_320" data-name="Group 320" transform="translate(7.887 9.367)">
      <g id="Group_319" data-name="Group 319">
        <path id="Path_8769" data-name="Path 8769" d="M71.85,239.767a.293.293,0,0,0-.293.293v.13a.293.293,0,0,0,.586,0v-.13A.293.293,0,0,0,71.85,239.767Z" transform="translate(-71.557 -239.767)"/>
      </g>
    </g>
    <g id="Group_322" data-name="Group 322" transform="translate(10.582 9.367)">
      <g id="Group_321" data-name="Group 321">
        <path id="Path_8770" data-name="Path 8770" d="M140.846,239.767a.293.293,0,0,0-.293.293v.13a.293.293,0,0,0,.586,0v-.13A.293.293,0,0,0,140.846,239.767Z" transform="translate(-140.553 -239.767)"/>
      </g>
    </g>
    <g id="Group_324" data-name="Group 324" transform="translate(14.022 8.71)">
      <g id="Group_323" data-name="Group 323">
        <path id="Path_8771" data-name="Path 8771" d="M231.8,222.972a.293.293,0,0,0-.382.161,1.216,1.216,0,0,1-2.253,0,.293.293,0,0,0-.543.219,1.8,1.8,0,0,0,3.339,0A.293.293,0,0,0,231.8,222.972Z" transform="translate(-228.596 -222.95)"/>
      </g>
    </g>
    <g id="Group_326" data-name="Group 326" transform="translate(13.555 6.511)">
      <g id="Group_325" data-name="Group 325">
        <path id="Path_8772" data-name="Path 8772" d="M216.941,166.656a.293.293,0,0,0-.293.293v.18a.293.293,0,0,0,.586,0v-.18A.293.293,0,0,0,216.941,166.656Z" transform="translate(-216.648 -166.656)"/>
      </g>
    </g>
    <g id="Group_328" data-name="Group 328" transform="translate(17.284 6.511)">
      <g id="Group_327" data-name="Group 327">
        <path id="Path_8773" data-name="Path 8773" d="M312.413,166.656a.293.293,0,0,0-.293.293v.18a.293.293,0,1,0,.586,0v-.18A.293.293,0,0,0,312.413,166.656Z" transform="translate(-312.12 -166.656)"/>
      </g>
    </g>
    <g id="Group_330" data-name="Group 330" transform="translate(5.298)">
      <g id="Group_329" data-name="Group 329">
        <path id="Path_8774" data-name="Path 8774" d="M23.465,13.347a.293.293,0,0,0-.363.46,3.126,3.126,0,1,1-.986-.525.293.293,0,1,0,.178-.558,3.728,3.728,0,0,0-3.352.557,3.3,3.3,0,0,0-1.306-.266H17.4v-.67a4.024,4.024,0,0,0,2.3-3.158h.588a1.164,1.164,0,0,0,1.163-1.163V7.612a1.164,1.164,0,0,0-.646-1.041V3.08a2.015,2.015,0,0,0-2.013-2.013h-.516A2.006,2.006,0,0,0,16.512,0H14.076a3.447,3.447,0,0,0-1.855.539.293.293,0,0,0,.315.494,2.862,2.862,0,0,1,1.54-.448h2.436a1.416,1.416,0,0,1,1.267.793l.053.109a.293.293,0,0,0,.263.165h.7A1.428,1.428,0,0,1,20.221,3.08v3.37h-.49V5.059a3.607,3.607,0,0,0-1.186-2.671.45.45,0,0,0-.746.257,2.72,2.72,0,0,1-2.685,2.25h-3.6a.293.293,0,1,0,0,.586h.181v.969H11.2V3.458a2.847,2.847,0,0,1,.558-1.7.293.293,0,1,0-.472-.348,3.429,3.429,0,0,0-.672,2.049V6.571a1.164,1.164,0,0,0-.646,1.041v.412s0,.008,0,.012H9.925a.263.263,0,0,1-.161-.055L8.811,7.24a.5.5,0,0,0-.762.191l-.2.45a.262.262,0,0,1-.239.155H7.128v-1.4A.44.44,0,0,1,7.567,6.2h.8a.293.293,0,0,0,.293-.293V5.642a.205.205,0,0,1,.205-.205H9.8a.293.293,0,1,0,0-.586H8.867a.792.792,0,0,0-.791.765H7.567A1.026,1.026,0,0,0,6.542,6.641V9.322H6.22a.923.923,0,0,0-.922.922v.3a.923.923,0,0,0,.922.922h.354a2.983,2.983,0,0,0,1.651,2.253v.351H8.137a2.488,2.488,0,0,0-2.473,2.2l-.28,2.42a.39.39,0,0,0,.388.435H9.291a.293.293,0,1,0,0-.586H7.419V16.909a.293.293,0,1,0-.586,0V18.54H5.992l.255-2.2a1.9,1.9,0,0,1,1.89-1.684h.1a1.3,1.3,0,0,0,2.571,0h.107a3.321,3.321,0,0,0-.439,1.31l-.388,3.35a.427.427,0,0,0,.424.475h9.4a3.727,3.727,0,0,0,3.546-6.442ZM10.559,7.612a.578.578,0,0,1,.577-.577h.851a.293.293,0,0,0,.293-.293V5.48h2.834a3.305,3.305,0,0,0,3.209-2.489,3.021,3.021,0,0,1,.821,2.068V6.742a.293.293,0,0,0,.293.293h.851a.578.578,0,0,1,.577.577v.412a.578.578,0,0,1-.577.577h-.857a.293.293,0,0,0-.293.278,3.435,3.435,0,0,1-2.138,3l-.011,0a3.447,3.447,0,0,1-2.559,0l-.015-.006a3.428,3.428,0,0,1-2.132-3,.293.293,0,0,0-.293-.278h-.857a.578.578,0,0,1-.577-.577Zm6.259,4.951v1.231a1.1,1.1,0,1,1-2.21,0V12.564a4.046,4.046,0,0,0,2.21,0Zm-6.573,1.876a.717.717,0,0,1-1.435,0v-.511a2.995,2.995,0,0,0,1.435,0Zm.673-.371h-.087v-.352a2.988,2.988,0,0,0,1.509-1.684.293.293,0,1,0-.552-.2,2.405,2.405,0,0,1-1.363,1.42h0a2.408,2.408,0,0,1-1.79,0l-.009,0a2.4,2.4,0,0,1-1.492-2.1.293.293,0,0,0-.293-.278H6.22a.336.336,0,0,1-.336-.336v-.3a.336.336,0,0,1,.336-.336h.615a.293.293,0,0,0,.293-.293V8.622h.481a.849.849,0,0,0,.774-.5l.156-.349.865.673a.851.851,0,0,0,.521.179h.214a1.163,1.163,0,0,0,1,.565h.588a4.014,4.014,0,0,0,2.3,3.159v.67h-.232A3.326,3.326,0,0,0,11.328,14.1,2.5,2.5,0,0,0,10.917,14.068ZM12.683,19.2V16.835a.293.293,0,1,0-.586,0V19.2h-1.4l.367-3.172a2.744,2.744,0,0,1,2.727-2.43h.232v.193a1.691,1.691,0,1,0,3.382,0V13.6h.232a2.732,2.732,0,0,1,.81.122,3.721,3.721,0,0,0,.41,5.481Z" transform="translate(-5.298 0)"/>
      </g>
    </g>
    <g id="Group_332" data-name="Group 332" transform="translate(18.66 13.776)">
      <g id="Group_331" data-name="Group 331">
        <path id="Path_8775" data-name="Path 8775" d="M351.905,354.25H350.7v-1.206a.419.419,0,0,0-.419-.419h-.912a.419.419,0,0,0-.419.419v1.206h-1.206a.419.419,0,0,0-.419.419v.912a.419.419,0,0,0,.419.419h1.206v1.206a.419.419,0,0,0,.419.419h.912a.419.419,0,0,0,.419-.419V356h1.206a.419.419,0,0,0,.419-.419v-.912A.419.419,0,0,0,351.905,354.25Zm-.167,1.163h-1.206a.419.419,0,0,0-.419.419v1.206h-.577v-1.206a.419.419,0,0,0-.419-.419h-1.206v-.577h1.206a.419.419,0,0,0,.419-.419v-1.206h.577v1.206a.419.419,0,0,0,.419.419h1.206Z" transform="translate(-347.325 -352.625)"/>
      </g>
    </g>
  </g>
</svg>
