<svg id="application" xmlns="http://www.w3.org/2000/svg" width="17.256" height="20.353" viewBox="0 0 17.256 20.353">
  <g id="Group_125" data-name="Group 125" transform="translate(0)">
    <g id="Group_124" data-name="Group 124">
      <path id="Path_70" data-name="Path 70" d="M54.222,1.328H52.117A1.991,1.991,0,0,0,50.24,0H44.93a1.991,1.991,0,0,0-1.877,1.327H40.948a1.991,1.991,0,0,0-1.991,1.991V18.362a1.991,1.991,0,0,0,1.991,1.991H54.222a1.991,1.991,0,0,0,1.991-1.991V3.319A1.991,1.991,0,0,0,54.222,1.328Zm-9.954.664a.665.665,0,0,1,.664-.664h5.309a.665.665,0,0,1,.664.664v.664H44.266Zm10.617,16.37a.665.665,0,0,1-.664.664H40.948a.665.665,0,0,1-.664-.664V3.319a.665.665,0,0,1,.664-.664h1.991v.664a.664.664,0,0,0,.664.664h7.963a.664.664,0,0,0,.664-.664V2.655h1.991a.665.665,0,0,1,.664.664V18.362Z" transform="translate(-38.957)" fill="#2a166f"/>
    </g>
  </g>
  <g id="Group_127" data-name="Group 127" transform="translate(2.655 6.637)">
    <g id="Group_126" data-name="Group 126" transform="translate(0 0)">
      <circle id="Ellipse_13" data-name="Ellipse 13" cx="0.664" cy="0.664" r="0.664" fill="#2a166f"/>
    </g>
  </g>
  <g id="Group_129" data-name="Group 129" transform="translate(5.31 6.637)">
    <g id="Group_128" data-name="Group 128" transform="translate(0)">
      <path id="Path_71" data-name="Path 71" d="M181.149,166.957h-7.963a.664.664,0,0,0,0,1.328h7.963a.664.664,0,1,0,0-1.328Z" transform="translate(-172.522 -166.957)" fill="#2a166f"/>
    </g>
  </g>
  <g id="Group_131" data-name="Group 131" transform="translate(2.655 10.619)">
    <g id="Group_130" data-name="Group 130" transform="translate(0 0)">
      <circle id="Ellipse_14" data-name="Ellipse 14" cx="0.664" cy="0.664" r="0.664" fill="#2a166f"/>
    </g>
  </g>
  <g id="Group_133" data-name="Group 133" transform="translate(5.31 10.619)">
    <g id="Group_132" data-name="Group 132" transform="translate(0)">
      <path id="Path_72" data-name="Path 72" d="M181.149,267.13h-7.963a.664.664,0,0,0,0,1.328h7.963a.664.664,0,1,0,0-1.328Z" transform="translate(-172.522 -267.13)" fill="#2a166f"/>
    </g>
  </g>
  <g id="Group_135" data-name="Group 135" transform="translate(2.655 14.601)">
    <g id="Group_134" data-name="Group 134" transform="translate(0 0)">
      <circle id="Ellipse_15" data-name="Ellipse 15" cx="0.664" cy="0.664" r="0.664" fill="#2a166f"/>
    </g>
  </g>
  <g id="Group_137" data-name="Group 137" transform="translate(5.31 14.598)">
    <g id="Group_136" data-name="Group 136" transform="translate(0 0)">
      <path id="Path_73" data-name="Path 73" d="M181.149,367.3h-7.963a.664.664,0,0,0,0,1.328h7.963a.664.664,0,1,0,0-1.328Z" transform="translate(-172.522 -367.3)" fill="#2a166f"/>
    </g>
  </g>
</svg>
