<svg xmlns="http://www.w3.org/2000/svg" width="20.333" height="20.5" viewBox="0 0 20.333 20.5">
  <g id="applied" transform="translate(-12 -10)">
    <path id="Path_8776" data-name="Path 8776" d="M71.7,161.418h2.393a.365.365,0,0,0,.364-.364v-.809a.25.25,0,0,0-.5,0v.673H71.832V158.8h1.061a.25.25,0,0,0,0-.5H71.7a.365.365,0,0,0-.364.364v2.39A.365.365,0,0,0,71.7,161.418Z" transform="translate(-56.86 -142.121)"/>
    <path id="Path_8777" data-name="Path 8777" d="M97.506,153.6a.25.25,0,0,0-.352.032l-1.193,1.433-.383-.31a.25.25,0,1,0-.314.389l.46.372a.4.4,0,0,0,.53-.023l.01-.01,1.274-1.531A.25.25,0,0,0,97.506,153.6Z" transform="translate(-79.706 -137.564)"/>
    <path id="Path_8778" data-name="Path 8778" d="M211.98,162.482h-9.755a.25.25,0,1,0,0,.5h9.755a.25.25,0,0,0,0-.5Z" transform="translate(-182.059 -146.129)"/>
    <path id="Path_8779" data-name="Path 8779" d="M211.98,212.193h-9.755a.25.25,0,0,0,0,.5h9.755a.25.25,0,1,0,0-.5Z" transform="translate(-182.059 -193.768)"/>
    <path id="Path_8780" data-name="Path 8780" d="M74.2,287.163a.25.25,0,0,0-.25.25v.673H71.832v-2.118h1.061a.25.25,0,0,0,0-.5H71.7a.365.365,0,0,0-.364.364v2.39a.365.365,0,0,0,.364.364h2.393a.365.365,0,0,0,.364-.364v-.809A.25.25,0,0,0,74.2,287.163Z" transform="translate(-56.86 -263.99)"/>
    <path id="Path_8781" data-name="Path 8781" d="M97.507,280.77a.25.25,0,0,0-.352.032l-1.192,1.433-.383-.31a.25.25,0,1,0-.315.389l.46.372a.4.4,0,0,0,.53-.023l.01-.01,1.274-1.531A.25.25,0,0,0,97.507,280.77Z" transform="translate(-79.707 -259.432)"/>
    <path id="Path_8782" data-name="Path 8782" d="M389.633,289.65H387.6a.25.25,0,0,0,0,.5h2.031a.25.25,0,1,0,0-.5Z" transform="translate(-359.712 -267.998)"/>
    <path id="Path_8783" data-name="Path 8783" d="M205.393,289.65h-3.168a.25.25,0,1,0,0,.5h3.168a.25.25,0,1,0,0-.5Z" transform="translate(-182.059 -267.998)"/>
    <path id="Path_8784" data-name="Path 8784" d="M203.079,339.362h-.854a.25.25,0,1,0,0,.5h.854a.25.25,0,0,0,0-.5Z" transform="translate(-182.059 -315.639)"/>
    <path id="Path_8785" data-name="Path 8785" d="M31.182,10H13.152A1.153,1.153,0,0,0,12,11.151V26.093a1.152,1.152,0,0,0,1.15,1.151l9.535.067.483,1.9,0,.01A1.784,1.784,0,0,0,24.89,30.5h3.486a1.8,1.8,0,0,0,1.8-1.8V27.3l1.018-.056a1.153,1.153,0,0,0,1.144-1.151V11.151A1.153,1.153,0,0,0,31.182,10Zm-18.03.5h18.03a.652.652,0,0,1,.652.651v2.531H12.5V11.151a.652.652,0,0,1,.652-.651ZM29.671,28.7a1.3,1.3,0,0,1-1.3,1.3H24.89a1.287,1.287,0,0,1-1.239-.919L23.122,27a8.862,8.862,0,0,0-.5-1.429l-.041-.1a1.645,1.645,0,0,1,1.354.711l.43.623v.928a.25.25,0,1,0,.5,0V20.943a.47.47,0,1,1,.941,0v4.438a.25.25,0,0,0,.011.072v1.019a.25.25,0,1,0,.5,0v-1.4a.373.373,0,1,1,.746,0v.283a.9.9,0,0,0-.01.132v.981a.25.25,0,0,0,.25.25h.01a.25.25,0,0,0,.25-.25V25.4a.4.4,0,0,1,.793.087v1.241a.25.25,0,1,0,.5,0v-.849a.407.407,0,1,1,.813,0Zm1.511-1.96h-.014l-1,.054v-.917a.906.906,0,0,0-1.394-.764.9.9,0,0,0-1.289-.4.869.869,0,0,0-1.18-.428v-3.35a.97.97,0,0,0-1.941,0v4.986l-.018-.027a2.145,2.145,0,0,0-1.766-.927.5.5,0,0,0-.458.707l.042.094a8.365,8.365,0,0,1,.383,1.035l-9.4-.067a.652.652,0,0,1-.651-.651V14.183H31.833V26.093a.652.652,0,0,1-.652.651Z"/>
    <path id="Path_8786" data-name="Path 8786" d="M40.158,38.348a.958.958,0,1,0-.958-.958A.958.958,0,0,0,40.158,38.348Zm0-1.416a.458.458,0,1,1-.458.458A.458.458,0,0,1,40.158,36.931Z" transform="translate(-26.067 -25.33)"/>
    <path id="Path_8787" data-name="Path 8787" d="M100.791,38.348a.958.958,0,1,0-.958-.958A.958.958,0,0,0,100.791,38.348Zm0-1.416a.458.458,0,1,1-.458.458A.458.458,0,0,1,100.791,36.931Z" transform="translate(-84.173 -25.33)"/>
    <path id="Path_8788" data-name="Path 8788" d="M161.425,38.348a.958.958,0,1,0-.958-.958A.958.958,0,0,0,161.425,38.348Zm0-1.416a.458.458,0,1,1-.458.458A.458.458,0,0,1,161.425,36.931Z" transform="translate(-142.281 -25.33)"/>
    <path id="Path_8789" data-name="Path 8789" d="M267.25,52.8h8.122a.25.25,0,0,0,0-.5H267.25a.25.25,0,0,0,0,.5Z" transform="translate(-244.375 -40.538)"/>
  </g>
</svg>
