<svg xmlns="http://www.w3.org/2000/svg" width="7.934" height="8.811" viewBox="0 0 7.934 8.811">
  <g id="cancelled" transform="translate(-0.023)">
    <path id="Path_8741" data-name="Path 8741" d="M25.023,13h2.348v.293H25.023Zm0,0" transform="translate(-21.331 -11.092)" fill="#fff"/>
    <path id="Path_8742" data-name="Path 8742" d="M25.023,18h2.348v.293H25.023Zm0,0" transform="translate(-21.331 -15.359)" fill="#fff"/>
    <path id="Path_8743" data-name="Path 8743" d="M5.023,26H7.518v.293H5.023Zm0,0" transform="translate(-4.266 -22.185)" fill="#fff"/>
    <path id="Path_8744" data-name="Path 8744" d="M5.023,31H6.931v.293H5.023Zm0,0" transform="translate(-4.266 -26.451)" fill="#fff"/>
    <path id="Path_8745" data-name="Path 8745" d="M7.518,10H5.023v1.761H7.518Zm-.293,1.467H5.317V10.293H7.225Zm0,0" transform="translate(-4.266 -8.533)" fill="#fff"/>
    <path id="Path_8746" data-name="Path 8746" d="M6.774,4.194V1.027h.452L7.2.857A1,1,0,0,0,6.913.3,1.014,1.014,0,0,0,6.187,0H1.051A1.028,1.028,0,0,0,.023,1.027V8.365H4.038a2.495,2.495,0,1,0,2.735-4.17ZM6.187.293a.74.74,0,0,1,.674.44H2.035A.981.981,0,0,0,1.777.3L1.767.293ZM.317,8.071V1.027A.734.734,0,0,1,1.57.509a.712.712,0,0,1,.2.395l.021.123H6.48v3.01A2.494,2.494,0,0,0,3.687,8.071Zm6.457,0c-.047.034-.094.068-.144.1l-.081.048a2.034,2.034,0,0,1-.307.147,2.2,2.2,0,0,1-2.11-.293c-.034-.025-.066-.052-.1-.078A2.2,2.2,0,0,1,5.453,4.109a2.163,2.163,0,0,1,1.027.254l.009,0a2.2,2.2,0,0,1,.285,3.7Zm0,0" fill="#fff"/>
    <path id="Path_8747" data-name="Path 8747" d="M28.2,33.351l.831-.831-.829-.829-.831.831-.831-.831-.829.829.831.831-.831.831.829.829.831-.831.831.831.829-.829Zm0,1.246-.831-.83-.831.83-.416-.415.831-.831-.831-.831.416-.415.831.831.831-.831.415.415-.831.831.831.831Zm0,0" transform="translate(-21.918 -27.041)" fill="#fff"/>
    <path id="Path_8748" data-name="Path 8748" d="M5.023,36H6.931v.293H5.023Zm0,0" transform="translate(-4.266 -30.717)" fill="#fff"/>
  </g>
</svg>
