<svg xmlns="http://www.w3.org/2000/svg" width="18" height="18" viewBox="0 0 18 18">
  <g id="dashboard" transform="translate(0 0)">
    <path id="Path_1" data-name="Path 1" d="M6.937,6H1.312A1.314,1.314,0,0,1,0,4.688V1.313A1.314,1.314,0,0,1,1.312,0H6.937A1.314,1.314,0,0,1,8.25,1.313V4.688A1.314,1.314,0,0,1,6.937,6ZM1.312,1.125a.188.188,0,0,0-.187.187V4.688a.188.188,0,0,0,.187.188H6.937a.188.188,0,0,0,.188-.188V1.313a.188.188,0,0,0-.188-.187Zm0,0" fill="#2a166f"/>
    <path id="Path_2" data-name="Path 2" d="M6.937,223.832H1.312A1.314,1.314,0,0,1,0,222.52v-7.875a1.314,1.314,0,0,1,1.312-1.313H6.937a1.314,1.314,0,0,1,1.313,1.313v7.875A1.314,1.314,0,0,1,6.937,223.832Zm-5.625-9.375a.188.188,0,0,0-.187.188v7.875a.188.188,0,0,0,.187.187H6.937a.188.188,0,0,0,.188-.187v-7.875a.188.188,0,0,0-.188-.188Zm0,0" transform="translate(0 -205.832)" fill="#2a166f"/>
    <path id="Path_3" data-name="Path 3" d="M284.27,347.332h-5.625a1.314,1.314,0,0,1-1.313-1.312v-3.375a1.314,1.314,0,0,1,1.313-1.313h5.625a1.314,1.314,0,0,1,1.313,1.313v3.375A1.314,1.314,0,0,1,284.27,347.332Zm-5.625-4.875a.188.188,0,0,0-.188.188v3.375a.188.188,0,0,0,.188.187h5.625a.188.188,0,0,0,.187-.187v-3.375a.188.188,0,0,0-.187-.188Zm0,0" transform="translate(-267.582 -329.332)" fill="#2a166f"/>
    <path id="Path_4" data-name="Path 4" d="M284.27,10.5h-5.625a1.314,1.314,0,0,1-1.313-1.313V1.313A1.314,1.314,0,0,1,278.645,0h5.625a1.314,1.314,0,0,1,1.313,1.312V9.188A1.314,1.314,0,0,1,284.27,10.5Zm-5.625-9.375a.188.188,0,0,0-.188.187V9.188a.188.188,0,0,0,.188.188h5.625a.188.188,0,0,0,.187-.188V1.313a.188.188,0,0,0-.187-.187Zm0,0" transform="translate(-267.582)" fill="#2a166f"/>
  </g>
</svg>
