<svg xmlns="http://www.w3.org/2000/svg" width="18.173" height="20.484" viewBox="0 0 18.173 20.484">
  <g id="Group_298" data-name="Group 298" transform="translate(-2141.681 -2626.518)">
    <path id="Path_8739" data-name="Path 8739" d="M74.835,114.908H61.547a.525.525,0,0,0-.394.131.446.446,0,0,0-.131.394l1.366,11.9a2.6,2.6,0,0,0,2.6,2.285H71.6a2.6,2.6,0,0,0,2.626-2.363l1.129-11.87a.446.446,0,0,0-.131-.341A.525.525,0,0,0,74.835,114.908ZM73.18,127.2a1.523,1.523,0,0,1-1.576,1.366H64.987a1.5,1.5,0,0,1-1.549-1.339l-1.313-11.266H74.257Z" transform="translate(2082.577 2517.387)" fill="#2a166f"/>
    <path id="Path_8740" data-name="Path 8740" d="M40.64,2.364h-5.41v-.84A1.471,1.471,0,0,0,33.814,0H30.425a1.471,1.471,0,0,0-1.5,1.443q0,.04,0,.08v.84h-5.41a.525.525,0,0,0,0,1.05H40.64a.525.525,0,1,0,0-1.05Zm-6.46-.84v.84h-4.2v-.84a.42.42,0,0,1,.446-.473h3.309a.42.42,0,0,1,.449.389A.415.415,0,0,1,34.18,1.523Z" transform="translate(2118.688 2626.518)" fill="#2a166f"/>
  </g>
</svg>
