<svg xmlns="http://www.w3.org/2000/svg" width="49.999" height="47" viewBox="0 0 49.999 47">
  <path id="internship_participation-2" data-name="internship participation-2" d="M16,3a2.944,2.944,0,0,0-3,2.857V8H2.668A2.656,2.656,0,0,0,0,10.611V36.389A2.656,2.656,0,0,0,2.668,39H25.859A20.687,20.687,0,0,0,25,45.727a1,1,0,0,0,1,.994c4.841,0,7.825,1.4,8.635,2.783a1,1,0,0,0,1.727,0c.81-1.386,3.795-2.785,8.637-2.785a1,1,0,0,0,1-.994c.025-3.987-.53-6.687-1.879-9.014L47,34.883V39.3a1.669,1.669,0,0,0-.715,1.365c0,.168,0,.677.844,1.9l.822,1.193.824-1.191c.844-1.223.844-1.732.844-1.9A1.662,1.662,0,0,0,49,39.381v-5.77l.535-.34a1,1,0,0,0-.053-1.719L42,27.435V10.611A2.656,2.656,0,0,0,39.332,8H29V5.857A2.944,2.944,0,0,0,26,3Zm0,2H26a.924.924,0,0,1,1,.857V8H15V5.857A.924.924,0,0,1,16,5ZM2.668,10H13.832a1,1,0,0,0,.326,0H27.832a1,1,0,0,0,.326,0H39.332a.626.626,0,0,1,.668.611V26.334l-4.018-2.211a1,1,0,0,0-.965,0L33.424,25H3a.924.924,0,0,1-1-.857V10.611A.626.626,0,0,1,2.668,10ZM21,18a2,2,0,1,0,2,2A2,2,0,0,0,21,18Zm14.5,8.143L47.037,32.49,35.5,39.814,23.963,32.49ZM2,26.822A3.073,3.073,0,0,0,3,27H29.791l-8.273,4.553a1,1,0,0,0-.055,1.719l5.414,3.439c-.055.094-.1.194-.152.289H2.668A.626.626,0,0,1,2,36.389ZM28.566,37.781l6.4,4.063a.995.995,0,0,0,1.07,0l6.4-4.061a14.191,14.191,0,0,1,1.561,6.957c-3.757.148-6.825,1.131-8.494,2.691-1.669-1.561-4.734-2.542-8.49-2.691A14.164,14.164,0,0,1,28.566,37.781Z" transform="translate(0 -3)"/>
</svg>
