<svg xmlns="http://www.w3.org/2000/svg" width="20.262" height="20.263" viewBox="0 0 20.262 20.263">
  <g id="link" transform="translate(-0.003)">
    <path id="Path_8738" data-name="Path 8738" d="M19.151,1.115A3.659,3.659,0,0,0,16.467,0H3.8A3.66,3.66,0,0,0,1.118,1.115,3.66,3.66,0,0,0,0,3.8V16.463a3.66,3.66,0,0,0,1.115,2.685A3.66,3.66,0,0,0,3.8,20.263H16.466a3.806,3.806,0,0,0,3.8-3.8V3.8A3.66,3.66,0,0,0,19.151,1.115Zm-2.262,9.439a.789.789,0,0,1-.515.778.918.918,0,0,1-.33.066.785.785,0,0,1-.594-.251l-1.9-1.9L6.507,16.292a.829.829,0,0,1-1.188,0L3.974,14.946a.828.828,0,0,1,0-1.187l7.045-7.045-1.9-1.9a.761.761,0,0,1-.185-.923.789.789,0,0,1,.778-.515h6.332a.856.856,0,0,1,.844.844v6.332Z" fill="#2a166f"/>
  </g>
</svg>
