<svg id="Capa_1" enable-background="new 0 0 512.102 512.102" height="512" viewBox="0 0 512.102 512.102" width="512" xmlns="http://www.w3.org/2000/svg"><g><g><g><path d="m496.575 209.737c-.523-1.35-1.376-2.535-2.507-3.386-.003-.002-56.969-42.917-56.969-42.917v-147.652c0-8.702-7.08-15.782-15.782-15.782h-330.533c-8.702 0-15.782 7.08-15.782 15.782v147.652l-56.968 42.916c-.012.009-.022.02-.033.029-1.813 1.391-2.954 3.648-2.954 5.962v267.95c0 17.54 14.27 31.811 31.81 31.811h58.337c4.143 0 7.5-3.357 7.5-7.5s-3.357-7.5-7.5-7.5h-58.338c-9.269 0-16.81-7.541-16.81-16.811v-255.011s210.191 120.403 210.194 120.404c9.608 5.503 21.968 5.53 31.622 0 .002-.001 210.193-120.404 210.193-120.404v255.011c0 9.27-7.541 16.811-16.811 16.811h-325.417c-4.143 0-7.5 3.357-7.5 7.5s3.357 7.5 7.5 7.5h325.418c17.54 0 31.811-14.271 31.811-31.811v-267.95c-.001-.891-.183-1.834-.481-2.604zm-421.574 24.008-38.857-22.258 38.857-29.273zm347.098 8.593-157.692 90.331c-5.154 2.95-11.558 2.951-16.712 0l-157.694-90.331v-226.556c0-.432.351-.782.782-.782h330.533c.432 0 .782.351.782.782v226.556zm15-8.592v-51.532l38.857 29.273z"/><path d="m350.917 81.729h-51.752v-11.025c0-12.39-10.079-22.469-22.469-22.469h-41.294c-12.39 0-22.469 10.079-22.469 22.469v11.024h-51.752c-8.74 0-15.851 7.11-15.851 15.851v58.786c0 6.278 3.678 11.699 8.983 14.264v64.208c0 11.315 9.205 20.521 20.521 20.521h162.429c11.315 0 20.521-9.205 20.521-20.521v-64.208c5.305-2.565 8.982-7.986 8.982-14.263v-11.468c0-4.143-3.357-7.5-7.5-7.5s-7.5 3.357-7.5 7.5v11.468c0 .469-.382.851-.851.851h-53.416v-6.298c0-7.515-6.114-13.629-13.629-13.629h-48.779c-7.515 0-13.628 6.114-13.628 13.629v6.298h-60.283c-.469 0-.851-.382-.851-.851v-58.787c0-.469.382-.851.851-.851h189.735c.469 0 .851.382.851.851v12.374c0 4.143 3.357 7.5 7.5 7.5s7.5-3.357 7.5-7.5v-12.374c.002-8.74-7.108-15.85-15.849-15.85zm-114.452 70.56h46.036v23.523h-46.036zm-67.15 19.927h52.15v4.968c0 7.515 6.113 13.629 13.628 13.629h48.779c7.515 0 13.629-6.114 13.629-13.629v-4.968h45.284v62.621c0 3.044-2.477 5.521-5.521 5.521h-162.429c-3.044 0-5.521-2.477-5.521-5.521v-62.621zm114.851-90.487h-56.231v-11.025c0-4.118 3.351-7.469 7.469-7.469h41.294c4.118 0 7.469 3.351 7.469 7.469v11.025z"/></g></g></g></svg>