<svg xmlns="http://www.w3.org/2000/svg" width="46.003" height="46" viewBox="0 0 46.003 46">
  <path id="practical_training-2" data-name="practical training-2" d="M12,2a5,5,0,1,0,5,5A5.015,5.015,0,0,0,12,2ZM29,2V4H19V6H46V32H20v2h8.5L23,45h2l5-10,5,10h2L31.5,34H47a1,1,0,0,0,1-1V5a1,1,0,0,0-1-1H31V2ZM12,4A3,3,0,1,1,9,7,2.986,2.986,0,0,1,12,4ZM7.5,13A5.513,5.513,0,0,0,2,18.5V30.813a.668.668,0,0,0,0,.125V31a.972.972,0,0,0,.031.281A3.009,3.009,0,0,0,5,34a2.95,2.95,0,0,0,1-.187V44.5a3.492,3.492,0,0,0,6,2.438A3.492,3.492,0,0,0,18,44.5V19H29a3,3,0,0,0,.063-6H15a.993.993,0,0,0-.906.563L12,17.75,9.906,13.563A.993.993,0,0,0,9,13Zm0,2h.875l2.719,5.438a1,1,0,0,0,1.813,0L15.625,15H29.094A1,1,0,0,1,29,17H17a1,1,0,0,0-1,1V44.5a1.5,1.5,0,0,1-3,.156V34a1,1,0,0,0-1.094-1.031,1.165,1.165,0,0,0-.125.031A1,1,0,0,0,11,34V44.313a.669.669,0,0,0,0,.125v.219A1.5,1.5,0,0,1,8,44.5V21a1,1,0,1,0-2,0V31a1,1,0,0,1-2,.063V31a.753.753,0,0,0,0-.187V18.5A3.484,3.484,0,0,1,7.5,15Z" transform="translate(-1.997 -2)"/>
</svg>
