<svg id="search" xmlns="http://www.w3.org/2000/svg" width="18.192" height="18.195" viewBox="0 0 18.192 18.195">
  <g id="Group_293" data-name="Group 293">
    <g id="Group_292" data-name="Group 292">
      <path id="Path_8733" data-name="Path 8733" d="M8.011,0a8.011,8.011,0,1,0,8.011,8.011A8.011,8.011,0,0,0,8.011,0Zm0,14.544a6.532,6.532,0,1,1,6.532-6.532A6.532,6.532,0,0,1,8.011,14.544Z" fill="#2a166f"/>
    </g>
  </g>
  <g id="Group_295" data-name="Group 295" transform="translate(12.468 12.471)">
    <g id="Group_294" data-name="Group 294" transform="translate(0 0)">
      <path id="Path_8734" data-name="Path 8734" d="M356.547,355.5l-4.24-4.24a.742.742,0,0,0-1.05,1.049l4.24,4.24a.742.742,0,0,0,1.049-1.049Z" transform="translate(-351.04 -351.045)" fill="#2a166f"/>
    </g>
  </g>
</svg>
