<svg xmlns="http://www.w3.org/2000/svg" width="20.399" height="20.401" viewBox="0 0 20.399 20.401">
  <g id="submitted" transform="translate(-10 -10)">
    <path id="Path_8790" data-name="Path 8790" d="M253.041,469.4H247.91a.315.315,0,0,0-.31.318v.637a.314.314,0,0,0,.31.318h3.976A4.2,4.2,0,0,1,253.041,469.4Z" transform="translate(-232.654 -449.838)" fill="#fff"/>
    <path id="Path_8791" data-name="Path 8791" d="M250.764,653.1H247.91a.315.315,0,0,0-.31.318v.637a.314.314,0,0,0,.31.318h2.65a3.126,3.126,0,0,1,.05-.722c0-.013.1-.441.067-.164A2.011,2.011,0,0,1,250.764,653.1Z" transform="translate(-232.654 -629.714)" fill="#fff"/>
    <path id="Path_8792" data-name="Path 8792" d="M254.4,286.655v-.637a.313.313,0,0,0-.31-.318H247.91a.315.315,0,0,0-.31.318v.637a.315.315,0,0,0,.31.318h6.184A.314.314,0,0,0,254.4,286.655Z" transform="translate(-232.654 -269.961)" fill="#fff"/>
    <path id="Path_8793" data-name="Path 8793" d="M463.141,457.5a5.543,5.543,0,1,0,5.541,5.545A5.542,5.542,0,0,0,463.141,457.5Zm3.031,4.225-3.613,3.613a.215.215,0,0,1-.306,0l-2.14-2.146a.215.215,0,0,1,0-.306l.672-.674a.215.215,0,0,1,.306,0l1.316,1.315,2.785-2.785a.215.215,0,0,1,.306,0l.672.672A.222.222,0,0,1,466.171,461.725Z" transform="translate(-438.283 -438.185)" fill="#fff"/>
    <path id="Path_8794" data-name="Path 8794" d="M19.281,29.125H11.855a.628.628,0,0,1-.618-.637V11.913a.629.629,0,0,1,.618-.637H24.841a.628.628,0,0,1,.618.637v5.945a6.922,6.922,0,0,1,1.236.221v-6.8A1.257,1.257,0,0,0,25.459,10H11.236A1.256,1.256,0,0,0,10,11.276V29.123A1.257,1.257,0,0,0,11.236,30.4h9.308A7.038,7.038,0,0,1,19.281,29.125Z" fill="#fff"/>
  </g>
</svg>
