<svg xmlns="http://www.w3.org/2000/svg" width="16.692" height="20.002" viewBox="0 0 16.692 20.002">
  <g id="user" transform="translate(0.005 0)">
    <path id="Path_27" data-name="Path 27" d="M91.849,9.634a4.661,4.661,0,0,0,3.406-1.411,4.661,4.661,0,0,0,1.411-3.406,4.662,4.662,0,0,0-1.411-3.406,4.816,4.816,0,0,0-6.812,0,4.661,4.661,0,0,0-1.411,3.406,4.661,4.661,0,0,0,1.411,3.406,4.663,4.663,0,0,0,3.406,1.411ZM89.272,2.24a3.644,3.644,0,0,1,5.154,0,3.483,3.483,0,0,1,1.068,2.577,3.482,3.482,0,0,1-1.068,2.577,3.643,3.643,0,0,1-5.154,0A3.482,3.482,0,0,1,88.2,4.817,3.482,3.482,0,0,1,89.272,2.24Zm0,0" transform="translate(-83.632)" fill="#2a166f"/>
    <path id="Path_28" data-name="Path 28" d="M16.645,253.034a11.9,11.9,0,0,0-.162-1.264,9.958,9.958,0,0,0-.311-1.271,6.276,6.276,0,0,0-.522-1.185,4.467,4.467,0,0,0-.787-1.026,3.472,3.472,0,0,0-1.131-.711,3.91,3.91,0,0,0-1.444-.261,1.466,1.466,0,0,0-.783.332c-.235.153-.509.33-.816.526a4.673,4.673,0,0,1-1.055.465,4.1,4.1,0,0,1-2.581,0A4.658,4.658,0,0,1,6,248.174c-.3-.194-.578-.371-.816-.526a1.464,1.464,0,0,0-.783-.332,3.9,3.9,0,0,0-1.444.262,3.471,3.471,0,0,0-1.132.711,4.468,4.468,0,0,0-.787,1.026A6.288,6.288,0,0,0,.513,250.5,9.982,9.982,0,0,0,.2,251.77a11.818,11.818,0,0,0-.162,1.264c-.027.382-.04.779-.04,1.181a3.321,3.321,0,0,0,.986,2.512,3.55,3.55,0,0,0,2.542.927h9.63a3.551,3.551,0,0,0,2.541-.927,3.32,3.32,0,0,0,.986-2.513c0-.4-.014-.8-.04-1.181Zm-1.754,2.845a2.39,2.39,0,0,1-1.734.6H3.528a2.39,2.39,0,0,1-1.734-.6,2.169,2.169,0,0,1-.622-1.663c0-.375.012-.745.037-1.1a10.658,10.658,0,0,1,.146-1.138,8.8,8.8,0,0,1,.273-1.12,5.119,5.119,0,0,1,.425-.964,3.312,3.312,0,0,1,.579-.758,2.3,2.3,0,0,1,.753-.468,2.7,2.7,0,0,1,.923-.178c.041.022.114.063.233.141.241.157.519.336.826.532a5.807,5.807,0,0,0,1.325.592,5.269,5.269,0,0,0,3.3,0,5.813,5.813,0,0,0,1.325-.592c.314-.2.584-.375.825-.532.118-.077.191-.119.233-.141a2.7,2.7,0,0,1,.923.178,2.307,2.307,0,0,1,.753.468,3.3,3.3,0,0,1,.579.759,5.1,5.1,0,0,1,.425.963,8.781,8.781,0,0,1,.273,1.12,10.748,10.748,0,0,1,.146,1.138h0c.025.354.037.724.038,1.1a2.168,2.168,0,0,1-.623,1.663Zm0,0" transform="translate(0 -237.655)" fill="#2a166f"/>
  </g>
</svg>
