<svg id="_x31_" enable-background="new 0 0 24 24" height="512" viewBox="0 0 24 24" width="512" xmlns="http://www.w3.org/2000/svg"><g><path d="m22.5 20h-21c-.827 0-1.5-.673-1.5-1.5v-13c0-.827.673-1.5 1.5-1.5h2c.276 0 .5.224.5.5s-.224.5-.5.5h-2c-.276 0-.5.225-.5.5v13c0 .275.224.5.5.5h21c.276 0 .5-.225.5-.5v-13c0-.275-.224-.5-.5-.5h-2c-.276 0-.5-.224-.5-.5s.224-.5.5-.5h2c.827 0 1.5.673 1.5 1.5v13c0 .827-.673 1.5-1.5 1.5z"/></g><g><path d="m16.5 24h-9c-.276 0-.5-.224-.5-.5s.224-.5.5-.5h9c.276 0 .5.224.5.5s-.224.5-.5.5z"/></g><g><path d="m10.5 24c-.276 0-.5-.224-.5-.5v-4c0-.276.224-.5.5-.5s.5.224.5.5v4c0 .276-.224.5-.5.5z"/></g><g><path d="m13.5 24c-.276 0-.5-.224-.5-.5v-4c0-.276.224-.5.5-.5s.5.224.5.5v4c0 .276-.224.5-.5.5z"/></g><g><path d="m16.5 10h-9c-.827 0-1.5-.673-1.5-1.5v-5c0-.827.673-1.5 1.5-1.5h9c.827 0 1.5.673 1.5 1.5v5c0 .827-.673 1.5-1.5 1.5zm-9-7c-.276 0-.5.225-.5.5v5c0 .275.224.5.5.5h9c.276 0 .5-.225.5-.5v-5c0-.275-.224-.5-.5-.5z"/></g><g><path d="m14 3c-.276 0-.5-.224-.5-.5v-1c0-.275-.224-.5-.5-.5h-2c-.276 0-.5.225-.5.5v1c0 .276-.224.5-.5.5s-.5-.224-.5-.5v-1c0-.827.673-1.5 1.5-1.5h2c.827 0 1.5.673 1.5 1.5v1c0 .276-.224.5-.5.5z"/></g><g><path d="m17.5 6h-11c-.276 0-.5-.224-.5-.5s.224-.5.5-.5h11c.276 0 .5.224.5.5s-.224.5-.5.5z"/></g><g><path d="m12 7c-.276 0-.5-.224-.5-.5v-2c0-.276.224-.5.5-.5s.5.224.5.5v2c0 .276-.224.5-.5.5z"/></g></svg>