<svg id="add" xmlns="http://www.w3.org/2000/svg" width="22.5" height="22.5" viewBox="0 0 22.5 22.5">
  <g id="Group_236" data-name="Group 236">
    <g id="Group_235" data-name="Group 235">
      <path id="Path_163" data-name="Path 163" d="M11.25,0A11.25,11.25,0,1,0,22.5,11.25,11.25,11.25,0,0,0,11.25,0Zm0,21.774A10.524,10.524,0,1,1,21.774,11.25,10.524,10.524,0,0,1,11.25,21.774Z" fill="#fff"/>
      <path id="Path_164" data-name="Path 164" d="M102.153,94.9H95.621V88.363a.363.363,0,0,0-.726,0V94.9H88.363a.363.363,0,0,0,0,.726H94.9v6.532a.363.363,0,0,0,.726,0V95.621h6.532a.363.363,0,0,0,0-.726Z" transform="translate(-84.008 -84.008)" fill="#fff"/>
    </g>
  </g>
</svg>
