<svg id="Calendar" xmlns="http://www.w3.org/2000/svg" width="22" height="22" viewBox="0 0 22 22">
  <path id="Path_5525" data-name="Path 5525" d="M22.167,4.2H20.333V3.467a1.467,1.467,0,0,0-2.933,0V4.2H14.467V3.467a1.467,1.467,0,1,0-2.933,0V4.2H8.6V3.467a1.467,1.467,0,0,0-2.933,0V4.2H3.833A1.833,1.833,0,0,0,2,6.033V20.7a1.833,1.833,0,0,0,1.833,1.833H14.1a.367.367,0,0,0,0-.733H3.833a1.1,1.1,0,0,1-1.1-1.1V9.333H23.267v6.233a.367.367,0,1,0,.733,0V6.033A1.833,1.833,0,0,0,22.167,4.2Zm-4.033-.733a.733.733,0,0,1,1.467,0v2.2a.733.733,0,0,1-1.467,0Zm-5.867,0a.733.733,0,1,1,1.467,0v2.2a.733.733,0,1,1-1.467,0Zm-5.867,0a.733.733,0,0,1,1.467,0v2.2a.733.733,0,1,1-1.467,0ZM23.267,8.6H2.733V6.033a1.1,1.1,0,0,1,1.1-1.1H5.667v.733a1.467,1.467,0,0,0,2.933,0V4.933h2.933v.733a1.467,1.467,0,1,0,2.933,0V4.933H17.4v.733a1.467,1.467,0,0,0,2.933,0V4.933h1.833a1.1,1.1,0,0,1,1.1,1.1Z" transform="translate(-2 -2)" fill="#fff"/>
  <path id="Path_5526" data-name="Path 5526" d="M24.933,27.733A.733.733,0,0,0,24.2,27H22.733a.733.733,0,0,0-.733.733v1.1a.733.733,0,0,0,.733.733H24.2a.733.733,0,0,0,.733-.733Zm-2.2,1.1v-1.1H24.2v1.1Z" transform="translate(-14.667 -17.833)" fill="#fff"/>
  <path id="Path_5527" data-name="Path 5527" d="M12.933,27.733A.733.733,0,0,0,12.2,27H10.733a.733.733,0,0,0-.733.733v1.1a.733.733,0,0,0,.733.733H12.2a.733.733,0,0,0,.733-.733Zm-2.2,1.1v-1.1H12.2v1.1Z" transform="translate(-7.067 -17.833)" fill="#fff"/>
  <path id="Path_5528" data-name="Path 5528" d="M48.2,29.567a.733.733,0,0,0,.733-.733v-1.1A.733.733,0,0,0,48.2,27H46.733a.733.733,0,0,0-.733.733v1.1a.733.733,0,0,0,.733.733Zm-1.467-1.833H48.2v1.1H46.733Z" transform="translate(-29.867 -17.833)" fill="#fff"/>
  <path id="Path_5529" data-name="Path 5529" d="M24.933,36.733A.733.733,0,0,0,24.2,36H22.733a.733.733,0,0,0-.733.733v1.1a.733.733,0,0,0,.733.733H24.2a.733.733,0,0,0,.733-.733Zm-2.2,1.1v-1.1H24.2v1.1Z" transform="translate(-14.667 -23.533)" fill="#fff"/>
  <path id="Path_5530" data-name="Path 5530" d="M12.933,36.733A.733.733,0,0,0,12.2,36H10.733a.733.733,0,0,0-.733.733v1.1a.733.733,0,0,0,.733.733H12.2a.733.733,0,0,0,.733-.733Zm-2.2,1.1v-1.1H12.2v1.1Z" transform="translate(-7.067 -23.533)" fill="#fff"/>
  <path id="Path_5531" data-name="Path 5531" d="M24.2,45H22.733a.733.733,0,0,0-.733.733v1.1a.733.733,0,0,0,.733.733H24.2a.733.733,0,0,0,.733-.733v-1.1A.733.733,0,0,0,24.2,45Zm-1.467,1.833v-1.1H24.2v1.1Z" transform="translate(-14.667 -29.233)" fill="#fff"/>
  <path id="Path_5532" data-name="Path 5532" d="M34.733,29.567H36.2a.733.733,0,0,0,.733-.733v-1.1A.733.733,0,0,0,36.2,27H34.733a.733.733,0,0,0-.733.733v1.1A.733.733,0,0,0,34.733,29.567Zm0-1.833H36.2v1.1H34.733Z" transform="translate(-22.267 -17.833)" fill="#fff"/>
  <path id="Path_5533" data-name="Path 5533" d="M34,37.833a.733.733,0,0,0,.733.733.367.367,0,1,0,0-.733v-1.1H36.2a.367.367,0,0,0,0-.733H34.733a.733.733,0,0,0-.733.733Z" transform="translate(-22.267 -23.533)" fill="#fff"/>
  <path id="Path_5534" data-name="Path 5534" d="M12.2,45H10.733a.733.733,0,0,0-.733.733v1.1a.733.733,0,0,0,.733.733H12.2a.733.733,0,0,0,.733-.733v-1.1A.733.733,0,0,0,12.2,45Zm-1.467,1.833v-1.1H12.2v1.1Z" transform="translate(-7.067 -29.233)" fill="#fff"/>
  <path id="Path_5535" data-name="Path 5535" d="M40.767,36a4.767,4.767,0,1,0,4.767,4.767A4.767,4.767,0,0,0,40.767,36Zm0,8.8A4.033,4.033,0,1,1,44.8,40.767,4.033,4.033,0,0,1,40.767,44.8Z" transform="translate(-23.533 -23.533)" fill="#fff"/>
  <path id="Path_5536" data-name="Path 5536" d="M46.532,44.622,43.68,47.474l-1.3-1.3a.367.367,0,1,0-.519.519l1.555,1.556a.367.367,0,0,0,.518,0l3.111-3.111a.367.367,0,1,0-.519-.519Z" transform="translate(-27.18 -28.926)" fill="#fff"/>
</svg>
