<svg xmlns="http://www.w3.org/2000/svg" width="25.492" height="25.492" viewBox="0 0 25.492 25.492">
  <g id="certificate" transform="translate(0)">
    <path id="Path_8691" data-name="Path 8691" d="M21.758,18.77V3.7A3.7,3.7,0,0,0,18.06,0H2.589A2.617,2.617,0,0,0,0,2.614V6.721H3.734V8.377a4.479,4.479,0,0,0-2.24,7.755v6.274l2.24-1.494v.882a3.7,3.7,0,0,0,3.7,3.7H22.9a2.617,2.617,0,0,0,2.589-2.613V18.77ZM1.494,2.614a1.12,1.12,0,1,1,2.24,0V5.228H1.494ZM4.481,9.808A2.987,2.987,0,1,1,1.494,12.8,2.991,2.991,0,0,1,4.481,9.808ZM2.987,17.02a4.479,4.479,0,0,0,2.987,0v2.6l-1.494-1-1.494,1Zm2.24,4.774v-.882l2.24,1.494V16.132a4.479,4.479,0,0,0-2.24-7.755V2.614a2.6,2.6,0,0,0-.253-1.12H18.06a2.206,2.206,0,0,1,2.2,2.2V22.878A2.6,2.6,0,0,0,20.517,24H7.431a2.206,2.206,0,0,1-2.2-2.2ZM24,22.878a1.12,1.12,0,1,1-2.24,0V20.264H24Z" transform="translate(0 0)"/>
    <path id="Path_8692" data-name="Path 8692" d="M225,90h6.721v1.494H225Z" transform="translate(-213.798 -85.519)"/>
    <path id="Path_8693" data-name="Path 8693" d="M225,167h6.721v1.494H225Z" transform="translate(-213.798 -158.685)"/>
    <path id="Path_8694" data-name="Path 8694" d="M225,242h6.721v1.494H225Z" transform="translate(-213.798 -229.951)"/>
    <path id="Path_8695" data-name="Path 8695" d="M225,317h6.721v1.494H225Z" transform="translate(-213.798 -301.217)"/>
    <path id="Path_8696" data-name="Path 8696" d="M225,392h6.721v1.494H225Z" transform="translate(-213.798 -372.483)"/>
  </g>
</svg>
