<svg xmlns="http://www.w3.org/2000/svg" width="12.152" height="14.333" viewBox="0 0 12.152 14.333">
  <g id="clipboard" transform="translate(0 0)">
    <g id="Group_125" data-name="Group 125" transform="translate(0 0)">
      <g id="Group_124" data-name="Group 124" transform="translate(0)">
        <path id="Path_70" data-name="Path 70" d="M49.706.935H48.224A1.4,1.4,0,0,0,46.9,0H43.163a1.4,1.4,0,0,0-1.322.935H40.359a1.4,1.4,0,0,0-1.4,1.4V12.931a1.4,1.4,0,0,0,1.4,1.4h9.347a1.4,1.4,0,0,0,1.4-1.4V2.337A1.4,1.4,0,0,0,49.706.935ZM42.7,1.4a.468.468,0,0,1,.467-.467H46.9a.468.468,0,0,1,.467.467v.467H42.7Zm7.478,11.528a.468.468,0,0,1-.467.467H40.359a.468.468,0,0,1-.467-.467V2.337a.468.468,0,0,1,.467-.467h1.4v.467a.467.467,0,0,0,.467.467h5.608a.467.467,0,0,0,.467-.467V1.869h1.4a.468.468,0,0,1,.467.467V12.931Z" transform="translate(-38.957)" fill="#fff"/>
      </g>
    </g>
    <g id="Group_127" data-name="Group 127" transform="translate(1.869 4.674)">
      <g id="Group_126" data-name="Group 126" transform="translate(0)">
        <circle id="Ellipse_13" data-name="Ellipse 13" cx="0.467" cy="0.467" r="0.467" fill="#fff"/>
      </g>
    </g>
    <g id="Group_129" data-name="Group 129" transform="translate(3.739 4.674)">
      <g id="Group_128" data-name="Group 128" transform="translate(0)">
        <path id="Path_71" data-name="Path 71" d="M178.6,166.957h-5.608a.467.467,0,0,0,0,.935H178.6a.467.467,0,0,0,0-.935Z" transform="translate(-172.521 -166.957)" fill="#fff"/>
      </g>
    </g>
    <g id="Group_131" data-name="Group 131" transform="translate(1.869 7.478)">
      <g id="Group_130" data-name="Group 130" transform="translate(0)">
        <circle id="Ellipse_14" data-name="Ellipse 14" cx="0.467" cy="0.467" r="0.467" fill="#fff"/>
      </g>
    </g>
    <g id="Group_133" data-name="Group 133" transform="translate(3.739 7.478)">
      <g id="Group_132" data-name="Group 132" transform="translate(0)">
        <path id="Path_72" data-name="Path 72" d="M178.6,267.13h-5.608a.467.467,0,1,0,0,.935H178.6a.467.467,0,1,0,0-.935Z" transform="translate(-172.521 -267.13)" fill="#fff"/>
      </g>
    </g>
    <g id="Group_135" data-name="Group 135" transform="translate(1.869 10.282)">
      <g id="Group_134" data-name="Group 134" transform="translate(0)">
        <circle id="Ellipse_15" data-name="Ellipse 15" cx="0.467" cy="0.467" r="0.467" fill="#fff"/>
      </g>
    </g>
    <g id="Group_137" data-name="Group 137" transform="translate(3.739 10.282)">
      <g id="Group_136" data-name="Group 136" transform="translate(0)">
        <path id="Path_73" data-name="Path 73" d="M178.6,367.3h-5.608a.467.467,0,0,0,0,.935H178.6a.467.467,0,0,0,0-.935Z" transform="translate(-172.521 -367.304)" fill="#fff"/>
      </g>
    </g>
  </g>
</svg>
