<svg xmlns="http://www.w3.org/2000/svg" width="25.599" height="27.428" viewBox="0 0 25.599 27.428">
  <g id="Outline" transform="translate(-15.999 -15.999)">
    <path id="Path_8661" data-name="Path 8661" d="M214.057,208v.914H213.6a1.6,1.6,0,0,0,0,3.2h1.829a.686.686,0,1,1,0,1.371h-2.971v.914h1.6v.914h.914V214.4h.457a1.6,1.6,0,1,0,0-3.2H213.6a.686.686,0,1,1,0-1.371h2.971v-.914h-1.6V208Z" transform="translate(-184.801 -181.029)"/>
    <path id="Path_8662" data-name="Path 8662" d="M63.759,111.543H59.645l-.457-.61v-5.7a6.142,6.142,0,0,0-4.459-5.907l.784-2.743a.457.457,0,0,0-.44-.583H52.33v.914h2.137L53.814,99.2H52.33v.914h1.782a5.23,5.23,0,0,1,4.16,5.119v5.852a.456.456,0,0,0,.047.2,6.694,6.694,0,0,0-6.268.257H48.673a1.831,1.831,0,0,0-1.766,2.307l-1.82-.834a.914.914,0,0,1,.111-.194l1.1-1.463a.457.457,0,0,0,.091-.274v-5.028h-.914v4.876l-1.006,1.341a1.829,1.829,0,0,0-.211.362l-1.506-.69a1.95,1.95,0,0,0-2.529.848,2.118,2.118,0,0,0-.234,1.026,1.941,1.941,0,0,0,1.078,1.745l5.33,2.665a5.975,5.975,0,0,0,2.657.627h14.7a.457.457,0,0,0,.457-.457V112A.457.457,0,0,0,63.759,111.543Zm-5.486,6.4H49.054a5.057,5.057,0,0,1-2.249-.531l-5.33-2.665a1.032,1.032,0,0,1-.573-.928,1.261,1.261,0,0,1,.125-.592,1.033,1.033,0,0,1,1.344-.45l5.2,2.381a.457.457,0,0,0,.19.042h5.028v-.914H48.673a.914.914,0,1,1,0-1.829h3.5a.457.457,0,0,0,.235-.065l.043-.026a5.781,5.781,0,0,1,5.558-.213l.259.13Zm5.028,0H59.187v-5.486H63.3Z" transform="translate(-22.617 -75.429)"/>
    <ellipse id="Ellipse_22" data-name="Ellipse 22" cx="0.5" cy="1" rx="0.5" ry="1" transform="translate(37.799 39.713)"/>
    <path id="Path_8663" data-name="Path 8663" d="M19.21,28.5a.457.457,0,0,0,.585.338l1.6-.508,1.128,1.238a.457.457,0,0,0,.676,0l1.128-1.238,1.6.508A.457.457,0,0,0,26.5,28.5l.358-1.636L28.5,26.5a.457.457,0,0,0,.338-.585l-.508-1.6,1.238-1.128a.457.457,0,0,0,0-.676l-1.238-1.128.508-1.6a.457.457,0,0,0-.338-.585l-1.636-.358L26.5,17.217a.457.457,0,0,0-.585-.338l-1.6.508-1.128-1.238a.457.457,0,0,0-.676,0l-1.128,1.238-1.6-.508a.457.457,0,0,0-.585.338l-.358,1.636-1.636.358a.457.457,0,0,0-.338.585l.508,1.6-1.238,1.128a.457.457,0,0,0,0,.676l1.238,1.128-.508,1.6a.457.457,0,0,0,.338.585l1.636.358Zm-.991-4.653-1.084-.987,1.084-.987a.457.457,0,0,0,.128-.477L17.9,20l1.432-.313a.457.457,0,0,0,.349-.349L20,17.9l1.4.445a.457.457,0,0,0,.477-.128l.987-1.084.987,1.084a.457.457,0,0,0,.477.128l1.4-.445.313,1.432a.457.457,0,0,0,.349.349L27.811,20l-.445,1.4a.457.457,0,0,0,.128.477l1.084.987-1.084.987a.457.457,0,0,0-.128.477l.445,1.4-1.432.313a.457.457,0,0,0-.349.349l-.313,1.432-1.4-.445a.457.457,0,0,0-.477.128l-.987,1.084-.987-1.084a.457.457,0,0,0-.477-.128l-1.4.445-.313-1.432a.457.457,0,0,0-.349-.349L17.9,25.717l.445-1.4A.457.457,0,0,0,18.219,23.844Z"/>
    <rect id="Rectangle_191" data-name="Rectangle 191" width="6.465" height="0.914" transform="translate(20.248 24.819) rotate(-45)"/>
    <path id="Path_8664" data-name="Path 8664" d="M81.371,82.743A1.371,1.371,0,1,0,80,81.371,1.371,1.371,0,0,0,81.371,82.743Zm0-1.829a.457.457,0,1,1-.457.457A.457.457,0,0,1,81.371,80.914Z" transform="translate(-60.343 -60.343)"/>
    <path id="Path_8665" data-name="Path 8665" d="M152,137.371A1.371,1.371,0,1,0,153.371,136,1.371,1.371,0,0,0,152,137.371Zm1.829,0a.457.457,0,1,1-.457-.457A.457.457,0,0,1,153.829,137.371Z" transform="translate(-128.229 -113.144)"/>
  </g>
</svg>
