<svg xmlns="http://www.w3.org/2000/svg" width="25.624" height="17.617" viewBox="0 0 25.624 17.617">
  <g id="credit-card" transform="translate(0 -80)">
    <path id="Path_161" data-name="Path 161" d="M22.822,80H2.8A2.806,2.806,0,0,0,0,82.8V94.814a2.806,2.806,0,0,0,2.8,2.8H22.822a2.806,2.806,0,0,0,2.8-2.8V82.8A2.806,2.806,0,0,0,22.822,80ZM2.8,81.6H22.822a1.2,1.2,0,0,1,1.2,1.2v1.6H1.6V82.8A1.2,1.2,0,0,1,2.8,81.6ZM22.822,96.015H2.8a1.2,1.2,0,0,1-1.2-1.2V86.006H24.023v8.808A1.2,1.2,0,0,1,22.822,96.015Z" fill="#fff"/>
    <path id="Path_162" data-name="Path 162" d="M81.6,306.4h-.8a.8.8,0,0,1-.8-.8v-.8a.8.8,0,0,1,.8-.8h.8a.8.8,0,0,1,.8.8v.8A.8.8,0,0,1,81.6,306.4Z" transform="translate(-75.996 -212.789)" fill="#fff"/>
  </g>
</svg>
