<svg xmlns="http://www.w3.org/2000/svg" width="27.053" height="27" viewBox="0 0 27.053 27">
  <path id="review" d="M4.379,16.912a1.056,1.056,0,0,0,1.466-.291A9.191,9.191,0,0,1,21.1,16.6a1.057,1.057,0,0,0,1.754-1.18A11.278,11.278,0,0,0,17.3,11.1a5.97,5.97,0,1,0-7.572-.024,11.276,11.276,0,0,0-5.638,4.374A1.057,1.057,0,0,0,4.379,16.912Zm9.147-14.3A3.857,3.857,0,1,1,9.669,6.471,3.862,3.862,0,0,1,13.526,2.614Zm4.214,16.6-1.575,1.136a.661.661,0,0,0-.243.742l.634,1.839a.667.667,0,0,1,.034.238.7.7,0,0,1-1.1.5L13.92,22.535a.673.673,0,0,0-.786,0l-1.575,1.137a.7.7,0,0,1-1.1-.5.677.677,0,0,1,.034-.238l.634-1.839a.661.661,0,0,0-.243-.742L9.312,19.211a.713.713,0,0,1,.393-1.275h1.947a.609.609,0,0,0,.636-.385l.6-1.851a.67.67,0,0,1,1.272,0l.6,1.851a.609.609,0,0,0,.636.385h1.947A.713.713,0,0,1,17.741,19.211Zm9.035,3.7L25.2,24.046a.661.661,0,0,0-.243.742l.634,1.839a.667.667,0,0,1,.034.238.7.7,0,0,1-1.1.5l-1.575-1.137a.673.673,0,0,0-.786,0L20.593,27.37a.7.7,0,0,1-1.1-.5.677.677,0,0,1,.034-.238l.634-1.839a.661.661,0,0,0-.243-.742L18.347,22.91a.713.713,0,0,1,.393-1.275h1.947a.609.609,0,0,0,.636-.385l.6-1.851a.67.67,0,0,1,1.272,0l.6,1.851a.609.609,0,0,0,.636.385h1.947A.713.713,0,0,1,26.776,22.91Zm-18.07,0L7.13,24.046a.661.661,0,0,0-.243.742l.634,1.839a.667.667,0,0,1,.034.238.7.7,0,0,1-1.1.5L4.884,26.233a.673.673,0,0,0-.786,0L2.523,27.37a.7.7,0,0,1-1.1-.5.677.677,0,0,1,.034-.238L2.1,24.789a.661.661,0,0,0-.243-.742L.277,22.91A.713.713,0,0,1,.67,21.635H2.617a.609.609,0,0,0,.636-.385l.6-1.851a.67.67,0,0,1,1.272,0l.6,1.851a.609.609,0,0,0,.636.385H8.312A.713.713,0,0,1,8.705,22.91Z" transform="translate(0 -0.5)"/>
</svg>
