<svg xmlns="http://www.w3.org/2000/svg" xmlns:xlink="http://www.w3.org/1999/xlink" width="22" height="22" viewBox="0 0 22 22">
  <defs>
    <clipPath id="clip-path">
      <rect id="Rectangle_2" data-name="Rectangle 2" width="22" height="22" transform="translate(0 0)" fill="#fff"/>
    </clipPath>
  </defs>
  <g id="Mask_Group_2" data-name="Mask Group 2" transform="translate(0)" clip-path="url(#clip-path)">
    <g id="stars" transform="translate(0.529 0.718)">
      <g id="Group_258" data-name="Group 258" transform="translate(0)">
        <path id="Path_5519" data-name="Path 5519" d="M4.815,173.75a.409.409,0,0,0,.586-.426l-.255-1.735,1.224-1.254a.409.409,0,0,0-.224-.689l-1.727-.293L3.608,167.8a.409.409,0,0,0-.725,0l-.813,1.553-1.726.293a.409.409,0,0,0-.224.689l1.224,1.254-.255,1.735a.409.409,0,0,0,.586.426l1.569-.778Zm-1.752-1.6-1.051.521.171-1.163a.409.409,0,0,0-.112-.345l-.82-.84,1.156-.2a.409.409,0,0,0,.294-.214l.544-1.04.544,1.04a.409.409,0,0,0,.294.214l1.157.2-.82.84a.409.409,0,0,0-.112.345l.171,1.163-1.052-.521a.409.409,0,0,0-.363,0Z" transform="translate(-0.004 -165.027)" fill="#fff"/>
        <path id="Path_5520" data-name="Path 5520" d="M384.832,16.718l-.351,2.392a.409.409,0,0,0,.586.426l2.164-1.073,2.164,1.073a.409.409,0,0,0,.586-.426l-.351-2.392,1.688-1.728a.409.409,0,0,0-.224-.689l-2.38-.4-1.121-2.141a.409.409,0,0,0-.725,0l-1.12,2.141-2.381.4a.409.409,0,0,0-.224.689Zm1.254-2.049a.409.409,0,0,0,.294-.214l.852-1.628.853,1.628a.409.409,0,0,0,.294.214l1.81.308L388.9,16.291a.409.409,0,0,0-.112.345l.267,1.82-1.646-.816a.409.409,0,0,0-.363,0l-1.646.816.267-1.82a.409.409,0,0,0-.112-.345l-1.284-1.315Z" transform="translate(-376.761 -11.535)" fill="#fff"/>
        <path id="Path_5521" data-name="Path 5521" d="M890.15,169.92a.409.409,0,0,0-.32-.277l-1.727-.293-.813-1.553a.409.409,0,0,0-.725,0l-.813,1.553-1.726.293a.409.409,0,0,0-.224.689l1.224,1.254-.255,1.735a.409.409,0,0,0,.586.426l1.569-.778,1.569.778a.409.409,0,0,0,.586-.426l-.255-1.735,1.225-1.253A.409.409,0,0,0,890.15,169.92Zm-2.048,1.239a.409.409,0,0,0-.112.345l.171,1.163-1.051-.521a.409.409,0,0,0-.363,0l-1.051.521.171-1.163a.409.409,0,0,0-.112-.345l-.82-.84,1.156-.2a.409.409,0,0,0,.294-.214l.544-1.04.544,1.04a.409.409,0,0,0,.294.214l1.157.2Z" transform="translate(-869.228 -165.025)" fill="#fff"/>
        <path id="Path_5522" data-name="Path 5522" d="M139.03,638.915a.409.409,0,0,0-.364-.223H125.318a.409.409,0,0,0-.364.223l-1.323,2.6a.409.409,0,0,0,.364.595h.421v6.479a.409.409,0,0,0,.409.409h14.331a.409.409,0,0,0,.409-.409v-6.479h.422a.409.409,0,0,0,.364-.595Zm-14.367,2.374.906-1.779h5.755l-.906,1.779Zm14.085,6.888H132.4V646.5a.409.409,0,0,0-.818,0v1.673h-6.348v-6.07h5.434a.409.409,0,0,0,.364-.223l.549-1.079v2.023a.409.409,0,0,0,.818,0V640.8l.549,1.079a.409.409,0,0,0,.364.223h5.433Zm-5.183-6.888-.906-1.779h5.755l.906,1.779Z" transform="translate(-121.565 -628.431)" fill="#fff"/>
        <path id="Path_5523" data-name="Path 5523" d="M293.2,1094.84h-2.1a.409.409,0,1,0,0,.818h2.1a.409.409,0,1,0,0-.818Z" transform="translate(-285.932 -1077.117)" fill="#fff"/>
        <path id="Path_5524" data-name="Path 5524" d="M612.753,978.87a.409.409,0,0,0-.409.409v0a.409.409,0,1,0,.409-.411Z" transform="translate(-602.326 -963.044)" fill="#fff"/>
      </g>
    </g>
  </g>
</svg>
