<svg id="Group_190" data-name="Group 190" xmlns="http://www.w3.org/2000/svg" width="21.594" height="21.594" viewBox="0 0 21.594 21.594">
  <g id="seo-and-web" transform="translate(0 0)">
    <path id="Path_3257" data-name="Path 3257" d="M75.21,6.02a6.78,6.78,0,0,1,9.341-.294.453.453,0,0,0,.611-.02l2.2-2.2a.447.447,0,0,0-.012-.644A10.781,10.781,0,0,0,72.38,3.19a12.25,12.25,0,0,0,.036,2.822S74.005,7.235,75.21,6.02Z" transform="translate(-69.233 0)" fill="#fff"/>
    <path id="Path_3258" data-name="Path 3258" d="M100.364,47.044a6.781,6.781,0,0,1,9.341-.294.453.453,0,0,0,.611-.02l1.263-1.263c-.11-.085-.218-.174-.324-.268a9.134,9.134,0,0,0-6.167-2.361A8.95,8.95,0,0,0,98.8,45.483a5.649,5.649,0,0,0-.244,1.556S98.765,47.02,100.364,47.044Z" transform="translate(-94.386 -41.024)" fill="#fff"/>
    <path id="Path_3259" data-name="Path 3259" d="M4,82.886a6.774,6.774,0,0,0,2.01,4.887l-.963,2.079L3.183,90.6A10.781,10.781,0,0,1,3.147,75.34l2.83,2.83A6.769,6.769,0,0,0,4,82.886Z" transform="translate(0 -72.15)" fill="#fff"/>
    <path id="Path_3260" data-name="Path 3260" d="M45.032,111.606a6.774,6.774,0,0,0,2.01,4.887l-1.548,1.548a9,9,0,0,1-.049-12.71l1.56,1.56A6.769,6.769,0,0,0,45.032,111.606Z" transform="translate(-41.028 -100.87)" fill="#fff"/>
    <path id="Path_3261" data-name="Path 3261" d="M87.6,368.955a6.807,6.807,0,0,1-9.571-.006L75.2,371.78a10.728,10.728,0,0,0,15.2-.028l-.809-1.73Z" transform="translate(-72.012 -353.327)" fill="#fff"/>
    <path id="Path_3262" data-name="Path 3262" d="M116.609,368.955a6.806,6.806,0,0,1-9.571-.006L105.49,370.5a8.981,8.981,0,0,0,12.661,0Z" transform="translate(-101.023 -353.327)" fill="#fff"/>
    <path id="Path_3263" data-name="Path 3263" d="M266.164,220.094a.385.385,0,0,0-.385-.385h-10.05a.345.345,0,0,0-.345.345v3.323a.345.345,0,0,0,.345.345h4.908a.651.651,0,0,1,.559.985,6.767,6.767,0,0,1-1.037,1.322l0,0,2.8,2.8q.2-.2.4-.4a10.9,10.9,0,0,0,2.81-7.315Z" transform="translate(-244.57 -210.406)" fill="#fff"/>
    <path id="Path_3264" data-name="Path 3264" d="M263.9,266.925a1.843,1.843,0,0,0-1.747-2.425h-6.766v1.772a.345.345,0,0,0,.345.345h4.908a.651.651,0,0,1,.559.985,6.769,6.769,0,0,1-1.033,1.318l-.008.008,1.542,1.542a8.988,8.988,0,0,0,1.941-2.863Q263.781,267.273,263.9,266.925Z" transform="translate(-244.571 -253.301)" fill="#fff"/>
  </g>
</svg>
