<svg xmlns="http://www.w3.org/2000/svg" width="25.566" height="25.5" viewBox="0 0 25.566 25.5">
  <path id="home-run" d="M24.825,10.874h0L14.625.674a2.3,2.3,0,0,0-3.255,0L1.179,10.865l-.01.01A2.3,2.3,0,0,0,2.7,14.8c.024,0,.047,0,.071,0h.406v7.507A2.7,2.7,0,0,0,5.872,25H9.86a.733.733,0,0,0,.732-.732V18.384a1.23,1.23,0,0,1,1.229-1.227h2.353A1.23,1.23,0,0,1,15.4,18.384v5.884a.733.733,0,0,0,.732.732h3.993a2.7,2.7,0,0,0,2.694-2.693V14.8H23.2a2.3,2.3,0,0,0,1.629-3.928Zm-1.038,2.217a.831.831,0,0,1-.592.245H22.087a.732.732,0,0,0-.735.733v8.237a1.23,1.23,0,0,1-1.227,1.227H16.87V18.384a2.7,2.7,0,0,0-2.694-2.694H11.822a2.7,2.7,0,0,0-2.694,2.694v5.151H5.873a1.23,1.23,0,0,1-1.227-1.227V14.069a.732.732,0,0,0-.732-.732H2.784a.836.836,0,0,1-.577-1.429h0l10.2-10.2a.836.836,0,0,1,1.183,0L23.784,11.9l0,0a.838.838,0,0,1,0,1.182Zm0,0" transform="translate(-0.218 0.25)" fill="#fff" stroke="#f8f8f8" stroke-width="0.5"/>
</svg>
