<svg xmlns="http://www.w3.org/2000/svg" width="23.262" height="24.338" viewBox="0 0 23.262 24.338">
  <g id="invite" transform="translate(-9.668 0)">
    <g id="Group_272" data-name="Group 272" transform="translate(9.668 0)">
      <g id="Group_271" data-name="Group 271">
        <path id="Path_8688" data-name="Path 8688" d="M32.745,8.673l-2.992-2.5V2.634a.56.56,0,0,0-.578-.539H24.821L23.075.638a2.778,2.778,0,0,0-3.548.006L17.781,2.095h-4.41a.56.56,0,0,0-.578.539v3.6L9.857,8.673a.55.55,0,0,0-.189.428h.011V21.552a2.776,2.776,0,0,0,2.764,2.786H30.154a2.776,2.776,0,0,0,2.764-2.786V9.1h.011A.5.5,0,0,0,32.745,8.673ZM29.754,7.622l1.752,1.457-1.752,1.3ZM20.239,1.494a1.67,1.67,0,0,1,2.13.006l.706.6H19.522ZM13.905,3.207H28.641v8l-6.334,4.716a1.694,1.694,0,0,1-2.007,0l-6.395-4.76ZM12.793,7.672v2.664L11.1,9.074ZM31.811,21.547a1.665,1.665,0,0,1-1.652,1.679H12.443a1.664,1.664,0,0,1-1.652-1.674V10.208l8.853,6.612a2.786,2.786,0,0,0,3.314,0l8.853-6.612Z" transform="translate(-9.668 0)"/>
      </g>
    </g>
    <g id="Group_274" data-name="Group 274" transform="translate(17.297 7.656)">
      <g id="Group_273" data-name="Group 273">
        <path id="Path_8689" data-name="Path 8689" d="M150.432,137.663h-3a.556.556,0,0,0,0,1.112h3a.556.556,0,1,0,0-1.112Z" transform="translate(-146.873 -137.663)"/>
      </g>
    </g>
    <g id="Group_276" data-name="Group 276" transform="translate(17.297 10.436)">
      <g id="Group_275" data-name="Group 275">
        <path id="Path_8690" data-name="Path 8690" d="M154.324,187.663h-6.9a.556.556,0,1,0,0,1.112h6.9a.556.556,0,1,0,0-1.112Z" transform="translate(-146.873 -187.663)"/>
      </g>
    </g>
  </g>
</svg>
