<svg xmlns="http://www.w3.org/2000/svg" width="26.392" height="26.399" viewBox="0 0 26.392 26.399">
  <path id="Icon_ionic-ios-settings" data-name="Icon ionic-ios-settings" d="M28.713,17.7a3.4,3.4,0,0,1,2.179-3.168A13.462,13.462,0,0,0,29.263,10.6a3.442,3.442,0,0,1-1.381.3,3.389,3.389,0,0,1-3.1-4.77A13.421,13.421,0,0,0,20.865,4.5a3.393,3.393,0,0,1-6.337,0A13.462,13.462,0,0,0,10.6,6.129,3.389,3.389,0,0,1,7.5,10.9a3.33,3.33,0,0,1-1.381-.3A13.759,13.759,0,0,0,4.5,14.535a3.4,3.4,0,0,1,.007,6.337A13.462,13.462,0,0,0,6.136,24.8,3.39,3.39,0,0,1,10.61,29.27,13.54,13.54,0,0,0,14.535,30.9a3.387,3.387,0,0,1,6.323,0,13.462,13.462,0,0,0,3.924-1.629A3.393,3.393,0,0,1,29.256,24.8a13.54,13.54,0,0,0,1.629-3.924A3.412,3.412,0,0,1,28.713,17.7ZM17.758,23.188a5.5,5.5,0,1,1,5.5-5.5A5.5,5.5,0,0,1,17.758,23.188Z" transform="translate(-4.5 -4.5)"/>
</svg>
