<svg id="ladder" xmlns="http://www.w3.org/2000/svg" width="22.667" height="22.667" viewBox="0 0 22.667 22.667">
  <g id="Group_256" data-name="Group 256">
    <g id="Group_255" data-name="Group 255">
      <path id="Path_5517" data-name="Path 5517" d="M180.313,232v1.771h-3.542V232H175v12.4h1.771v-1.771h3.542V244.4h1.771V232Zm-3.542,3.542h3.542v1.771h-3.542Zm3.542,5.313h-3.542v-1.771h3.542Z" transform="translate(-167.253 -221.729)"/>
      <path id="Path_5518" data-name="Path 5518" d="M18.458,6.98A7.173,7.173,0,0,0,4.26,5.744,5.4,5.4,0,0,0,5.4,16.425h.576V14.654H5.4a3.63,3.63,0,0,1-.291-7.248l.735-.059.075-.733a5.4,5.4,0,0,1,10.774.559V8.721h1.24a2.966,2.966,0,0,1,0,5.932H16.646v1.771H17.93a4.737,4.737,0,0,0,.529-9.445Z"/>
    </g>
  </g>
</svg>
