<svg xmlns="http://www.w3.org/2000/svg" width="21.333" height="21.333" viewBox="0 0 21.333 21.333">
  <path id="law" d="M22.281,16.3,19.1,11.207a1.377,1.377,0,0,0,.828-1.261,1.362,1.362,0,0,0-.191-.688h1.025a1.575,1.575,0,0,0,.585-3.038L20.4,5.842a.344.344,0,0,0-.436.473.607.607,0,0,1-.543.878H12.7V6.505h.344a.344.344,0,0,0,.344-.344V4.785a.344.344,0,0,0-.344-.344h-.419l-.226-.9a1.376,1.376,0,1,0-1.462,0l-.226.9H10.29a.344.344,0,0,0-.344.344V6.161a.344.344,0,0,0,.344.344h.344v.688H3.915a.607.607,0,0,1-.543-.878.344.344,0,0,0-.436-.473l-.946.379a1.575,1.575,0,0,0,.585,3.038H3.6a1.359,1.359,0,0,0-.192.688,1.377,1.377,0,0,0,.828,1.261L1.052,16.3l.005,0A.332.332,0,0,0,1,16.484c0,1.351,1.663,2.409,3.785,2.409S8.57,17.834,8.57,16.484a.334.334,0,0,0-.057-.179l.005,0L5.333,11.207a1.376,1.376,0,0,0,.828-1.26,1.362,1.362,0,0,0-.191-.688h4.664V17.3a1.351,1.351,0,0,0,0,1.8,1.029,1.029,0,0,1-.862,1.016L7.26,20.54a.9.9,0,0,0,.149,1.794h8.517a.9.9,0,0,0,.149-1.794l-2.512-.419A1.029,1.029,0,0,1,12.7,19.1a1.351,1.351,0,0,0,0-1.8V9.258h4.664a1.362,1.362,0,0,0-.191.688A1.377,1.377,0,0,0,18,11.207L14.816,16.3l.005,0a.332.332,0,0,0-.057.179c0,1.351,1.663,2.409,3.785,2.409s3.785-1.058,3.785-2.409a.334.334,0,0,0-.057-.179ZM11.667,1.688a.688.688,0,1,1-.688.688A.689.689,0,0,1,11.667,1.688Zm-.074,2.057c.025,0,.049.008.074.008s.049-.006.074-.008l.174.7h-.495Zm-.959,1.384H12.7v.688H10.634Zm.688,1.376h.688v.688h-.688ZM1.688,7.683a.882.882,0,0,1,.558-.823l.379-.151a1.3,1.3,0,0,0,1.29,1.174h15.5a1.3,1.3,0,0,0,1.291-1.174l.379.151a.887.887,0,0,1-.33,1.71H2.575a.888.888,0,0,1-.887-.887Zm3.1,3.945L7.6,16.14H1.965Zm0,6.576c-1.467,0-2.735-.6-3.032-1.376H7.816C7.52,17.6,6.252,18.2,4.785,18.2Zm.688-8.258a.688.688,0,1,1-.688-.688A.689.689,0,0,1,5.473,9.946ZM12.355,18.2a.688.688,0,1,1-.688-.688A.689.689,0,0,1,12.355,18.2Zm1.094,2.6,2.512.419a.215.215,0,0,1-.035.427H7.408a.215.215,0,0,1-.035-.427L9.885,20.8a1.71,1.71,0,0,0,1.382-1.285,1.242,1.242,0,0,0,.8,0A1.71,1.71,0,0,0,13.448,20.8Zm-1.438-3.923a1.236,1.236,0,0,0-.688,0V9.258h.688Zm6.538-7.619a.688.688,0,1,1-.688.688A.689.689,0,0,1,18.548,9.258Zm2.82,6.882h-5.64l2.82-4.512ZM18.548,18.2c-1.467,0-2.735-.6-3.032-1.376H21.58c-.3.775-1.564,1.376-3.031,1.376Z" transform="translate(-1 -1)" fill="#fff"/>
</svg>
