<svg xmlns="http://www.w3.org/2000/svg" width="27.426" height="27.386" viewBox="0 0 27.426 27.386">
  <path id="Icon_metro-bell" data-name="Icon metro-bell" d="M30,23.323c0-7.7-6.847-5.991-6.847-11.981a5.48,5.48,0,0,0-.135-1.282A7.422,7.422,0,0,0,17.94,3.873a1.523,1.523,0,0,0,.035-.327,1.714,1.714,0,0,0-3.423,0,1.525,1.525,0,0,0,.035.327,7.572,7.572,0,0,0-5.168,7.313c0,.051,0,.1,0,.156,0,5.991-6.847,4.279-6.847,11.982,0,2.039,4.562,3.744,10.67,4.174a3.424,3.424,0,0,0,6.046,0c6.108-.43,10.67-2.136,10.67-4.174,0-.006,0-.012,0-.018l.041.018ZM24.668,24.77a29.245,29.245,0,0,1-4.995.82,3.423,3.423,0,0,0-6.819,0,29.247,29.247,0,0,1-4.995-.82,8.385,8.385,0,0,1-3.3-1.447,8.385,8.385,0,0,1,3.3-1.447,33.9,33.9,0,0,1,8.4-.96,33.9,33.9,0,0,1,8.4.96,8.385,8.385,0,0,1,3.3,1.447,8.385,8.385,0,0,1-3.3,1.447Z" transform="translate(-2.571 -1.928)"/>
</svg>
