<svg id="newspaper" xmlns="http://www.w3.org/2000/svg" width="25.492" height="25.492" viewBox="0 0 25.492 25.492">
  <path id="Path_8697" data-name="Path 8697" d="M23.145,3.2H19.092V.747A.747.747,0,0,0,18.345,0H.747A.747.747,0,0,0,0,.747v20.8a3.951,3.951,0,0,0,3.947,3.947h17.6a3.947,3.947,0,0,0,3.947-3.947v-16A2.349,2.349,0,0,0,23.145,3.2ZM20.958,4.693a2.345,2.345,0,0,0-.159.853V8H19.092V4.693h1.865ZM3.947,24a2.456,2.456,0,0,1-2.453-2.453V1.494H17.6V21.545A3.928,3.928,0,0,0,18.455,24ZM24,21.545a2.453,2.453,0,0,1-4.79.747h2.337a.747.747,0,1,0,0-1.494H19.092V19.092h2.453a.747.747,0,1,0,0-1.494H19.092V15.892h2.453a.747.747,0,1,0,0-1.494H19.092V12.693h2.453a.747.747,0,1,0,0-1.494H19.092V9.493h2.453a.747.747,0,0,0,.747-.747v-3.2a.853.853,0,1,1,1.706,0v16Z"/>
  <path id="Path_8698" data-name="Path 8698" d="M76.213,64.266h-11.2a.747.747,0,0,0,0,1.494h11.2a.747.747,0,0,0,0-1.494Z" transform="translate(-61.067 -61.066)"/>
  <path id="Path_8699" data-name="Path 8699" d="M213.613,289.2h-4a.747.747,0,0,0,0,1.494h4a.747.747,0,0,0,0-1.494Z" transform="translate(-198.468 -274.8)"/>
  <path id="Path_8700" data-name="Path 8700" d="M69.014,289.2h-4a.747.747,0,0,0,0,1.494h4a.747.747,0,0,0,0-1.494Z" transform="translate(-61.067 -274.8)"/>
  <path id="Path_8701" data-name="Path 8701" d="M213.613,417.733h-4a.747.747,0,0,0,0,1.494h4a.747.747,0,0,0,0-1.494Z" transform="translate(-198.468 -396.935)"/>
  <path id="Path_8702" data-name="Path 8702" d="M69.014,417.733h-4a.747.747,0,0,0,0,1.494h4a.747.747,0,0,0,0-1.494Z" transform="translate(-61.067 -396.935)"/>
  <path id="Path_8703" data-name="Path 8703" d="M213.613,353.466h-4a.747.747,0,1,0,0,1.494h4a.747.747,0,1,0,0-1.494Z" transform="translate(-198.468 -335.867)"/>
  <path id="Path_8704" data-name="Path 8704" d="M69.014,353.466h-4a.747.747,0,1,0,0,1.494h4a.747.747,0,1,0,0-1.494Z" transform="translate(-61.067 -335.867)"/>
  <path id="Path_8705" data-name="Path 8705" d="M76.213,128.532h-11.2a.747.747,0,0,0-.747.747v4.8a.747.747,0,0,0,.747.747h11.2a.747.747,0,0,0,.747-.747v-4.8A.747.747,0,0,0,76.213,128.532Zm-.747,4.8H65.761v-3.306h9.705Z" transform="translate(-61.067 -122.133)"/>
</svg>
