<svg xmlns="http://www.w3.org/2000/svg" width="13.25" height="13.25" viewBox="0 0 13.25 13.25">
  <g id="_06-cart" data-name="06-cart" transform="translate(-6 -6)">
    <g id="linear_color" data-name="linear color" transform="translate(6 6)">
      <path id="Path_165" data-name="Path 165" d="M18.561,6H6.689A.69.69,0,0,0,6,6.689v9.328a.69.69,0,0,0,.689.689h4.682l-.18,1.442a6.32,6.32,0,0,0-1.256.616.265.265,0,0,0,.147.485h5.088a.265.265,0,0,0,.147-.485,6.32,6.32,0,0,0-1.256-.616l-.18-1.442h4.682a.69.69,0,0,0,.689-.689V6.689A.69.69,0,0,0,18.561,6ZM6.689,6.53H18.561a.159.159,0,0,1,.159.159v7.367H6.53V6.689A.159.159,0,0,1,6.689,6.53Zm4.664,12.19H11.18a3.989,3.989,0,0,1,1.445-.318,3.99,3.99,0,0,1,1.443.318Zm2.152-.738a3.565,3.565,0,0,0-1.759,0l.159-1.276h1.44Zm5.215-1.965a.159.159,0,0,1-.159.159H6.689a.159.159,0,0,1-.159-.159V14.586H18.72Z" transform="translate(-6 -6)" fill="#fff"/>
      <path id="Path_166" data-name="Path 166" d="M230.265,350.53h.848a.265.265,0,1,0,0-.53h-.848a.265.265,0,1,0,0,.53Z" transform="translate(-224.064 -340.884)" fill="#fff"/>
      <path id="Path_167" data-name="Path 167" d="M94.265,54.53h.657l1.212,3.635a.264.264,0,0,0,.039.075h0a.69.69,0,1,0,.367.106h2.212c0,.052-.008.105-.008.159a1.67,1.67,0,1,0,1.67-1.67c-.053,0-.1,0-.156.008l.407-1.222a.265.265,0,0,0-.251-.349H97.021a.265.265,0,1,0,0,.53h3.024l-.248.743H97.445a.265.265,0,0,0,0,.53h2.109a1.68,1.68,0,0,0-.661.742H96.576l-1.212-3.635A.265.265,0,0,0,95.113,54h-.848a.265.265,0,0,0,0,.53Zm1.908,4.558a.159.159,0,1,1,.159-.159A.159.159,0,0,1,96.173,59.088Zm5.38-.583a1.139,1.139,0,1,1-1.139-1.14A1.14,1.14,0,0,1,101.553,58.505Z" transform="translate(-91.668 -52.728)" fill="#fff"/>
      <path id="Path_168" data-name="Path 168" d="M310.152,198.922l.424.212a.265.265,0,0,0,.339-.09l.424-.636a.265.265,0,1,0-.441-.294l-.294.441-.215-.107a.265.265,0,1,0-.237.474Z" transform="translate(-301.95 -192.908)" fill="#fff"/>
    </g>
  </g>
</svg>
