<svg id="Recruiters-Manual" xmlns="http://www.w3.org/2000/svg" width="25.082" height="25.331" viewBox="0 0 25.082 25.331">
  <g id="Group_262" data-name="Group 262" transform="translate(0 0)">
    <path id="Path_5537" data-name="Path 5537" d="M323.272,194.709h-6.4a.371.371,0,0,0,0,.742h6.4a.371.371,0,1,0,0-.742Z" transform="translate(-300.968 -185.076)"/>
    <path id="Path_5538" data-name="Path 5538" d="M323.272,239.922h-6.4a.371.371,0,0,0,0,.742h6.4a.371.371,0,1,0,0-.742Z" transform="translate(-300.968 -228.052)"/>
    <path id="Path_5539" data-name="Path 5539" d="M323.643,285.506a.371.371,0,0,0-.371-.371h-6.4a.371.371,0,0,0,0,.742h6.4A.371.371,0,0,0,323.643,285.506Z" transform="translate(-300.968 -271.028)"/>
    <path id="Path_5540" data-name="Path 5540" d="M316.874,330.348a.371.371,0,1,0,0,.742h3.2a.371.371,0,1,0,0-.742Z" transform="translate(-300.968 -314.004)"/>
    <path id="Path_5541" data-name="Path 5541" d="M27.057,4.363,23.231.538A1.836,1.836,0,0,0,21.933,0H9.345A1.838,1.838,0,0,0,7.509,1.836v3.8a.371.371,0,0,0,.742,0v-3.8A1.1,1.1,0,0,1,9.345.742H21.933a1.092,1.092,0,0,1,.236.026V4.147a1.281,1.281,0,0,0,1.279,1.279h3.379a1.094,1.094,0,0,1,.026.236V23.5a1.1,1.1,0,0,1-1.094,1.094H20.774a1.673,1.673,0,0,0-.208-2.109l-3.373-3.373a.866.866,0,0,0-.91-.2l-.726-.726a7.2,7.2,0,1,0-1.652,1.651l.727.727a.866.866,0,0,0,.2.91l3.12,3.12H9.345A1.1,1.1,0,0,1,8.251,23.5V22.306a.371.371,0,1,0-.742,0V23.5a1.838,1.838,0,0,0,1.836,1.836H25.759A1.838,1.838,0,0,0,27.594,23.5V5.661a1.839,1.839,0,0,0-.538-1.3ZM5.142,18.548a6.457,6.457,0,1,1,9.633-.564,6.552,6.552,0,0,1-1.066,1.066A6.46,6.46,0,0,1,5.142,18.548Zm9.348.816a7.3,7.3,0,0,0,.6-.6l.611.611-.6.6-.611-.611h0Zm4.24,4.953-3.373-3.373a.124.124,0,0,1,0-.175l0,0h0l1.132-1.132a.124.124,0,0,1,.175,0L20.042,23a.928.928,0,0,1-1.312,1.312ZM22.911,4.147V1.267l3.417,3.417h-2.88A.538.538,0,0,1,22.911,4.147Z" transform="translate(-2.512 0)"/>
    <path id="Path_5542" data-name="Path 5542" d="M158.614,48.663h-7.361a.8.8,0,0,0-.8.8v1.422a.8.8,0,0,0,.8.8h7.361a.8.8,0,0,0,.8-.8V49.461A.8.8,0,0,0,158.614,48.663Zm.056,2.22a.056.056,0,0,1-.056.056h-7.361a.056.056,0,0,1-.056-.056V49.461a.056.056,0,0,1,.056-.056h7.361a.056.056,0,0,1,.056.056v1.422Z" transform="translate(-143.136 -46.255)"/>
    <path id="Path_5543" data-name="Path 5543" d="M43.3,176.842a5.719,5.719,0,1,0-9.7-4.913.371.371,0,1,0,.734.112A4.977,4.977,0,1,1,43,176.076a1.6,1.6,0,0,0-.8-.761,7.227,7.227,0,0,0-1.663-.378l0-.469a2.177,2.177,0,0,0,.862-1.411.659.659,0,0,0,.4-.611c0-.492,0-1.307,0-1.781a.911.911,0,0,0-.756-.9.911.911,0,0,0-.892-.733H38.359a1.676,1.676,0,0,0-1.675,1.675v1.744a.656.656,0,0,0,.4.6,2.182,2.182,0,0,0,.823,1.381l0,.511a7.229,7.229,0,0,0-1.66.392,1.565,1.565,0,0,0-.754.718,4.937,4.937,0,0,1-1.142-2.4.371.371,0,0,0-.731.127,5.72,5.72,0,0,0,9.678,3.059Zm-4.942-7.066H40.15a.168.168,0,0,1,.167.167.553.553,0,0,0,.553.553h.018a.168.168,0,0,1,.167.167v.2l-.448-.042a2.069,2.069,0,0,0-1.265.294,1.313,1.313,0,0,1-.686.193h-1.23v-.6A.933.933,0,0,1,38.359,169.777Zm-.933,2.6v-.323h1.23a2.054,2.054,0,0,0,1.073-.3,1.321,1.321,0,0,1,.808-.188l.518.049c0,.229,0,.53,0,.763a.461.461,0,0,0-.38.426,1.441,1.441,0,0,1-2.877,0A.464.464,0,0,0,37.427,172.373Zm1.815,2.52a2.181,2.181,0,0,0,.552-.071v.207a.635.635,0,0,0,.061.27,1.133,1.133,0,0,1-.632.194h0a1.134,1.134,0,0,1-.628-.189.636.636,0,0,0,.059-.27v-.222A2.176,2.176,0,0,0,39.242,174.893Zm-3.165,1.734a.84.84,0,0,1,.477-.61,5.918,5.918,0,0,1,1.351-.318,1.87,1.87,0,0,0,1.315.536h.006a1.87,1.87,0,0,0,1.321-.547,5.916,5.916,0,0,1,1.354.307.847.847,0,0,1,.512.653,4.986,4.986,0,0,1-6.336-.02Z" transform="translate(-32.062 -158.816)"/>
  </g>
</svg>
