<svg id="reject" xmlns="http://www.w3.org/2000/svg" width="11.339" height="13.969" viewBox="0 0 11.339 13.969">
  <path id="Path_171" data-name="Path 171" d="M19.6,3.627,16.091.12A.409.409,0,0,0,15.8,0H9.884A1.507,1.507,0,0,0,8.379,1.505V12.464a1.507,1.507,0,0,0,1.505,1.505h8.329a1.507,1.507,0,0,0,1.505-1.505V3.916a.409.409,0,0,0-.12-.289ZM16.211,1.4l2.11,2.11H16.9a.687.687,0,0,1-.687-.687Zm2,11.753H9.884a.687.687,0,0,1-.687-.687V1.505A.687.687,0,0,1,9.884.819h5.509v2A1.507,1.507,0,0,0,16.9,4.325h2v8.139A.687.687,0,0,1,18.212,13.151Z" transform="translate(-8.379 0)" fill="#fff"/>
  <path id="Path_172" data-name="Path 172" d="M25.82,33.514A3.478,3.478,0,1,0,29.3,36.992,3.482,3.482,0,0,0,25.82,33.514Zm0,6.137a2.659,2.659,0,1,1,2.659-2.659A2.662,2.662,0,0,1,25.82,39.651Z" transform="translate(-20.151 -28.254)" fill="#fff"/>
  <path id="Path_173" data-name="Path 173" d="M38.526,47.259a.409.409,0,0,0-.579,0l-.641.641-.641-.641a.409.409,0,1,0-.579.579l.641.641-.641.641a.409.409,0,1,0,.579.579l.641-.641.641.641a.409.409,0,0,0,.579-.579l-.641-.641.641-.641A.409.409,0,0,0,38.526,47.259Z" transform="translate(-31.638 -39.741)" fill="#fff"/>
</svg>
