<svg xmlns="http://www.w3.org/2000/svg" width="25" height="25" viewBox="0 0 25 25">
  <g id="school" transform="translate(-16 -16)">
    <path id="Path_150" data-name="Path 150" d="M211.4,158.8a3.4,3.4,0,1,0-3.4-3.4A3.4,3.4,0,0,0,211.4,158.8Zm0-5.667a2.267,2.267,0,1,1-2.267,2.267A2.267,2.267,0,0,1,211.4,153.133Z" transform="translate(-182.9 -129.555)" fill="#fff"/>
    <path id="Path_151" data-name="Path 151" d="M248.567,178.267h.567a.567.567,0,1,0,0-1.133v-.567a.567.567,0,1,0-1.133,0V177.7A.567.567,0,0,0,248.567,178.267Z" transform="translate(-220.146 -151.881)" fill="#fff"/>
    <path id="Path_152" data-name="Path 152" d="M201.067,266.833v-2.267A.567.567,0,0,0,200.5,264h-7.933a.567.567,0,0,0-.567.567v2.267a.567.567,0,0,0,.567.567H200.5A.567.567,0,0,0,201.067,266.833Zm-1.133-.567h-6.8v-1.133h6.8Z" transform="translate(-168.033 -235.6)" fill="#fff"/>
    <path id="Path_153" data-name="Path 153" d="M64.567,189.667H69.1a.567.567,0,1,0,0-1.133v-3.967a.567.567,0,0,0-.567-.567h-3.4a.567.567,0,0,0-.567.567v3.967a.567.567,0,1,0,0,1.133Zm1.133-4.533h2.267v3.4H65.7Z" transform="translate(-44.6 -159.88)" fill="#fff"/>
    <path id="Path_154" data-name="Path 154" d="M69.1,284.533v-3.967a.567.567,0,0,0-.567-.567h-3.4a.567.567,0,0,0-.567.567v3.967a.567.567,0,1,0,0,1.133H69.1a.567.567,0,1,0,0-1.133Zm-3.4-3.4h2.267v3.4H65.7Z" transform="translate(-44.6 -251.24)" fill="#fff"/>
    <path id="Path_155" data-name="Path 155" d="M69.1,380.533v-3.967a.567.567,0,0,0-.567-.567h-3.4a.567.567,0,0,0-.567.567v3.967a.567.567,0,1,0,0,1.133H69.1a.567.567,0,1,0,0-1.133Zm-3.4-3.4h2.267v3.4H65.7Z" transform="translate(-44.6 -343.5)" fill="#fff"/>
    <path id="Path_156" data-name="Path 156" d="M368.567,189.667H373.1a.567.567,0,1,0,0-1.133v-3.967a.567.567,0,0,0-.567-.567h-3.4a.567.567,0,0,0-.567.567v3.967a.567.567,0,1,0,0,1.133Zm1.133-4.533h2.267v3.4H369.7Z" transform="translate(-336.067 -159.88)" fill="#fff"/>
    <path id="Path_157" data-name="Path 157" d="M368.567,285.667H373.1a.567.567,0,1,0,0-1.133v-3.967a.567.567,0,0,0-.567-.567h-3.4a.567.567,0,0,0-.567.567v3.967a.567.567,0,1,0,0,1.133Zm1.133-4.533h2.267v3.4H369.7Z" transform="translate(-336.067 -251.24)" fill="#fff"/>
    <path id="Path_158" data-name="Path 158" d="M368.567,381.667H373.1a.567.567,0,1,0,0-1.133v-3.967a.567.567,0,0,0-.567-.567h-3.4a.567.567,0,0,0-.567.567v3.967a.567.567,0,1,0,0,1.133Zm1.133-4.533h2.267v3.4H369.7Z" transform="translate(-336.067 -343.5)" fill="#fff"/>
    <path id="Path_159" data-name="Path 159" d="M40.583,23.5a.417.417,0,1,0,0-.833H33.219l-4.3-3.129v-.963l2.015.336a.417.417,0,0,0,.485-.411V16.833a.417.417,0,0,0-.348-.411l-2.5-.417h0a.414.414,0,0,0-.485.411v3.121l-4.3,3.129H16.417a.417.417,0,1,0,0,.833h.417V40.166h-.417a.417.417,0,1,0,0,.833H40.583a.417.417,0,1,0,0-.833h-.417V23.5Zm-12.5,16.667H26.417V35.583a2.087,2.087,0,0,1,1.667-2.041Zm.833-6.625a2.087,2.087,0,0,1,1.667,2.041v4.583H28.917Zm-.417-.875a2.92,2.92,0,0,0-2.917,2.917v4.583h-1.25V23.3l4.167-3.03,4.167,3.03V40.166h-1.25V35.583A2.92,2.92,0,0,0,28.5,32.666Zm2.083-14.659-1.667-.278v-.822l1.667.278ZM17.667,23.5H23.5V40.166H17.667ZM39.333,40.166H33.5V23.5h5.833Z" transform="translate(0 0)" fill="#fff"/>
  </g>
</svg>
