<svg id="search-2" xmlns="http://www.w3.org/2000/svg" width="16.009" height="16.009" viewBox="0 0 16.009 16.009">
  <g id="Group_2" data-name="Group 2" transform="translate(0 0)">
    <g id="Group_1" data-name="Group 1">
      <path id="Path_1" data-name="Path 1" d="M7.05,0A7.05,7.05,0,1,0,14.1,7.05,7.05,7.05,0,0,0,7.05,0Zm0,12.8A5.748,5.748,0,1,1,12.8,7.05,5.748,5.748,0,0,1,7.05,12.8Z" transform="translate(0 0)" fill="#fff"/>
    </g>
  </g>
  <g id="Group_4" data-name="Group 4" transform="translate(10.977 10.976)">
    <g id="Group_3" data-name="Group 3" transform="translate(0 0)">
      <path id="Path_2" data-name="Path 2" d="M355.89,354.968l-3.731-3.731a.651.651,0,1,0-.92.92l3.73,3.732a.651.651,0,0,0,.92-.92Z" transform="translate(-351.048 -351.046)" fill="#fff"/>
    </g>
  </g>
</svg>
