<svg xmlns="http://www.w3.org/2000/svg" width="25" height="30" viewBox="0 0 25 30">
  <g id="student" transform="translate(-53.387 0)">
    <path id="Path_160" data-name="Path 160" d="M75.006,19.6l-1.854-.517-4.033-2.5v-.573a5.045,5.045,0,0,0,2.119-3.581,1.191,1.191,0,0,0,1.034-1.154V9.7c0-.006,0-.012,0-.018v-2a.854.854,0,0,0,.381-.707V5.146l2.783-.45a.943.943,0,0,0,.819-.859.926.926,0,0,0-.685-.958L66.185.044a1.031,1.031,0,0,0-.6,0L56.2,2.879a.926.926,0,0,0-.685.958.913.913,0,0,0,.378.678V6.9h-.023a.936.936,0,0,0-.958.91V9L54.3,12.449a1,1,0,0,0,1.015,1.142h2.094a1,1,0,0,0,1.015-1.142L57.8,9V7.815a.936.936,0,0,0-.958-.91h-.023V4.774l2.3.372V6.974a.854.854,0,0,0,.38.706v3.593a1.191,1.191,0,0,0,1.034,1.154,5.045,5.045,0,0,0,2.117,3.58v.576l-4.032,2.5-1.852.516a4.507,4.507,0,0,0-3.382,4.29V25.2a.463.463,0,0,0,.925,0V23.89a3.642,3.642,0,0,1,2.717-3.447l1.726-.481,6.9,3.891a.49.49,0,0,0,.473,0l6.9-3.892,1.726.481a3.642,3.642,0,0,1,2.717,3.447v4.244a1.016,1.016,0,0,1-1.04.987H74.383V27.227a.463.463,0,0,0-.925,0v1.894H58.315V27.227a.463.463,0,0,0-.925,0v1.894H55.352a1.016,1.016,0,0,1-1.04-.987v-.88a.463.463,0,0,0-.925,0v.88A1.92,1.92,0,0,0,55.352,30h21.07a1.92,1.92,0,0,0,1.965-1.866V23.889a4.506,4.506,0,0,0-3.381-4.29Zm-17.6-6.886H55.311a.1.1,0,0,1-.1-.116l.56-3.119h1.181l.56,3.119A.1.1,0,0,1,57.406,12.713Zm-.529-4.9V8.6H55.84V7.815a.032.032,0,0,1,.033-.031h.971A.032.032,0,0,1,56.877,7.815Zm7.355,14.05.184.269-4.724-2.666,3-1.86A8.93,8.93,0,0,0,64.232,21.865Zm0-1.9a12.522,12.522,0,0,0,3.316,0,8.252,8.252,0,0,1-.779,1.418l-.879,1.283-.879-1.283a8.252,8.252,0,0,1-.779-1.418Zm3.313,1.9a8.929,8.929,0,0,0,1.541-4.257l3,1.86-4.724,2.666ZM70.248,7.844h1.1V9.256H70.8a.54.54,0,0,1-.552-.525V7.844ZM56.484,3.716,65.868.882a.064.064,0,0,1,.037,0l9.384,2.835a.05.05,0,0,1,.043.06.05.05,0,0,1-.051.053l-3.1.5-1.165-.137a.459.459,0,0,0-.516.382.445.445,0,0,0,.4.49l.827.1v1.8H60.048v-1.8L64.835,4.6a9.021,9.021,0,0,1,2.1,0l1.812.213a.458.458,0,0,0,.516-.382.445.445,0,0,0-.4-.49L67.05,3.729a9.99,9.99,0,0,0-2.329,0l-5.126.6-3.1-.5a.05.05,0,0,1-.051-.053.05.05,0,0,1,.043-.06Zm3.944,5.54V7.844h1.1v.887a.54.54,0,0,1-.552.525h-.545ZM61.446,12.2a.7.7,0,0,0-.713-.638.3.3,0,0,1-.305-.29V10.135h.545a1.444,1.444,0,0,0,1.478-1.4V7.844h6.872v.887a1.444,1.444,0,0,0,1.478,1.4h.545v1.137a.3.3,0,0,1-.305.29.7.7,0,0,0-.713.638,4.47,4.47,0,0,1-8.882,0Zm4.441,4.836a5.576,5.576,0,0,0,2.306-.5v.278a7.982,7.982,0,0,1-.312,2.207,11.494,11.494,0,0,1-3.988,0,7.981,7.981,0,0,1-.312-2.207c0-.009,0-.018,0-.028s0,0,0-.005v-.246A5.577,5.577,0,0,0,65.887,17.036Z" transform="translate(0 0)" fill="#fff"/>
  </g>
</svg>
