<svg xmlns="http://www.w3.org/2000/svg" width="146.319" height="121.945" viewBox="0 0 146.319 121.945">
  <g id="Group_288" data-name="Group 288" transform="translate(512.893 158.998)">
    <path id="Path_8827" data-name="Path 8827" d="M888.729,88.357C902.358,84.6,918.887,94.2,937.6,102.019s39.654,13.845,46.977,28.048c7.323,14.235,1.006,36.647-12.342,51.672s-33.694,22.682-51.791,20.973c-18.118-1.752-34-12.861-44.792-27.15-10.795-14.321-16.474-31.8-13.911-49.076C864.283,109.212,875.079,92.1,888.729,88.357Z" transform="translate(-1374.023 -240)" fill="#d0e4ff"/>
    <path id="Path_8828" data-name="Path 8828" d="M1003.64,140.2H918.93a3.818,3.818,0,0,1-3.819-3.818V84.82A3.818,3.818,0,0,1,918.93,81h84.71a3.81,3.81,0,0,1,3.81,3.818V136.4A3.808,3.808,0,0,1,1003.64,140.2Z" transform="translate(-1374.023 -240)" fill="#3590ff"/>
    <path id="Path_8829" data-name="Path 8829" d="M949.617,117.617H925.052a2.4,2.4,0,0,1-2.4-2.4V91.3a2.4,2.4,0,0,1,2.4-2.4h24.565a2.4,2.4,0,0,1,2.4,2.4v23.916A2.41,2.41,0,0,1,949.617,117.617Z" transform="translate(-1374.023 -240)" fill="#fff"/>
    <path id="Path_8830" data-name="Path 8830" d="M938.594,106.26c.693.292,1.374.594,2.066.886,2.142.92,4.273,1.839,6.328,2.932a4.6,4.6,0,0,1,.844.53,5.083,5.083,0,0,1,1.114,1.6c.26.487.508.984.768,1.471.238.443.465.9.7,1.341a3.021,3.021,0,0,1,.5,1.893l-.055.4a2.6,2.6,0,0,1-1.254.3h-25.03a5.957,5.957,0,0,1-1.255-.714,6.3,6.3,0,0,1,.995-4.305c.216-.281.465-.541.682-.833a10.371,10.371,0,0,1,.638-.9,4.821,4.821,0,0,1,1.179-.908,24.792,24.792,0,0,1,7.842-3.635A6.535,6.535,0,0,1,938.594,106.26Z" transform="translate(-1374.023 -240)" fill="#f35c6c"/>
    <path id="Path_8831" data-name="Path 8831" d="M958,106h10.351" transform="translate(-1374.023 -240)" fill="none" stroke="#004dc0" stroke-linecap="round" stroke-miterlimit="10" stroke-width="2"/>
    <path id="Path_8832" data-name="Path 8832" d="M974,106h16.073" transform="translate(-1374.023 -240)" fill="none" stroke="#004dc0" stroke-linecap="round" stroke-miterlimit="10" stroke-width="2"/>
    <path id="Path_8833" data-name="Path 8833" d="M958,112h41.731" transform="translate(-1374.023 -240)" fill="none" stroke="#004dc0" stroke-linecap="round" stroke-miterlimit="10" stroke-width="2"/>
    <path id="Path_8834" data-name="Path 8834" d="M958,119h11.011" transform="translate(-1374.023 -240)" fill="none" stroke="#004dc0" stroke-linecap="round" stroke-miterlimit="10" stroke-width="2"/>
    <path id="Path_8835" data-name="Path 8835" d="M974,119h9.41" transform="translate(-1374.023 -240)" fill="none" stroke="#004dc0" stroke-linecap="round" stroke-miterlimit="10" stroke-width="2"/>
    <path id="Path_8836" data-name="Path 8836" d="M989,119h10.989" transform="translate(-1374.023 -240)" fill="none" stroke="#004dc0" stroke-linecap="round" stroke-miterlimit="10" stroke-width="2"/>
    <path id="Path_8837" data-name="Path 8837" d="M958,126h42.28" transform="translate(-1374.023 -240)" fill="none" stroke="#004dc0" stroke-linecap="round" stroke-miterlimit="10" stroke-width="2"/>
    <path id="Path_8838" data-name="Path 8838" d="M958,132h16.993" transform="translate(-1374.023 -240)" fill="none" stroke="#004dc0" stroke-linecap="round" stroke-miterlimit="10" stroke-width="2"/>
    <path id="Path_8839" data-name="Path 8839" d="M981,132h19.81" transform="translate(-1374.023 -240)" fill="none" stroke="#004dc0" stroke-linecap="round" stroke-miterlimit="10" stroke-width="2"/>
    <path id="Path_8840" data-name="Path 8840" d="M928.632,123.923a8.3,8.3,0,0,0-4.933,7.139,1.648,1.648,0,0,0,.368,1.309,1.49,1.49,0,0,0,1.093.3,6.059,6.059,0,0,0,3.439-1.612,15.993,15.993,0,0,0,3.516-4.11,26.9,26.9,0,0,0-.692,3.472.484.484,0,0,0,.054.389.448.448,0,0,0,.465.087c.833-.206,1.341-1.006,1.9-1.644a2.974,2.974,0,0,1,2.433-1.169c.931.108,1.72,1.212,1.244,2.012a7.864,7.864,0,0,0,.931-1.049,1.606,1.606,0,0,1,1.189-.638c.466.021.909.53.7.952.724-.195,1.449-.379,2.174-.541a1.227,1.227,0,0,1,.681-.022c.292.108.444.422.649.66a2.981,2.981,0,0,0,2.769.66,6.47,6.47,0,0,1,2.942-.13" transform="translate(-1374.023 -240)" fill="none" stroke="#004dc0" stroke-linecap="round" stroke-linejoin="round" stroke-miterlimit="10" stroke-width="2"/>
    <path id="Path_8841" data-name="Path 8841" d="M943.332,98.774a1.2,1.2,0,0,0-1.633.249,1.118,1.118,0,0,0-.13.184c-.033-.325-.076-.638-.119-.963a5.163,5.163,0,0,0-.747-2.163,2.53,2.53,0,0,0-1.665-1.028,7.169,7.169,0,0,0-4.478.53,2.781,2.781,0,0,0-1.526,1.384.752.752,0,0,1-.021.087.313.313,0,0,0-.173.249c-.044.335-.076.671-.108,1.006a1.483,1.483,0,0,0-1.623.184,2.073,2.073,0,0,0-.606,1.514,1.968,1.968,0,0,0,.584,1.493,2.15,2.15,0,0,0,.66.541.04.04,0,0,0,.033.011c.043.032.086.054.129.086a1.455,1.455,0,0,0,.736.27.809.809,0,0,0,.011.163,4.978,4.978,0,0,0,1.666,3.732q-.05,1.2-.033,2.4c.011.757-.13,1.795.682,2.185a2.191,2.191,0,0,0,.595.162,3.769,3.769,0,0,0,.573.065,5,5,0,0,0,1.6-.141,2.023,2.023,0,0,0,1.687-1.86,13.142,13.142,0,0,0-.054-1.839c-.011-.249-.043-.5-.065-.746a5.152,5.152,0,0,0,2.055-3.224,12.719,12.719,0,0,0,.227-1.265,2.191,2.191,0,0,0,2.153-1.818A1.566,1.566,0,0,0,943.332,98.774Z" transform="translate(-1374.023 -240)" fill="#f7c14e"/>
    <path id="Path_8842" data-name="Path 8842" d="M995.707,91.884q-16.956.243-33.922.054c-4.51-.054-4.521,6.966,0,7.009q16.956.195,33.922-.054C1000.22,98.839,1000.23,91.819,995.707,91.884Z" transform="translate(-1374.023 -240)" fill="#fff"/>
    <path id="Path_8843" data-name="Path 8843" d="M933.3,104.885a3.443,3.443,0,0,1-.281-.617,3.664,3.664,0,0,1-.184-1.525.4.4,0,0,0-.39-.389.427.427,0,0,0-.162-.033.4.4,0,0,0-.389.39,15.755,15.755,0,0,0-.152,1.6,1.931,1.931,0,0,0,.584,1.4,1.335,1.335,0,0,0,.639.324.545.545,0,0,0,.7-.411C933.694,105.339,933.435,105.112,933.3,104.885Z" transform="translate(-1374.023 -240)" fill="#3590ff"/>
    <path id="Path_8844" data-name="Path 8844" d="M942.542,103.231a1.411,1.411,0,0,0-.173-.811.556.556,0,0,0-.746-.206.394.394,0,0,0-.389.39v.021a4.237,4.237,0,0,0-.325,1.19,4.082,4.082,0,0,1-.281.822,4.44,4.44,0,0,1-.325.476.37.37,0,0,0-.075.141c-.011.011-.022.032-.033.043a.4.4,0,0,0,0,.552.393.393,0,0,0,.552,0c.065-.076.108-.152.173-.227A3.7,3.7,0,0,0,942.542,103.231Z" transform="translate(-1374.023 -240)" fill="#3590ff"/>
    <path id="Path_8845" data-name="Path 8845" d="M939.448,96.848c-.043.13-.432.281-.562.335a4.22,4.22,0,0,1-.7.26,5.36,5.36,0,0,1-1.374.216,11.625,11.625,0,0,1-3.169-.4c-.487-.119-.692.638-.206.746a11.082,11.082,0,0,0,3.808.4,6.257,6.257,0,0,0,1.655-.389c.487-.195,1.114-.444,1.3-.974C940.368,96.578,939.611,96.372,939.448,96.848Z" transform="translate(-1374.023 -240)" fill="#f35c6c"/>
    <path id="Path_8846" data-name="Path 8846" d="M942.564,96.253a2.237,2.237,0,0,0-2.336-2,2.943,2.943,0,0,0-1.569-1.244,4.038,4.038,0,0,0-1.968.011h-.011a4.488,4.488,0,0,0-1.374-1.114,3.751,3.751,0,0,0-2.1-.162,2.82,2.82,0,0,0-2.6,2.52,3.125,3.125,0,0,0,1.373,2.542,2.65,2.65,0,0,0-.292,1.255.388.388,0,0,0,.39.389.417.417,0,0,0,.248-.1c.022.162.044.325.076.476.065.357.152.7.249,1.06a.734.734,0,0,0,.3.476.573.573,0,0,0,.573-.022c.314-.205.368-.671.444-1.006a10.018,10.018,0,0,0,.183-1.114c.022-.151.022-.3.033-.443a8.56,8.56,0,0,0,3.1.086c.758-.032,1.439-.681,2.239-.606a1.619,1.619,0,0,1,.768,1.33c.044.346.044.692.055,1.038a3.2,3.2,0,0,0,.151,1.114.553.553,0,0,0,.909.227,2.194,2.194,0,0,0,.411-.962c.01-.044.021-.1.032-.141A6.442,6.442,0,0,0,942.564,96.253Z" transform="translate(-1374.023 -240)" fill="#3590ff"/>
    <path id="Path_8847" data-name="Path 8847" d="M939.675,106.746a.384.384,0,0,0-.476-.27,5.437,5.437,0,0,1-4.683-.26.37.37,0,0,0-.422.032c-.3.033-.552.4-.26.649a5.362,5.362,0,0,0,2.867,1.353,3.243,3.243,0,0,0,2.661-.942.221.221,0,0,0,.054-.1A.4.4,0,0,0,939.675,106.746Z" transform="translate(-1374.023 -240)" fill="#f35c6c"/>
    <path id="Path_8848" data-name="Path 8848" d="M924.825,178.948a18.465,18.465,0,0,0,2.164-13.835q-.114-.519-.227-1.039.843-.324,1.654-.713c.325.021.65.054.974.064,3.05.1,6.49.119,9.389-.984,2.315-.887,4.446-2.791,4.705-5.387a4.586,4.586,0,0,0-1.882-4.175,10.581,10.581,0,0,0,3.526-3.094c1.4-1.882,2.726-4.662,2.283-7.052a3.758,3.758,0,0,0-1.547-2.488c-1.168-.768-2.726-.552-4.045-.552l-3.819.033a2.289,2.289,0,0,0-1.038-.281c-1.677-.033-3.343-.044-5.019-.033.67-.465,1.341-.919,2-1.4,3.234-2.283,8.534-5.744,8.5-10.287-.065-10.222-19.427-2.153-23.7-.324a25.532,25.532,0,0,0-3.418,1.773l.39-10.806a2.372,2.372,0,0,0-2.964-2.249c-12.613,1.99-16.366,15.327-19.178,25.863-1.763,6.6-3.646,13.239-6.858,19.308-2.921,5.516-6.739,10.481-9.876,15.868,7.7,9.692,17.772,17.75,29.281,22.174,2.315-2.693,4.716-5.322,7.237-7.842C917.373,187.493,921.948,183.858,924.825,178.948Z" transform="translate(-1374.023 -240)" fill="#f7c14e"/>
    <path id="Path_8849" data-name="Path 8849" d="M916.193,123.35c-.238-.865-.6-1.849-1.568-2.1a3.008,3.008,0,0,0-2.5.822,8.341,8.341,0,0,0-2.682,4.9,19.724,19.724,0,0,0-.563,7.409.784.784,0,0,0,1.3.346q2.694-2.952,5.6-5.7a.661.661,0,0,0,.217-.649,5.615,5.615,0,0,0,.476-2.034A8.465,8.465,0,0,0,916.193,123.35Z" transform="translate(-1374.023 -240)" fill="#f35c6c"/>
    <path id="Path_8850" data-name="Path 8850" d="M943.246,150.553a18.974,18.974,0,0,1-4.284.877.715.715,0,0,0-.389-.087c-1.742.108-3.483.141-5.214.119-.389-.022-.768-.043-1.157-.076q-4.17-.291-8.307-.757c-1.028-.162-2.066-.346-3.083-.562a.694.694,0,0,0-.368.011,6.975,6.975,0,0,1,3.321-4.489c1.795-1.169,3.677-2.185,5.462-3.375,1.839-1.223,3.624-2.542,5.355-3.916,3.407-2.715,7.409-5.852,8.437-10.319.227-.974-1.277-1.4-1.5-.411-.919,4.013-4.575,6.825-7.615,9.291-1.752,1.417-3.58,2.759-5.452,4.013-1.784,1.19-3.666,2.207-5.462,3.375a8.794,8.794,0,0,0-3.613,3.97,15.32,15.32,0,0,0-.746,5.6,31.913,31.913,0,0,1-2.272,11.715,31.026,31.026,0,0,1-7.5,10.914c-.735.692.368,1.785,1.1,1.1a32.679,32.679,0,0,0,9.107-15.273,7.312,7.312,0,0,0,3.765,1.687,16.3,16.3,0,0,0,5.473.217.8.8,0,0,0,.779-.779.783.783,0,0,0-.779-.779,15.082,15.082,0,0,1-4.727-.1c-1.168-.217-2.845-.5-3.6-1.536a.912.912,0,0,0-.519-.357,32.317,32.317,0,0,0,.595-3.819c.151-1.687.075-3.4.194-5.084a.541.541,0,0,0,.141.044c1.082.14,2.174.27,3.256.389a67.406,67.406,0,0,0,9.767.855,27.162,27.162,0,0,0,10.266-.952C944.609,151.732,944.2,150.229,943.246,150.553Z" transform="translate(-1374.023 -240)" fill="#f35c6c"/>
    <path id="Path_8851" data-name="Path 8851" d="M907.086,195.346c-5.43-1.687-9.216-6.338-12.6-10.676a93.834,93.834,0,0,1-9.713-15.414c-.942-1.839-3.127-1.309-3.97.076a2.446,2.446,0,0,0-1.093.822c-1.276,1.7-2.79,3.429-4.143,5.224.044.065.087.119.13.184,8.145,10.785,19.189,19.763,31.91,24.262.162-.194.335-.389.5-.584A2.35,2.35,0,0,0,907.086,195.346Z" transform="translate(-1374.023 -240)" fill="#f35c6c"/>
  </g>
</svg>
