<svg xmlns="http://www.w3.org/2000/svg" width="132.682" height="108.293" viewBox="0 0 132.682 108.293">
  <g id="Group_287" data-name="Group 287" transform="translate(1303.104 151.337)">
    <path id="Path_8712" data-name="Path 8712" d="M94.146,89.956c13.145-4.388,30.421,3.323,49.691,9.249s40.576,10.039,49.17,22.634c8.588,12.618,4.434,33.714-7.371,48.485s-31.24,23.225-49.328,22.886c-18.112-.369-34.884-9.524-46.918-21.955C77.356,158.794,70.079,143.069,71,126.964,71.886,110.852,80.966,94.338,94.146,89.956Z" transform="translate(-1374.023 -240)" fill="#d0e4ff"/>
    <path id="Path_8713" data-name="Path 8713" d="M200.138,140.114A1.163,1.163,0,0,0,198.792,139q-30.485,2.676-60.718,7.506a1.318,1.318,0,0,0-1.164,1.31,1.049,1.049,0,0,0,.69,1.205c5.692,2.481,12.04,2.685,18.089,4.008.029.005.052.005.082.011a1.3,1.3,0,0,0,.76.129l39.366-4.423a1.341,1.341,0,0,0,1.731-.813,1.272,1.272,0,0,0,1.539-.918,12.466,12.466,0,0,0,.257-1.287,1.164,1.164,0,0,0,.392-.661,23.807,23.807,0,0,0,.515-4.312A.933.933,0,0,0,200.138,140.114Z" transform="translate(-1374.023 -240)" fill="#fbddb1"/>
    <path id="Path_8714" data-name="Path 8714" d="M200.5,146.585a1.1,1.1,0,0,0-1.24-.579q-15.392,2.272-30.83,4.194-3.817.474-7.641.93c-1.328.158-2.661.3-3.989.468a4.165,4.165,0,0,0-2.065.55c-1.375,1-.931,3.183-.948,4.557q-.052,3.625-.1,7.249c-.012.836.748,1.17,1.462,1.064a1.262,1.262,0,0,0,1.229.656c9.471-.381,19.264-1.036,28.5-3.2,3.99-.936,8.465-2.258,11.6-4.821,3.077-2.515,4.06-6.207,4.85-9.734A1.119,1.119,0,0,0,200.5,146.585Z" transform="translate(-1374.023 -240)" fill="#f7c14e"/>
    <path id="Path_8715" data-name="Path 8715" d="M154.15,151.855c-2.562-1.082-5.469-1.673-8.131-2.492l-7.4-2.264a1.272,1.272,0,0,0-2.194.854c0,.193-.011.387-.017.58a1.173,1.173,0,0,0,.076.473,101.249,101.249,0,0,0,1.421,12.017c.679,3.749,1.188,8.2,3.4,11.413,1.755,2.545,4.961,4.136,7.98,2.872,3.288-1.374,4.621-4.756,5.323-8a1.22,1.22,0,0,0,.58-1.036q.1-4.133.2-8.272C155.437,156.325,156.069,152.669,154.15,151.855Z" transform="translate(-1374.023 -240)" fill="#fad08a"/>
    <path id="Path_8716" data-name="Path 8716" d="M125.532,150.381c-10.94-6.142-24.729-8.055-36.622-3.551a26.071,26.071,0,0,0-16.158,29.4c1.439,7.306,8.36,10.436,14.672,12.741a1.24,1.24,0,0,0,1.737-.848,33.224,33.224,0,0,1,15.21-20.224c3.972-2.451,8.2-4.469,12.162-6.926a66.489,66.489,0,0,0,5.9-4.037,9.922,9.922,0,0,0,3.569-4.352,1.27,1.27,0,0,0,.052-.65A1.206,1.206,0,0,0,125.532,150.381Z" transform="translate(-1374.023 -240)" fill="#003b98"/>
    <path id="Path_8717" data-name="Path 8717" d="M144.948,177.731a86.2,86.2,0,0,0-2.258-10.882,45.771,45.771,0,0,0-3.674-9.863c-3.381-6.143-9.611-8.243-16.24-8.81-7.067-.6-14.578-1.153-21.434,1.053a21.554,21.554,0,0,0-13.5,12.4c-2.732,6.494-2.773,13.549-2.416,20.475-.263,2.615-.123,5.154,2.463,6.6,3.106,1.738,6.769,2.177,10.243,2.569q12.593,1.42,25.2,2.819a1.085,1.085,0,0,0,.749-.175.927.927,0,0,0,1.34-1.229c-.708-1.123-.211-2.942.123-4.124a11.6,11.6,0,0,1,1.3-2.937,37.912,37.912,0,0,1,9.518-1.474,1.028,1.028,0,0,0,1.089,0c1.632.053,3.317.234,4.621-.913,1.34-1.176,2.083-3.1,2.919-4.633A.786.786,0,0,0,144.948,177.731Z" transform="translate(-1374.023 -240)" fill="#f35c6c"/>
    <path id="Path_8718" data-name="Path 8718" d="M132.265,122.558c-.561-.9-1.843-.152-1.632.737-3.346,3.569-8.933-4.147-12.958-.93-1.661,1.328-2.474,3.434-3.071,5.406-.164.538-.533,3.241-.989,3.463-.047.345-.164.252-.345-.275a8.171,8.171,0,0,1-.626-1.234,10.123,10.123,0,0,1-.626-2.37.916.916,0,0,0-.292-.561c-1.071-3.727-6.482-5.71-8.138-1.27-.7,1.884-.807,4.212.585,5.792a10.4,10.4,0,0,0,5.464,3.352,8.456,8.456,0,0,0,2.837,5.9q-.736,2.79-1.468,5.587c-.474,1.807-1.269,3.808-1.012,5.71.427,3.118,3.539,4.767,6.406,4.919,2.662.141,5.686-.83,7.026-3.311a9.955,9.955,0,0,0,.807-4.9c-.006-.655-.012-1.316-.017-1.977.4.087.795.163,1.193.234,3.206.544,5.1-.954,6.166-3.9a46.879,46.879,0,0,0,2.223-10.887C134.155,128.748,134.055,125.442,132.265,122.558Z" transform="translate(-1374.023 -240)" fill="#f7c14e"/>
    <path id="Path_8719" data-name="Path 8719" d="M112.48,137.3a8.909,8.909,0,0,0-1.433-2.509,7.012,7.012,0,0,0-2.27-1.346c-.761-.38-1.925-1.591-2.808-1.152a.872.872,0,0,0-.93.462c-1.984,3.563.035,7.646,3.463,9.36,1.275.638,3.241,1.386,4.522.357C114.633,141.173,113.118,138.734,112.48,137.3Z" transform="translate(-1374.023 -240)" fill="#3590ff"/>
    <path id="Path_8720" data-name="Path 8720" d="M141.368,185.143c-.72-1.662-3.6-1.1-4.873-1.129a37.194,37.194,0,0,0-6.944.3c-1.51.252-3.078.591-3.961,2.182-1.03,1.849-1.345,4.587-1.538,6.751a1.107,1.107,0,0,0,1.064,1.287.978.978,0,0,0,.433.31,21.536,21.536,0,0,0,6.4.726c2.03.064,4.458.579,6.435.07,1.749-.451,2.182-2.334,2.557-4.183a31.258,31.258,0,0,0,.526-3.779A5.758,5.758,0,0,0,141.368,185.143Z" transform="translate(-1374.023 -240)" fill="#f7c14e"/>
    <path id="Path_8721" data-name="Path 8721" d="M194.651,155.05c-11.461.707-22.909,1.842-34.27,3.51-4.435.649-10.2,1.076-12.531,5.329a128.271,128.271,0,0,0-6.318,14.251q-3.229,8.082-5.8,16.386a.952.952,0,0,0,.5,1.6c10.4,2.088,21.171.082,30.625-4.44,9.091-4.347,18.246-10.331,23.342-18.914,2.907-4.9,4.06-10.278,5.236-15.8a1.081,1.081,0,0,0,.011-.333A.962.962,0,0,0,194.651,155.05Z" transform="translate(-1374.023 -240)" fill="#003b98"/>
    <path id="Path_8722" data-name="Path 8722" d="M202.654,133.434a19.306,19.306,0,0,0-1.855-4.85,3.856,3.856,0,0,0-3.135-2.2c-1.943-.058-3.85.047-5.8-.105a1.563,1.563,0,0,0-1.825,1.6,48.673,48.673,0,0,1-2.522,12.724c-.321.971.7,1.872,1.6,1.825q6.211-.315,12.408-.778a1.422,1.422,0,0,0,1.357-1.328,1.51,1.51,0,0,0,.719-1.31A20.813,20.813,0,0,0,202.654,133.434Z" transform="translate(-1374.023 -240)" fill="#3590ff"/>
    <path id="Path_8723" data-name="Path 8723" d="M174.5,133.451a10.186,10.186,0,0,0-3.463-.316,26.292,26.292,0,0,0-6.406.036c-2.6.3-5.833,1.246-5.4,4.452a.919.919,0,0,0,.808,1.421c.2-.012.4-.035.591-.047q.219,3.494.444,6.991a.673.673,0,0,0,.094.62.822.822,0,0,0,.392.427c1.69,1.51,4.563,1.241,6.657.989,2.5-.3,5.493-.749,7.424-2.486a.843.843,0,0,0,.322-.4.748.748,0,0,0,.052-.246.548.548,0,0,0,.006-.14q-.158-3.309-.632-6.57c.053-.006.106-.012.158-.023a.944.944,0,0,0,.849-.971C176.474,135.622,176.176,133.978,174.5,133.451Z" transform="translate(-1374.023 -240)" fill="#f47782"/>
    <path id="Path_8724" data-name="Path 8724" d="M175.848,137.031a1.526,1.526,0,0,0-.368-.041,8.047,8.047,0,0,0-.1-2.644.336.336,0,0,0-.351-.3.35.35,0,0,0-.181.07.334.334,0,0,0-.369-.111.328.328,0,0,0-.2.415,9.241,9.241,0,0,1,.286,1.632,3.478,3.478,0,0,1-.047.784,2.5,2.5,0,0,1-.07.287c-.082.018-.169.029-.246.041-2.264.3-4.516.679-6.792.936.135-.45.258-.9.357-1.363.164-.772.445-1.778-.2-2.4a.331.331,0,0,0-.538.181q-.535,1.869-1.082,3.732c-.93.076-1.86.129-2.8.129-.708,0-1.416-.023-2.124-.082a3.433,3.433,0,0,0-1.773.064.345.345,0,0,0,.077.65.274.274,0,0,0,.222.169,27.806,27.806,0,0,0,6.025.346,10.348,10.348,0,0,1-.573,1.614,7.612,7.612,0,0,0-.8,1.662.5.5,0,0,1-.141-.059c-.362-.216-.655.375-.292.585.778.462,1.5-.21,1.843-.872a27.784,27.784,0,0,0,1.275-2.849c.023-.058.041-.111.064-.169a64.9,64.9,0,0,0,6.552-.907,9.831,9.831,0,0,1-1.486,6.172,4.424,4.424,0,0,1-2.369,1.9c-.521.158-1.065.234-1.574.439-.321.129-.813.316-.76.743a.358.358,0,0,0,.053.14.314.314,0,0,0,.327.416,25.634,25.634,0,0,0,4.2-.767c.7-.187,1.386-.409,2.07-.655a4.432,4.432,0,0,0,1.568-.784,1.865,1.865,0,0,0,.521-1.4c.012-.7-.076-1.4-.117-2.1-.094-1.486-.187-2.972-.287-4.458a.1.1,0,0,0-.011-.035.767.767,0,0,0,.585-.386A.533.533,0,0,0,175.848,137.031Z" transform="translate(-1374.023 -240)" fill="#003b98"/>
    <path id="Path_8725" data-name="Path 8725" d="M167.208,166.955a37.088,37.088,0,0,0-9.951,1.111c-.8.164-1.586.328-2.381.486a19.27,19.27,0,0,0-2.311.5,3.5,3.5,0,0,0-2.48,2.492,42.013,42.013,0,0,0-1.744,7.857.829.829,0,0,0,1.071.936q5.1-1.263,10.2-2.521c1.685-.416,3.376-.837,5.061-1.252a21.078,21.078,0,0,0,2.474-.626c.954-.369.813-1.422.831-2.258q.053-2.983.1-5.968C168.085,167.236,167.617,166.984,167.208,166.955Z" transform="translate(-1374.023 -240)" fill="#3590ff"/>
    <path id="Path_8726" data-name="Path 8726" d="M180.049,179.673a5.859,5.859,0,0,0-2.808-2.861,6.571,6.571,0,0,0-4.306-.4c-3.118.684-5.353,3.159-6.932,5.791-.9,1.486-1.866,3.171-1.8,4.961a3.479,3.479,0,0,0,2.615,3.346.112.112,0,0,1,.041.006.749.749,0,0,0,.333.275c1.545.69,3.119.006,4.447-.848,1.433-.925,2.825-1.931,4.2-2.937q1.009-.746,2-1.509a9.386,9.386,0,0,0,1.854-1.638A4.187,4.187,0,0,0,180.049,179.673Z" transform="translate(-1374.023 -240)" fill="#f47782"/>
    <path id="Path_8727" data-name="Path 8727" d="M188.7,160.9a11.316,11.316,0,0,0-2.778.62c-.913.3-1.826.6-2.738.907a48.741,48.741,0,0,0-5.277,2.1.832.832,0,0,0-.41,1.234,78.541,78.541,0,0,0,6.909,8.225.488.488,0,0,0,.112.088c-.053.135-.112.269-.17.4-.433.959,1.029,1.691,1.468.731.948-2.088,1.053-4.422,1.545-6.634a34.671,34.671,0,0,1,2.129-6.488A.826.826,0,0,0,188.7,160.9Z" transform="translate(-1374.023 -240)" fill="#f7c14e"/>
    <path id="Path_8728" data-name="Path 8728" d="M124.449,146.749c-.081-.328-.386-.369-.672-.427-.72-.153-1.445-.293-2.165-.463a14.606,14.606,0,0,1-4.545-1.708c-.059-.2-.363-.093-.31.111a7.548,7.548,0,0,0,4.873,5.1,4.758,4.758,0,0,0,2.135.275c.3-.041.632-.088.649-.445.024-.433.024-.866.035-1.293.006-.205.012-.4.018-.608A2.416,2.416,0,0,0,124.449,146.749Z" transform="translate(-1374.023 -240)" fill="#f35c6c"/>
    <path id="Path_8729" data-name="Path 8729" d="M133.845,127.075c-.029-.17-.059-.339-.088-.5a8.66,8.66,0,0,0-.175-1.217.105.105,0,0,0-.053-.07.163.163,0,0,0-.164-.129.107.107,0,0,0-.041.012.006.006,0,0,1-.006-.006,8.623,8.623,0,0,0-2.708-.591c-.977-.094-1.954-.176-2.931-.263-1.978-.182-3.949-.4-5.9-.749-1.094-.2-2.182-.439-3.258-.737a.154.154,0,0,0-.188.181.16.16,0,0,0-.122.205,4.546,4.546,0,0,0,2.369,2.357,18.968,18.968,0,0,0,3.457,1.469,19.533,19.533,0,0,0,7.4.836,17.089,17.089,0,0,0,2.445-.356C133.88,127.514,133.851,127.122,133.845,127.075Z" transform="translate(-1374.023 -240)" fill="#f35c6c"/>
    <path id="Path_8730" data-name="Path 8730" d="M117.921,123.962c.117-.134.24-.269.369-.4.017.011.04.029.058.041a1.278,1.278,0,0,1,.369-.147,2.855,2.855,0,0,1,1.948.632,17.458,17.458,0,0,0,3.147,1.305,18.721,18.721,0,0,0,4.861.813,1.383,1.383,0,0,0,.158-.006,13.326,13.326,0,0,0,1.761-.17c.012.035.03.065.041.094a10.725,10.725,0,0,0,4.5-1.463c.111-.14.216-.28.31-.421a8.429,8.429,0,0,0,1.234-5.786,5.288,5.288,0,0,0-1.41-2.89,3.5,3.5,0,0,0-3.714-1.456,10.483,10.483,0,0,0-4.435-3.639c-3.615-1.539-8.237-.983-10.974,1.884a12.137,12.137,0,0,0-6.026.468c-3.048,1.129-5.277,3.966-5,7.119a4.915,4.915,0,0,0-.761,3.224.927.927,0,0,0,1.428.7,4.322,4.322,0,0,1,.62-.4c4.183-.509,4.124,5.119,5.909,7.459,2.07,2.714,3.533-2.954,4.007-4.113a10.755,10.755,0,0,1,1.5-2.72A1.166,1.166,0,0,1,117.921,123.962Z" transform="translate(-1374.023 -240)" fill="#3590ff"/>
    <path id="Path_8731" data-name="Path 8731" d="M131.159,114.924Z" transform="translate(-1374.023 -240)" fill="#003b98"/>
    <path id="Path_8732" data-name="Path 8732" d="M132.037,114.105a.361.361,0,0,0-.24-.31c-.041-.017-.088-.035-.129-.053a2.345,2.345,0,0,0-.661-.163.39.39,0,0,0-.321.128.553.553,0,0,0-.106.229c-.023.105-.052.21-.076.315-.052.211-.1.422-.158.638a.322.322,0,0,0,.176.357.341.341,0,0,0,.392-.076c.058-.064.117-.123.175-.181.03-.03.059-.053.088-.082l-.012.011c.006-.006.006-.006.012-.006a.308.308,0,0,1,.053-.04,3.777,3.777,0,0,1,.4-.287.3.3,0,0,0,.047-.047A.415.415,0,0,0,132.037,114.105Z" transform="translate(-1374.023 -240)" fill="#003b98"/>
    <path id="Path_8733" data-name="Path 8733" d="M135.418,118.136a.328.328,0,1,0-.655.046,4.785,4.785,0,0,1,.029.954,4.33,4.33,0,0,1-.2.983.326.326,0,0,0,.257.386.336.336,0,0,0,.386-.257A5.054,5.054,0,0,0,135.418,118.136Z" transform="translate(-1374.023 -240)" fill="#003b98"/>
    <path id="Path_8734" data-name="Path 8734" d="M134.114,119.452a.334.334,0,0,0-.439.146c-.187.38-.374.761-.567,1.141a.327.327,0,1,0,.585.292c.187-.38.374-.76.567-1.14A.334.334,0,0,0,134.114,119.452Z" transform="translate(-1374.023 -240)" fill="#003b98"/>
    <path id="Path_8735" data-name="Path 8735" d="M130.984,125.454a16.053,16.053,0,0,1-6.148-.6c-2.048-.614-4.037-1.462-6.038-2.205-.011-.006-.017,0-.029-.006a1.291,1.291,0,0,1-.117-.076c-.351-.234-.638.357-.293.585a19.235,19.235,0,0,0,9.946,3.229c.6.024,1.205.024,1.807-.011.457-.024.93-.024,1.188-.457A.324.324,0,0,0,130.984,125.454Z" transform="translate(-1374.023 -240)" fill="#003b98"/>
    <path id="Path_8736" data-name="Path 8736" d="M108.145,116.755a.331.331,0,0,0-.462.029,3.257,3.257,0,0,0-.942,2.445.328.328,0,1,0,.655-.046,2.617,2.617,0,0,1,.778-1.972A.322.322,0,0,0,108.145,116.755Z" transform="translate(-1374.023 -240)" fill="#003b98"/>
    <path id="Path_8737" data-name="Path 8737" d="M109.52,117.457a.332.332,0,0,0-.2-.135.322.322,0,0,0-.251.053,3.371,3.371,0,0,0-.79.907.337.337,0,0,0-.017.251.324.324,0,0,0,.163.188.343.343,0,0,0,.252.017.393.393,0,0,0,.187-.164.623.623,0,0,1,.064-.1,2.7,2.7,0,0,1,.433-.5c.024-.018.047-.041.071-.059a.327.327,0,0,0,.134-.205A.3.3,0,0,0,109.52,117.457Z" transform="translate(-1374.023 -240)" fill="#003b98"/>
    <path id="Path_8738" data-name="Path 8738" d="M107.835,138.938c-.006-.011-.012-.017-.017-.017S107.829,138.927,107.835,138.938Z" transform="translate(-1374.023 -240)" fill="#003b98"/>
    <path id="Path_8739" data-name="Path 8739" d="M108.344,139.383c.006,0,.012.006.018.012s-.006-.006-.024-.012c0-.006,0-.006.006,0Z" transform="translate(-1374.023 -240)" fill="#003b98"/>
    <path id="Path_8740" data-name="Path 8740" d="M108.637,139.547a2,2,0,0,1-.2-.111c-.024-.018-.047-.029-.076-.047a.059.059,0,0,0-.018-.011c-.006,0-.006-.006-.012-.006h.006c-.011-.012-.029-.018-.041-.03a2.858,2.858,0,0,1-.351-.3c-.023-.023-.052-.053-.076-.076s-.023-.023-.035-.035v-.006c-.017-.023-.017-.023-.011-.017-.041-.053-.088-.106-.129-.158a3.048,3.048,0,0,1-.252-.4.328.328,0,0,0-.456-.088.334.334,0,0,0-.088.456,3.334,3.334,0,0,0,1.439,1.4.334.334,0,0,0,.439-.146A.319.319,0,0,0,108.637,139.547Z" transform="translate(-1374.023 -240)" fill="#003b98"/>
    <path id="Path_8741" data-name="Path 8741" d="M179.944,132.673a10.43,10.43,0,0,0-4.663-4.247,5.793,5.793,0,0,0-3.528-.147c-.017-.023-.035-.052-.052-.076-1.761-2.568-4.247-.836-5.739,1.083a3.52,3.52,0,0,0-3.066-1.3,2.526,2.526,0,0,0-1.556,1.123,4.46,4.46,0,0,0-3.287,1.831,9.079,9.079,0,0,0-2.276,6.757.929.929,0,0,0,1.211.8,11.837,11.837,0,0,0,3.621-1.58,16.641,16.641,0,0,0,2.48,5.809.922.922,0,0,0,1.574-.105,32.867,32.867,0,0,0,2.223-9.3,29.9,29.9,0,0,0,6.231,5.915.929.929,0,0,0,1.5-.5,10.191,10.191,0,0,0-.146-4.639,9.523,9.523,0,0,0,5.013-.041A.929.929,0,0,0,179.944,132.673Z" transform="translate(-1374.023 -240)" fill="#68cd9f"/>
    <path id="Path_8742" data-name="Path 8742" d="M174.983,138a.33.33,0,0,0-.416-.2c-1.515.556-2.954-.4-4.071-1.339-.591-.492-1.165-1.012-1.714-1.545a5.068,5.068,0,0,1-1.422-1.731,5.54,5.54,0,0,0-.9-3.867.312.312,0,0,0-.328-.129.408.408,0,0,0-.532-.047c-.491.328-.111,1.2-.058,1.65a11.975,11.975,0,0,1,.058,2.334,25.094,25.094,0,0,1-.854,4.557c-.228.86-.456,1.726-.72,2.574-.181.58-.427,1.644-1.181,1.691a.331.331,0,0,0-.123.62.967.967,0,0,0,.9.644,1.3,1.3,0,0,0,1.187-.731,9.4,9.4,0,0,0,.691-2.112c.234-.8.462-1.6.7-2.4.327-1.141.754-2.393,1-3.656a18.01,18.01,0,0,0,3.873,4.013,5.346,5.346,0,0,0,2.65,1.392A1.279,1.279,0,0,0,174.983,138Z" transform="translate(-1374.023 -240)" fill="#3590ff"/>
    <path id="Path_8743" data-name="Path 8743" d="M161.334,129.04c-.1.252-.2.509-.292.761-.468,1.228-.942,2.451-1.41,3.679a6.07,6.07,0,0,1-2.387,3.27,4.77,4.77,0,0,1-.86.41,1.224,1.224,0,0,0-.684.45.642.642,0,0,0,.491.995,3.2,3.2,0,0,0,1.468-.3,14.155,14.155,0,0,0,1.8-.55c.345-.135.854-.258,1.059-.6.228-.38.094-.977.1-1.4a17.214,17.214,0,0,1,1.006-5.651l.3-.772C162.071,128.941,161.5,128.642,161.334,129.04Z" transform="translate(-1374.023 -240)" fill="#3590ff"/>
    <path id="Path_8744" data-name="Path 8744" d="M179.862,133.053c-.474-.59-1.4.3-1.954.31a2.8,2.8,0,0,1-2.013-1.24c-.673-.795-1.328-1.6-2-2.4a7.844,7.844,0,0,0-1.965-2.018.274.274,0,0,0-.228-.03c-.275-.146-.6.281-.346.562.088.094.17.193.258.292,0,.006,0,.006.006.012a.218.218,0,0,0,.076.1l.052.035a11.065,11.065,0,0,1,2.112,3.908c.187.608.217,1.433.737,1.872a1.756,1.756,0,0,0,.977.321c.463.053.919.1,1.381.152a3.437,3.437,0,0,0,2.369-.245C179.762,134.364,180.271,133.568,179.862,133.053Z" transform="translate(-1374.023 -240)" fill="#3590ff"/>
    <path id="Path_8745" data-name="Path 8745" d="M170.952,132.17a10.9,10.9,0,0,0-1.7-3.182,5,5,0,0,0-1.228-1.053,1.246,1.246,0,0,0-.79-.229.664.664,0,0,0-.567.527.329.329,0,0,0,.643.135c.029-.129.837.432.907.5a5.024,5.024,0,0,1,.854.942,12.3,12.3,0,0,1,1.269,2.574C170.49,132.778,171.11,132.568,170.952,132.17Z" transform="translate(-1374.023 -240)" fill="#3590ff"/>
    <path id="Path_8746" data-name="Path 8746" d="M164.376,128.093c-.983.321-1.24,1.421-1.4,2.322a11.156,11.156,0,0,0-.1,3.212c.047.415.7.374.655-.041a10.372,10.372,0,0,1,.047-2.755c.111-.708.222-1.855,1.024-2.112A.332.332,0,0,0,164.376,128.093Z" transform="translate(-1374.023 -240)" fill="#3590ff"/>
    <path id="Path_8747" data-name="Path 8747" d="M199.009,139.769a3,3,0,0,0-.187-1.6,23.029,23.029,0,0,0-1.317-3.545c-.4-.854-.848-2.036-1.8-2.4-.527-.2-1.135.023-1.5-.492a9.232,9.232,0,0,1-.825-1.626,24.393,24.393,0,0,1-1.4-4.119.28.28,0,0,0-.134-.181.261.261,0,0,0,0-.211.329.329,0,0,0-.415-.2,5.534,5.534,0,0,0-1.86,1.463.278.278,0,0,0-.228.4c.672,1.427,1.339,2.854,2.012,4.282.328.7.632,1.416.995,2.106a1.414,1.414,0,0,0,.485.579,1.94,1.94,0,0,0,.9.158,1.887,1.887,0,0,1,1.287,1.041c.369.591.673,1.223,1.012,1.831.755,1.375,1.533,2.732,2.329,4.084.216.363.754-.006.544-.369-.111-.187-.217-.374-.328-.561A1.313,1.313,0,0,0,199.009,139.769Z" transform="translate(-1374.023 -240)" fill="#f1f7ff" opacity="0.4"/>
    <path id="Path_8748" data-name="Path 8748" d="M201.021,140.494q-5.352.369-10.723.445a63.322,63.322,0,0,1,.445-6.5q.254-3.546.515-7.1,2.676-.025,5.341-.28c1.948-.182,1.755-3.224-.205-3.042a63.726,63.726,0,0,1-6.681.28,1.372,1.372,0,0,0-.79.211,1.144,1.144,0,0,0-.514.72,1.643,1.643,0,0,0-.065.485q-.315,4.353-.632,8.7c-.193,2.674-.713,5.552-.333,8.214a1.491,1.491,0,0,0,.743,1.123,1.559,1.559,0,0,0,.866.246q6.124-.045,12.238-.468A1.52,1.52,0,0,0,201.021,140.494Z" transform="translate(-1374.023 -240)" fill="#003b98"/>
    <path id="Path_8749" data-name="Path 8749" d="M111.421,127.466a7.8,7.8,0,0,0-2.018-3.6,3.256,3.256,0,0,0-3.744-.533.5.5,0,0,0-.129.685.5.5,0,0,0,.685.128,2.352,2.352,0,0,1,2.708.609,7.282,7.282,0,0,1,1.574,3.042A.491.491,0,0,0,111.421,127.466Z" transform="translate(-1374.023 -240)" fill="#003b98"/>
    <path id="Path_8750" data-name="Path 8750" d="M125.386,184.206c.011-.076.017-.158.029-.234.088-.667.193-1.486-.532-1.848a1.036,1.036,0,0,0-1.48.819,63.351,63.351,0,0,1-11.01-8.787c-4.09-3.873-8.1-7.787-12.52-11.285-1.293-1.024-2.6-2.03-3.949-2.983a17.843,17.843,0,0,0-4.235-2.352,1.061,1.061,0,0,0-.351-.065.8.8,0,0,0-.965.193,31.889,31.889,0,0,0-5.312,14.286,35.91,35.91,0,0,0-.2,7.845,13.394,13.394,0,0,0,2.685,7.29c3.37,4.182,8.723,5.657,13.83,6.365a101.362,101.362,0,0,0,17.562.76,9.759,9.759,0,0,0,3.791-.5,3.554,3.554,0,0,0,1.831-3.077c.193-1.475.38-2.943.567-4.417.047-.369.094-.743.141-1.112A.871.871,0,0,0,125.386,184.206Z" transform="translate(-1374.023 -240)" fill="#f35c6c"/>
    <path id="Path_8751" data-name="Path 8751" d="M137.244,184.353c-2.8-.726-5.722-1.7-8.6-.755a12.635,12.635,0,0,0-1.954.843,5.714,5.714,0,0,0-2.4,1.526,5.055,5.055,0,0,0-1.621,2.966c-.006.018-.006.041-.011.065s-.012.064-.018.1a4.5,4.5,0,0,0-.047,1.088.672.672,0,0,0-.029.269,3.432,3.432,0,0,0,1.521,2.656,6.717,6.717,0,0,0,3.194.942c2.282.164,3.99-1.217,5.944-2.129a.862.862,0,0,0,.55-.831.823.823,0,0,0-.655-.749,5.715,5.715,0,0,0-2.054.217c.176-.123.351-.24.521-.375a8.3,8.3,0,0,0,1.322-1.287,4.163,4.163,0,0,0,.954-1.7c.181-1.1-.86-1.89-1.855-2.346.146.012.293.023.439.041a30.083,30.083,0,0,1,3.867.889.964.964,0,0,0,.532.164c.094,0,.193.006.287.006C138.1,186,138.092,184.575,137.244,184.353Zm-11.063,6.055c-.181-.082-.368-.176-.544-.275l.006-.024.328-.93a1.717,1.717,0,0,1,.251-.246,4.853,4.853,0,0,1,1.954-.912A4.033,4.033,0,0,1,126.181,190.408Zm2.5-4.177a12.047,12.047,0,0,0-2.129.632.668.668,0,0,0-.222-.281c.081-.059.158-.111.239-.164a5.7,5.7,0,0,1,2.112-.515A1.5,1.5,0,0,1,128.679,186.231Zm3.505.836c-.1.152-.176.316-.281.468a5.922,5.922,0,0,1-.913,1.036,8.373,8.373,0,0,1-1.884,1.269c.117-.193.223-.392.322-.6a7.873,7.873,0,0,0,.913-3.043v-.181a3.579,3.579,0,0,1,1.772.86,1.039,1.039,0,0,0,.106.111A.3.3,0,0,1,132.184,187.067Z" transform="translate(-1374.023 -240)" fill="#f7c14e"/>
    <path id="Path_8752" data-name="Path 8752" d="M132.172,181.983a4.625,4.625,0,0,0-2.007-.561q-7.617-.843-15.2-1.972a.748.748,0,0,0-.269-.421,49.348,49.348,0,0,0-4.915-3.6c-.819-.509-1.678-.924-2.538-1.363a5.026,5.026,0,0,1-1.867-1.363,4.266,4.266,0,0,1-.637-2.4,20.3,20.3,0,0,0-.17-2.8,2.735,2.735,0,0,0-.445-1.24,1.559,1.559,0,0,0-1.351-.585,3.335,3.335,0,0,0-2.17,1.34,6.414,6.414,0,0,0-.656.942.768.768,0,0,0-.439.544c-.064.269-.129.544-.2.813a15.951,15.951,0,0,0-.743,3.065l-.053.211c-.292,1.205-.837,2.627-.333,3.844a3.844,3.844,0,0,0,2.375,2.012,24.5,24.5,0,0,0,3.721.913c5.411,1.023,10.881,1.819,16.339,2.55q2.439.326,4.891.615a8.458,8.458,0,0,0-2.036,1.1,7.472,7.472,0,0,0-3.042,5.85,6.04,6.04,0,0,0,.819,3.177,2.987,2.987,0,0,0,1.328,1.24,1.637,1.637,0,0,0,1.848-.257c.492-.579.094-1.293-.152-1.884a6.763,6.763,0,0,1-.585-1.825,4.6,4.6,0,0,1,.872-3.136,6.308,6.308,0,0,1,.474-.585c.2-.134.4-.257.591-.374,1.2-.72,2.41-1.416,3.621-2.112a1.734,1.734,0,0,1,.959-.345,1.558,1.558,0,0,1,.339.023,3.555,3.555,0,0,1,1.077.135C132.57,183.785,132.956,182.416,132.172,181.983Zm-29.4-14.011c.012-.035.024-.064.035-.1a.87.87,0,0,0,.041-.538c.006,0,.012-.006.018-.006.029.117.07.234.093.351.03.14.047.281.065.421A.813.813,0,0,0,102.769,167.972Z" transform="translate(-1374.023 -240)" fill="#003b98"/>
    <path id="Path_8753" data-name="Path 8753" d="M139.724,176.362c-.245-2.9-.286-5.962-1.176-8.758a8.785,8.785,0,0,0-2.369-3.867.76.76,0,0,0-.9-.1.82.82,0,0,0-1.34.942,10.319,10.319,0,0,1,1.205,4.153c.287,1.685.539,3.382.761,5.072q.333,2.5.573,5.02c.135,1.392.439,2.983-.163,4.3a.821.821,0,0,0,.6,1.153.713.713,0,0,0,.468.257c.451.065.907.135,1.357.2a.836.836,0,0,0,.966-.637,11.591,11.591,0,0,0,.24-1.4,3.876,3.876,0,0,0,.181-1.345C140.1,179.69,139.865,178.017,139.724,176.362Z" transform="translate(-1374.023 -240)" fill="#003b98"/>
    <path id="Path_8754" data-name="Path 8754" d="M136.676,191.554c.111-.327.211-.69.328-1.035a5.5,5.5,0,0,0-1.422-.392,7.42,7.42,0,0,0-2.182-.223,13.109,13.109,0,0,0-2.229.41c-1.263.292-2.814.6-3.96-.211-1.246-.883-1.235-2.609-1.223-3.966a.333.333,0,0,0-.509-.252.373.373,0,0,1-.064.047.358.358,0,0,0-.164.041,1.731,1.731,0,0,0-.222.141.283.283,0,0,0-.158.1l-.094.111a3.016,3.016,0,0,0-.45.562,4.474,4.474,0,0,0-1.077,2.72,7.387,7.387,0,0,0,.375,2.077.319.319,0,0,0,.023.07,7.278,7.278,0,0,0,.579,1.72.339.339,0,0,0,.258.193.322.322,0,0,0,.082.035,10.522,10.522,0,0,0,5.551.123,11.408,11.408,0,0,1,2.879-.737c1.017.023,1.79.1,3.17.129C136.319,192.648,136.495,192.1,136.676,191.554Z" transform="translate(-1374.023 -240)" fill="#f35c6c"/>
  </g>
</svg>
