<svg xmlns="http://www.w3.org/2000/svg" width="20.819" height="24.789" viewBox="0 0 20.819 24.789">
  <g id="Study-in-Canada-Guide" transform="translate(-40.994)">
    <path id="Path_8642" data-name="Path 8642" d="M61.813,15.977a2.425,2.425,0,0,0-1.937-2.372V10.991a.726.726,0,0,0-.981-.68l-1.386.52a8.467,8.467,0,0,0-3.229-2.1,4.842,4.842,0,1,0-5.753,0,8.468,8.468,0,0,0-3.229,2.1l-1.386-.52a.726.726,0,0,0-.981.68v2.615a2.421,2.421,0,0,0,0,4.744v2.808a.726.726,0,0,0,.471.68l7.747,2.9a.734.734,0,0,0,.51,0l7.747-2.9a.726.726,0,0,0,.471-.68V18.35A2.425,2.425,0,0,0,61.813,15.977ZM48.014,4.842A3.389,3.389,0,1,1,51.4,8.231,3.393,3.393,0,0,1,48.014,4.842ZM51.4,9.683A7.009,7.009,0,0,1,56,11.4L51.4,13.12,46.809,11.4A7.01,7.01,0,0,1,51.4,9.683Zm-8.957,6.294a.969.969,0,0,1,.968-.968H43.9v1.937h-.484A.969.969,0,0,1,42.446,15.977Zm1.937,2.4a1.212,1.212,0,0,0,.968-1.186V14.767a1.212,1.212,0,0,0-.968-1.186V12.039l6.294,2.36v8.616l-6.294-2.36Zm7.747,4.641V14.4l6.294-2.36v1.542a1.212,1.212,0,0,0-.968,1.186v2.421a1.212,1.212,0,0,0,.968,1.186v2.281Zm7.262-6.069h-.484V15.009h.484a.968.968,0,0,1,0,1.937Z"/>
  </g>
</svg>
