<svg xmlns="http://www.w3.org/2000/svg" width="133.987" height="119.985" viewBox="0 0 133.987 119.985">
  <g id="Group_288" data-name="Group 288" transform="translate(1043.114 157.818)">
    <path id="Path_8756" data-name="Path 8756" d="M462.977,135.536c-5.6-13.706-24.13-21.306-42.589-31.844S383.55,79.608,367.066,82.6c-16.5,3.019-31.075,22.591-35.024,43.288s2.7,42.474,15.693,56.41c13.04,13.925,32.417,20.009,51.175,19.837,18.792-.195,36.941-6.647,49.648-19.825C461.289,169.171,468.6,149.266,462.977,135.536Z" transform="translate(-1374.023 -240)" fill="#d0e4ff"/>
    <path id="Path_8757" data-name="Path 8757" d="M382.173,103.635q-12.243.034-24.486.195c-.034.953-.057,1.9-.08,2.858q-.81,30.822.735,61.633h84.442a8.225,8.225,0,0,0,7.485-4.81,6.249,6.249,0,0,0,.31-.688c1.01-2.7.562-5.878.505-8.7-.023-1.171-.046-2.33-.058-3.5V117.548c.012-.459.012-.93.023-1.389q.087-4.719.218-9.436c.023-.769.058-1.55.092-2.319q-11.382-.276-22.775-.471Q405.373,103.572,382.173,103.635Z" transform="translate(-1374.023 -240)" fill="#fff"/>
    <path id="Path_8758" data-name="Path 8758" d="M357.6,106.688c.023-.952.057-1.905.08-2.858-5.028.069-10.056.138-15.084.241-.034,2.33-.068,4.649-.091,6.98-.15,11.5-.241,23-.138,34.507a89.859,89.859,0,0,0,.826,14.051v.493a8.275,8.275,0,0,0,1.057,4.041,1.172,1.172,0,0,0,.309.5,8.2,8.2,0,0,0,6.865,3.685h6.922Q356.792,137.528,357.6,106.688Z" transform="translate(-1374.023 -240)" fill="#003b98"/>
    <path id="Path_8759" data-name="Path 8759" d="M451.451,97.746c-3.134-.035-6.279-.057-9.413-.08q-27.534-.189-55.078.172-14.551.189-29.1.539c-5.085.126-10.171.253-15.245.413-.011,1.114.023,2.227.012,3.295-.012.666-.023,1.32-.023,1.986q7.542-.138,15.084-.241,12.243-.156,24.486-.195,23.211-.069,46.388.3,11.4.172,22.775.471A58.578,58.578,0,0,0,451.451,97.746Z" transform="translate(-1374.023 -240)" fill="#dfecff"/>
    <path id="Path_8760" data-name="Path 8760" d="M451.439,97.436a11.3,11.3,0,0,0-.654-3.157,6.5,6.5,0,0,0-3.134-3.731,20.238,20.238,0,0,0-4.879-.861H361.383c-1.044-.046-2.1-.092-3.157-.126-1.136-.034-3.822-.046-5.452-.011-.62.011-1.24.011-1.872-.023a7.713,7.713,0,0,0-7.633,4.764,8.556,8.556,0,0,0-.333,1.09,15.239,15.239,0,0,0-.345,3.409q7.629-.224,15.245-.413,14.55-.344,29.1-.54,27.534-.361,55.079-.172c3.134.023,6.279.046,9.413.08A.924.924,0,0,0,451.439,97.436Z" transform="translate(-1374.023 -240)" fill="#003b98"/>
    <path id="Path_8761" data-name="Path 8761" d="M441.177,117.685H365.194v-3.237a.4.4,0,0,1,.4-.4h75.179a.4.4,0,0,1,.4.4Z" transform="translate(-1374.023 -240)" fill="#bed9ff"/>
    <path id="Path_8762" data-name="Path 8762" d="M440.764,121.325H365.585a.4.4,0,0,1-.4-.4v-3.237h75.982v3.237A.386.386,0,0,1,440.764,121.325Z" transform="translate(-1374.023 -240)" fill="#f1f7ff"/>
    <path id="Path_8763" data-name="Path 8763" d="M440.764,128.6H365.585a.4.4,0,0,1-.4-.4v-2.824a.4.4,0,0,1,.4-.4h75.179a.4.4,0,0,1,.4.4V128.2A.386.386,0,0,1,440.764,128.6Z" transform="translate(-1374.023 -240)" fill="#f1f7ff"/>
    <path id="Path_8764" data-name="Path 8764" d="M441.177,142.171H365.194v-3.237a.4.4,0,0,1,.4-.4h75.179a.4.4,0,0,1,.4.4Z" transform="translate(-1374.023 -240)" fill="#bed9ff"/>
    <path id="Path_8765" data-name="Path 8765" d="M440.764,145.81H365.585a.4.4,0,0,1-.4-.4v-3.237h75.982v3.237A.392.392,0,0,1,440.764,145.81Z" transform="translate(-1374.023 -240)" fill="#f1f7ff"/>
    <path id="Path_8766" data-name="Path 8766" d="M440.764,153.088H365.585a.4.4,0,0,1-.4-.4v-2.824a.4.4,0,0,1,.4-.4h75.179a.4.4,0,0,1,.4.4v2.824A.392.392,0,0,1,440.764,153.088Z" transform="translate(-1374.023 -240)" fill="#f1f7ff"/>
    <path id="Path_8767" data-name="Path 8767" d="M438.766,136.179h-12.9a2.411,2.411,0,1,1,0-4.822h12.9a2.411,2.411,0,1,1,0,4.822Z" transform="translate(-1374.023 -240)" fill="#68cd9f"/>
    <path id="Path_8768" data-name="Path 8768" d="M349.927,108.491a4.97,4.97,0,0,0-1.481.275,4.729,4.729,0,0,0,1.285,9.3c2.641-.046,4.443-2.514,4.558-4.994C354.415,110.339,352.693,108.342,349.927,108.491Z" transform="translate(-1374.023 -240)" fill="#3590ff"/>
    <path id="Path_8769" data-name="Path 8769" d="M352.223,126.5l-6.532.47c-1.584.115-1.6,2.6,0,2.48l6.532-.471C353.807,128.866,353.818,126.4,352.223,126.5Z" transform="translate(-1374.023 -240)" fill="#3590ff"/>
    <path id="Path_8770" data-name="Path 8770" d="M352.143,137.017l-6.027.551c-1.573.149-1.6,2.629,0,2.479l6.027-.551C353.715,139.347,353.727,136.867,352.143,137.017Z" transform="translate(-1374.023 -240)" fill="#3590ff"/>
    <path id="Path_8771" data-name="Path 8771" d="M352.911,147.119a24.079,24.079,0,0,0-3.271.379,28.419,28.419,0,0,1-3.272.137,1.241,1.241,0,0,0,0,2.48,28.424,28.424,0,0,0,3.272-.138,22.627,22.627,0,0,1,3.271-.379C354.507,149.656,354.5,147.176,352.911,147.119Z" transform="translate(-1374.023 -240)" fill="#3590ff"/>
    <path id="Path_8772" data-name="Path 8772" d="M349.628,96.322a1.894,1.894,0,1,0-1.894-1.894A1.894,1.894,0,0,0,349.628,96.322Z" transform="translate(-1374.023 -240)" fill="#3590ff"/>
    <path id="Path_8773" data-name="Path 8773" d="M355.15,96.047a1.894,1.894,0,1,0-1.894-1.894A1.894,1.894,0,0,0,355.15,96.047Z" transform="translate(-1374.023 -240)" fill="#8ebeff"/>
    <path id="Path_8774" data-name="Path 8774" d="M360.741,95.772a1.894,1.894,0,1,0-1.895-1.894A1.894,1.894,0,0,0,360.741,95.772Z" transform="translate(-1374.023 -240)" fill="#78b1db"/>
    <path id="Path_8775" data-name="Path 8775" d="M352.682,102.59h-4.144a1.194,1.194,0,1,1,0-2.388h4.144a1.194,1.194,0,1,1,0,2.388Z" transform="translate(-1374.023 -240)" fill="#8ebeff"/>
    <path id="Path_8776" data-name="Path 8776" d="M446.514,102.2H429.456a1.194,1.194,0,1,1,0-2.388h17.07a1.194,1.194,0,1,1-.012,2.388Z" transform="translate(-1374.023 -240)" fill="#8ebeff"/>
    <path id="Path_8777" data-name="Path 8777" d="M425.278,174.635c2.1-3.857,3.065-8.9-.85-11.973-1.021-.8-1.653-1.274-1.664-2.629a3.634,3.634,0,0,0-.976-2.732c-.4-.413-.93-.712-1.3-1.159a2.734,2.734,0,0,1-.608-1.929,13.685,13.685,0,0,1,1.021-3.754,59.4,59.4,0,0,1,3.593-7.381c1.217-2.066,2.641-4.328,3.054-6.727.367-2.135-.953-3.6-2.8-3.295a3.818,3.818,0,0,0-1.7,1.183c-3.111,2.824-5.028,6.738-7.772,10.733-2.158,3.134-4.6,6.44-8.173,8.173a25.539,25.539,0,0,0-3.524,1.8,16.047,16.047,0,0,0-4.6,5.682,24.2,24.2,0,0,0-2.721,8.655c-.344,2.893-.333,5.832-1.056,8.667-1.6,6.234-6.1,11.2-8.725,16.99a.966.966,0,0,0-.091.494.95.95,0,0,0,.229,1.343,70.374,70.374,0,0,0,9.034,5.349c1.068.035,2.147.046,3.215.035a80.5,80.5,0,0,0,10.412-.77q3.408-5.717,6.83-11.422C419.2,184.863,422.454,179.847,425.278,174.635Z" transform="translate(-1374.023 -240)" fill="#f7c14e"/>
    <path id="Path_8778" data-name="Path 8778" d="M407.68,155.683c.2-.333.379-.678.562-1.022.356-.666.678-1.355.976-2.043a.371.371,0,0,0-.069-.414.344.344,0,0,0-.4,0c-.344.184-.688.368-1.021.54-.184.092-.368.195-.551.287a1.655,1.655,0,0,0-.391.252,1.34,1.34,0,0,0-.47.276.442.442,0,0,0-.1.149.677.677,0,0,0-.137.287c-.069.344-.115.7-.149,1.045a4.429,4.429,0,0,0-.023.872.72.72,0,0,0,1.228.505A3.242,3.242,0,0,0,407.68,155.683Z" transform="translate(-1374.023 -240)" fill="#f35c6c"/>
    <path id="Path_8779" data-name="Path 8779" d="M420.744,157.6a1.808,1.808,0,0,0,.115-1.045,1.507,1.507,0,0,0-.3-.666.37.37,0,0,0-.264-.3.383.383,0,0,0-.47.253c-.287,1.274-1.286,2.284-1.516,3.57a.543.543,0,0,0,.643.654c.344-.069.54-.482.712-.746A11.129,11.129,0,0,0,420.744,157.6Z" transform="translate(-1374.023 -240)" fill="#f35c6c"/>
    <path id="Path_8780" data-name="Path 8780" d="M424.9,163.638c.16-.448-.184-.724-.414-.93a1.686,1.686,0,0,1-.574-.712.306.306,0,0,0-.16-.2c-.023-.321-.505-.321-.609.092-.218.861-.447,1.71-.666,2.571a5.814,5.814,0,0,0-.3,2.181c.057.414.39.517.723.264a3.073,3.073,0,0,0,.677-.918c.242-.39.471-.792.7-1.194.1-.184.206-.379.31-.562A5.09,5.09,0,0,0,424.9,163.638Z" transform="translate(-1374.023 -240)" fill="#f35c6c"/>
    <path id="Path_8781" data-name="Path 8781" d="M409.436,195.045c-17.173-9.275-15.015-14.682-19.193-9.184-1.7,2.492-8.3,10.653-9.3,14.476a42.077,42.077,0,0,0,4.947.895,82.316,82.316,0,0,0,25.381-.149C413.4,198.018,414.005,196.985,409.436,195.045Z" transform="translate(-1374.023 -240)" fill="#f35c6c"/>
    <path id="Path_8782" data-name="Path 8782" d="M395.443,198.88a18.43,18.43,0,0,0-2.847-2.273c-2.261-1.848-4.19-4.121-4.7-6.612-.092-.46-.78-.494-.861-.127,0,.012-.011.012-.023.023a29.369,29.369,0,0,1-1.538,2.606c-.264.425-.517.85-.8,1.251a2.764,2.764,0,0,0-.574,1.057c-.115.711.619,1.262,1.3,1.7a22.364,22.364,0,0,0,3.076,1.676,18.706,18.706,0,0,0,6.325,1.675C395.455,199.89,395.96,199.534,395.443,198.88Z" transform="translate(-1374.023 -240)" fill="#003b98"/>
  </g>
</svg>
