<svg xmlns="http://www.w3.org/2000/svg" width="13.017" height="15.621" viewBox="0 0 13.017 15.621">
  <g id="student" transform="translate(-53.387 0)">
    <path id="Path_160" data-name="Path 160" d="M64.644,10.205l-.965-.269-2.1-1.3v-.3a2.627,2.627,0,0,0,1.1-1.865.62.62,0,0,0,.539-.6V5.048s0-.006,0-.009V4a.445.445,0,0,0,.2-.368V2.679l1.449-.234A.491.491,0,0,0,65.294,2a.482.482,0,0,0-.357-.5L60.051.023a.537.537,0,0,0-.312,0L54.853,1.5A.482.482,0,0,0,54.5,2a.475.475,0,0,0,.2.353V3.6h-.012a.487.487,0,0,0-.5.474v.618l-.322,1.8a.518.518,0,0,0,.529.595H55.48a.518.518,0,0,0,.529-.595l-.322-1.8V4.069a.487.487,0,0,0-.5-.474h-.012V2.486l1.2.194v.951a.445.445,0,0,0,.2.367V5.869a.62.62,0,0,0,.539.6,2.627,2.627,0,0,0,1.1,1.864v.3l-2.1,1.3-.965.269a2.347,2.347,0,0,0-1.761,2.234v.682a.241.241,0,0,0,.482,0v-.682a1.9,1.9,0,0,1,1.415-1.795l.9-.251,3.59,2.026a.255.255,0,0,0,.246,0l3.591-2.026.9.251a1.9,1.9,0,0,1,1.415,1.795v2.21a.529.529,0,0,1-.541.514H64.32v-.986a.241.241,0,0,0-.482,0v.986H55.953v-.986a.241.241,0,0,0-.482,0v.986H54.41a.529.529,0,0,1-.541-.514v-.458a.241.241,0,0,0-.482,0v.458a1,1,0,0,0,1.023.972H65.381a1,1,0,0,0,1.023-.972v-2.21a2.346,2.346,0,0,0-1.761-2.234ZM55.48,6.619H54.389a.052.052,0,0,1-.054-.06l.291-1.624h.615l.291,1.624A.052.052,0,0,1,55.48,6.619ZM55.2,4.069v.408h-.54V4.069a.017.017,0,0,1,.017-.016h.506A.017.017,0,0,1,55.2,4.069Zm3.83,7.316.1.14-2.46-1.388,1.561-.969A4.65,4.65,0,0,0,59.034,11.385Zm0-.988a6.52,6.52,0,0,0,1.727,0,4.3,4.3,0,0,1-.406.738L59.9,11.8l-.458-.668a4.3,4.3,0,0,1-.406-.738Zm1.725.988a4.649,4.649,0,0,0,.8-2.217l1.561.968-2.46,1.388Zm1.409-7.3h.571V4.82h-.283a.281.281,0,0,1-.288-.273V4.084ZM55,1.935,59.886.459a.033.033,0,0,1,.019,0l4.886,1.476a.026.026,0,0,1,.022.031.026.026,0,0,1-.027.028l-1.615.261-.607-.071a.239.239,0,0,0-.269.2.232.232,0,0,0,.21.255l.431.051v.938H56.855V2.689L59.348,2.4a4.7,4.7,0,0,1,1.094,0l.944.111a.239.239,0,0,0,.269-.2.232.232,0,0,0-.21-.255L60.5,1.941a5.2,5.2,0,0,0-1.212,0l-2.669.314L55,1.994a.026.026,0,0,1-.027-.028A.026.026,0,0,1,55,1.935ZM57.053,4.82V4.084h.572v.462a.281.281,0,0,1-.288.273h-.284Zm.53,1.533a.366.366,0,0,0-.371-.332.155.155,0,0,1-.159-.151V5.277h.284a.752.752,0,0,0,.769-.731V4.084h3.578v.462a.752.752,0,0,0,.769.731h.284v.592a.155.155,0,0,1-.159.151.366.366,0,0,0-.371.332,2.328,2.328,0,0,1-4.625,0ZM59.9,8.871a2.9,2.9,0,0,0,1.2-.259v.145a4.156,4.156,0,0,1-.163,1.149,5.985,5.985,0,0,1-2.076,0A4.156,4.156,0,0,1,58.7,8.757s0-.01,0-.014,0,0,0,0V8.612A2.9,2.9,0,0,0,59.9,8.871Z" transform="translate(0 0)" fill="#fff"/>
  </g>
</svg>
