<svg xmlns="http://www.w3.org/2000/svg" width="154.094" height="157.218" viewBox="0 0 154.094 157.218">
  <g id="Group_287" data-name="Group 287" transform="translate(784.818 185)">
    <path id="Path_8783" data-name="Path 8783" d="M596.24,79.7c2.81-.053,5.733-.086,8.384-1.14,2.678-1.06,4.938-3.135,6.986-5.1a32.874,32.874,0,0,0,9.026-13.659,1.236,1.236,0,0,1,1.737-.862q12.9,7.446,25.39,15.581a1.238,1.238,0,0,1,.57.895,1,1,0,0,1-.053,1.054,79.668,79.668,0,0,1-9.451,12.447A79.077,79.077,0,0,1,630.114,97c-.225.179-.451.365-.683.543-.053-.132-.106-.258-.159-.391a24.637,24.637,0,0,0-1.04-3.241c-.769-1.929-2.128-4.885-4.732-3.943-2.214.8-2.559,3.506-2.473,5.534.107,2.472.358,4.951.577,7.417-.921.556-1.856,1.107-2.8,1.63l-.67.51c-1.06.809-2.266,2.115-3.731,1.79-1.432-.318-2.737-2.114-3.731-3.108q-2.028-2.029-3.917-4.189a83.6,83.6,0,0,1-6.867-8.98c-1.027-1.551-2-3.142-2.916-4.759-.848-1.491-1.922-3.042-1.849-4.818A1.241,1.241,0,0,1,596.24,79.7Z" transform="translate(-1374.023 -240)" fill="#78ebb6"/>
    <path id="Path_8784" data-name="Path 8784" d="M600.416,65.389a64.234,64.234,0,0,1-8.079-8.894c-.689-.921.789-1.915,1.471-1a61.789,61.789,0,0,0,7.774,8.55C602.437,64.819,601.264,66.164,600.416,65.389Z" transform="translate(-1374.023 -240)" fill="#3590ff"/>
    <path id="Path_8785" data-name="Path 8785" d="M596.26,69.067q-3.281-1.362-6.554-2.724c-1.061-.437-.265-2.035.795-1.6l6.555,2.724C598.116,67.907,597.321,69.5,596.26,69.067Z" transform="translate(-1374.023 -240)" fill="#3590ff"/>
    <path id="Path_8786" data-name="Path 8786" d="M604.565,62.956q-.477-3.5-.6-7.032c-.04-1.147,1.736-1.272,1.776-.119.086,2.353.292,4.7.6,7.032C606.494,63.97,604.717,64.09,604.565,62.956Z" transform="translate(-1374.023 -240)" fill="#3590ff"/>
    <path id="Path_8787" data-name="Path 8787" d="M632.706,69.955a27.063,27.063,0,0,1-4.633-3.751c-.5-.51-1.292.278-.789.789a28.534,28.534,0,0,0,4.858,3.924.56.56,0,0,0,.762-.2A.569.569,0,0,0,632.706,69.955Z" transform="translate(-1374.023 -240)" fill="#3590ff" opacity="0.26"/>
    <path id="Path_8788" data-name="Path 8788" d="M629.8,70.379a26.229,26.229,0,0,1-3.386-2.5.558.558,0,0,0-.789.789,28.342,28.342,0,0,0,3.612,2.671.557.557,0,1,0,.563-.961Z" transform="translate(-1374.023 -240)" fill="#3590ff" opacity="0.26"/>
    <path id="Path_8789" data-name="Path 8789" d="M624.852,77.027a20.1,20.1,0,0,1-5.3-5.594c-.385-.6-1.346-.046-.961.563a21.445,21.445,0,0,0,5.7,6,.561.561,0,0,0,.762-.2A.58.58,0,0,0,624.852,77.027Z" transform="translate(-1374.023 -240)" fill="#3590ff" opacity="0.26"/>
    <path id="Path_8790" data-name="Path 8790" d="M635.39,85.842q-4.156-3.171-8.172-6.528c-.544-.457-1.339.325-.789.789q4.126,3.45,8.4,6.707a.562.562,0,0,0,.762-.2A.573.573,0,0,0,635.39,85.842Z" transform="translate(-1374.023 -240)" fill="#3590ff" opacity="0.26"/>
    <g id="Group_286" data-name="Group 286" transform="translate(-1374.023 -240)" opacity="0.26">
      <path id="Path_8791" data-name="Path 8791" d="M617.435,76.013c-.331-.338-.649-.683-.954-1.041-.152-.172-.3-.351-.437-.53-.073-.093-.146-.179-.212-.272v-.007c0-.007-.007-.007-.007-.013a.162.162,0,0,0-.02-.026l-.02-.02-.119-.159a.645.645,0,0,0-.331-.258.575.575,0,0,0-.431.053.56.56,0,0,0-.2.762,23,23,0,0,0,1.955,2.286.548.548,0,1,0,.775-.775Z" fill="#3590ff" opacity="0.26"/>
      <path id="Path_8792" data-name="Path 8792" d="M615.831,74.176a.115.115,0,0,0-.026-.039c.007.013.02.02.026.039Z" fill="#3590ff" opacity="0.26"/>
    </g>
    <path id="Path_8793" data-name="Path 8793" d="M626.641,84.96a48.447,48.447,0,0,1-7.184-7.138.569.569,0,0,0-.789,0,.575.575,0,0,0,0,.789,47.787,47.787,0,0,0,7.185,7.138.557.557,0,0,0,.788-.789Z" transform="translate(-1374.023 -240)" fill="#3590ff" opacity="0.26"/>
    <path id="Path_8794" data-name="Path 8794" d="M631.7,88.924a31.312,31.312,0,0,1-2.75-2.552.562.562,0,0,0-.789,0,.575.575,0,0,0,0,.789,31.489,31.489,0,0,0,2.75,2.552.558.558,0,0,0,.789-.789Z" transform="translate(-1374.023 -240)" fill="#3590ff" opacity="0.26"/>
    <path id="Path_8795" data-name="Path 8795" d="M616.912,82.654a18.992,18.992,0,0,1-4.268-5.07.557.557,0,0,0-.961.563,19.7,19.7,0,0,0,4.441,5.3.574.574,0,0,0,.788,0A.562.562,0,0,0,616.912,82.654Z" transform="translate(-1374.023 -240)" fill="#3590ff" opacity="0.26"/>
    <path id="Path_8796" data-name="Path 8796" d="M625.409,90.958q-3.261-2.953-6.237-6.2c-.484-.53-1.273.258-.789.789q2.973,3.251,6.237,6.2C625.15,92.224,625.939,91.442,625.409,90.958Z" transform="translate(-1374.023 -240)" fill="#3590ff" opacity="0.26"/>
    <path id="Path_8797" data-name="Path 8797" d="M609.867,82.136a6.955,6.955,0,0,0-1.451-1.862.569.569,0,0,0-.789,0,.562.562,0,0,0,0,.789,6.839,6.839,0,0,1,.729.789,7.245,7.245,0,0,1,.55.848.561.561,0,0,0,.762.2A.574.574,0,0,0,609.867,82.136Z" transform="translate(-1374.023 -240)" fill="#3590ff" opacity="0.26"/>
    <path id="Path_8798" data-name="Path 8798" d="M617.177,89.884a7.428,7.428,0,0,1-1.087-1.107L614.9,87.445c-.795-.888-1.591-1.776-2.379-2.664-.478-.537-1.266.252-.789.789q1.223,1.372,2.452,2.744l1.193,1.332a8.266,8.266,0,0,0,1.246,1.206.561.561,0,0,0,.762-.2A.575.575,0,0,0,617.177,89.884Z" transform="translate(-1374.023 -240)" fill="#3590ff" opacity="0.26"/>
    <path id="Path_8799" data-name="Path 8799" d="M622.075,95.114q-1.074-1.1-2.048-2.306a.563.563,0,0,0-.789,0,.574.574,0,0,0,0,.789q.975,1.2,2.048,2.306a.558.558,0,0,0,.789-.789Z" transform="translate(-1374.023 -240)" fill="#3590ff" opacity="0.26"/>
    <path id="Path_8800" data-name="Path 8800" d="M607.593,86.484a50.279,50.279,0,0,1-2.949-4.116.568.568,0,0,0-.762-.2.561.561,0,0,0-.2.762c.968,1.5,2.015,2.943,3.122,4.341a.555.555,0,0,0,.788,0A.574.574,0,0,0,607.593,86.484Z" transform="translate(-1374.023 -240)" fill="#3590ff" opacity="0.26"/>
    <path id="Path_8801" data-name="Path 8801" d="M612.862,92.2a18.563,18.563,0,0,1-2.989-3.645.557.557,0,0,0-.961.563,19.551,19.551,0,0,0,3.168,3.87.569.569,0,0,0,.789,0A.574.574,0,0,0,612.862,92.2Z" transform="translate(-1374.023 -240)" fill="#3590ff" opacity="0.26"/>
    <path id="Path_8802" data-name="Path 8802" d="M607.382,91.117c-.822-.371-1.863-.822-1.823-1.876a1.469,1.469,0,0,0-.437-1.312,2.365,2.365,0,0,0-1.313-.424,1.533,1.533,0,0,1-.457-.106.389.389,0,0,1-.152-.106v-.007c0-.179.212-.411.251-.59a.946.946,0,0,0-.1-.722c-.265-.444-.855-.557-1.312-.716-.564-.192-1.127-.391-1.69-.583-.676-.232-.975.842-.3,1.074.544.186,1.081.371,1.624.563.067.02.444.186.63.239a1.833,1.833,0,0,0-.113.239c-.417.968.411,1.663,1.306,1.8.225.033.749,0,.908.205.106.139.013.471.013.623a2.04,2.04,0,0,0,.126.716,3.811,3.811,0,0,0,2.253,1.955.574.574,0,0,0,.763-.2A.539.539,0,0,0,607.382,91.117Z" transform="translate(-1374.023 -240)" fill="#3590ff" opacity="0.26"/>
    <path id="Path_8803" data-name="Path 8803" d="M601.7,164.4a60.388,60.388,0,0,0,5.269,18.849c2.737,5.892,6.574,11.472,13.387,13.971a29.616,29.616,0,0,0,9.743,1.75c5.806.755,11.538-.007,17.251-.617a57.059,57.059,0,0,1,19.227.842c1.809.411,3.605.862,5.4,1.326,11.069,3.333,21.9,7.893,33.582,8.085a36.952,36.952,0,0,0,31.25-16.3c7.7-11.366,7.886-25.92,3.989-38.844a72.238,72.238,0,0,0-20.651-32.1c-21.129-19.287-55.38-27.379-82.215-16.211a61.212,61.212,0,0,0-27.929,22.984A55.515,55.515,0,0,0,601.7,164.4Z" transform="translate(-1374.023 -240)" fill="#d0e4ff"/>
    <path id="Path_8804" data-name="Path 8804" d="M621.6,116.136a118.9,118.9,0,0,0-.225,13.136c.152,8.172,1.153,16.476,4.367,24.058a38.422,38.422,0,0,0,15.025,17.6c1.7,1.1,5.236,2.293,5.514,4.447a47.705,47.705,0,0,1-.145,6.873q-.16,7.107-.319,14.209a1.146,1.146,0,0,0,.517,1.054,1.287,1.287,0,0,0,1.4.948,58.667,58.667,0,0,1,24.542,2.949c7.523,2.625,14.555,6.7,22.594,7.589a1.514,1.514,0,0,0,1.352-2.413c0-.053.006-.106.006-.165-.165-2.294-.324-4.593-.49-6.887a38.264,38.264,0,0,1-.351-6.117c2.154,1.624,3.559,5.243,4.613,7.4,1.4,2.849,2.644,5.772,3.883,8.688a1.372,1.372,0,0,0,.656.716,1.537,1.537,0,0,0,1.419,2,39.635,39.635,0,0,0,17.265-3.731,1.55,1.55,0,0,0,.159-2.684c-3.944-16.026-10.571-32.7-25.821-40.992-14.521-7.894-32.436-7.483-45.7-18.014a40.367,40.367,0,0,1-12.944-17.49,35.125,35.125,0,0,1-2.015-10.511c-.079-1.531-.324-3.215-1.623-4.216-1.485-1.146-3.818-.961-5.588-1.113C626.668,113.213,622.009,111.828,621.6,116.136Z" transform="translate(-1374.023 -240)" fill="#f35c6c"/>
    <path id="Path_8805" data-name="Path 8805" d="M660.018,132.062a48.084,48.084,0,0,1,4.858-9.133c1.445-2.14,3.333-5.448,6.3-5.494,1.57-.026,3.141.981,4.467,1.7A35.8,35.8,0,0,1,680.185,122a8.307,8.307,0,0,1,3.559,7.091,25.023,25.023,0,0,1-.762,4.746,11.589,11.589,0,0,0-.444,2.465,3.323,3.323,0,0,0,.159,1.193,2.43,2.43,0,0,0,.312.272,4.482,4.482,0,0,1,4.672-3.42A4.915,4.915,0,0,1,692,138.657a6.263,6.263,0,0,1-2.955,6.077,9.576,9.576,0,0,1-6.4,1.266,16.117,16.117,0,0,0-.908,5.806c-.112,2.644-.126,5.308-.338,7.94a5.535,5.535,0,0,1-2.425,4.659,11.68,11.68,0,0,1-6.694,1.352c-3.539-.312-7.006-4.984-6.873-7.118a79.6,79.6,0,0,1,1.445-10.485c-1.16-.451-2.327-.9-3.486-1.352-2.413-.941-5.07-2.048-5.66-4.851C657.055,138.855,658.884,134.9,660.018,132.062Z" transform="translate(-1374.023 -240)" fill="#f7c14e"/>
    <path id="Path_8806" data-name="Path 8806" d="M666.625,148.359c-.106.9-.205,1.8-.311,2.7a.188.188,0,0,0,.2.219,25.307,25.307,0,0,0,4.878-.729c.795-.2,1.584-.438,2.359-.716a4.469,4.469,0,0,0,1.9-1.047.172.172,0,0,0-.013-.252.182.182,0,0,0-.179-.126q-4.324.02-8.642-.351A.208.208,0,0,0,666.625,148.359Z" transform="translate(-1374.023 -240)" fill="#f35c6c"/>
    <path id="Path_8807" data-name="Path 8807" d="M665.876,121.272c.305-.45.6-.908.882-1.378a.153.153,0,0,1,.06-.033.354.354,0,0,1,.285.019.391.391,0,0,1,.185.213.175.175,0,0,1,.013.059.358.358,0,0,1,.444.02.332.332,0,0,1,.087.126c.351.113.7.232,1.053.345a.54.54,0,0,1,.153.079,19.139,19.139,0,0,1,12.884,5.037.374.374,0,0,1-.4.616.313.313,0,0,1-.364.02c-4.885-2.737-10.976-1.272-15.734-4.334A6.371,6.371,0,0,0,665.876,121.272Z" transform="translate(-1374.023 -240)" fill="#f35c6c"/>
    <path id="Path_8808" data-name="Path 8808" d="M667.48,121c3.129,1.345,6.621,1.464,9.789,2.677a11.428,11.428,0,0,1,2.36,1.246,12.118,12.118,0,0,1,1.915,6.475,24.813,24.813,0,0,1-.424,4.534c-.159,1.067-.086,2.24.994,2.823,2.187,1.186,3.294-1.909,5.011-3.228a6.977,6.977,0,0,1,2.83.272,5.521,5.521,0,0,1,1.676,3.135c.345,2.406-1.69,4.288-3.638,5.328a9.582,9.582,0,0,1-3.148,1.008,14.761,14.761,0,0,0-2.313.172c-1.273.391-1.631,1.578-1.67,2.8-.093,2.525,1.61,6.541,4.752,5.189a20.536,20.536,0,0,0,6.442-5.235,17.262,17.262,0,0,0,5.832-6.118,10.822,10.822,0,0,0,1.292-5.474c-.059-1.385-.252-2.326.4-3.612a17.336,17.336,0,0,0,.981-2.379c1.153-3.553.9-7.4-1.67-10.267a12.88,12.88,0,0,0-3.97-2.9,17.47,17.47,0,0,0-7.655-3.745,16.172,16.172,0,0,0-6.33-6.051c-4.8-2.538-11.81-3.029-15.879,1.166A7.4,7.4,0,0,0,667.48,121Z" transform="translate(-1374.023 -240)" fill="#3590ff"/>
    <path id="Path_8809" data-name="Path 8809" d="M642.276,164.279a3.261,3.261,0,0,0-2.36-.617,1.42,1.42,0,0,0-.828,1.995,3.736,3.736,0,0,1,.358,1.326c-.007.537-.16,1.067-.186,1.6a2.3,2.3,0,0,0,1.067,2.213c.451.272.968.438,1.438.676q.676.339,1.312.736a8.86,8.86,0,0,1,2.426,2.207c.013.013.02.027.033.04.027.6,1.034.557,1.12-.106C647.153,170.489,645.742,166.327,642.276,164.279Z" transform="translate(-1374.023 -240)" fill="#003b98"/>
    <path id="Path_8810" data-name="Path 8810" d="M696.662,203.4c-.173-1.325-.332-2.651-.451-3.983a33.31,33.31,0,0,1,.139-7.787c.365-2.472.789-5.3-.948-7.383a1.772,1.772,0,0,0-2.313-.577A1.248,1.248,0,0,0,692,184.4a3.552,3.552,0,0,0-.133,1.471c0,.259,0,.511.007.769-.716,3.718-1.69,7.41-4.149,10.4a2.746,2.746,0,0,0-.835,2.711c.311.815,1.087,1.252,1.524,1.968.471.756-.086,1.518-.484,2.174a3.574,3.574,0,0,0-.689,2.585,3.535,3.535,0,0,0,2.1,2.306,15.258,15.258,0,0,0,3.493,1.1,4.414,4.414,0,0,0,3.327-.358,2.8,2.8,0,0,0,.954-2.459C697.072,205.847,696.814,204.614,696.662,203.4Z" transform="translate(-1374.023 -240)" fill="#003b98"/>
    <path id="Path_8811" data-name="Path 8811" d="M673.22,168.891a12.569,12.569,0,0,1-5.15-.921,5.17,5.17,0,0,1-2.021-1.239c-.511-.59-.8-1.352-1.266-1.982-.418-.576-1.385-.02-.961.564.5.695.842,1.5,1.392,2.16a5.854,5.854,0,0,0,2.273,1.465,13.675,13.675,0,0,0,5.726,1.08C673.936,169.985,673.942,168.872,673.22,168.891Z" transform="translate(-1374.023 -240)" fill="#003b98"/>
    <path id="Path_8812" data-name="Path 8812" d="M629.438,97.552c.119.292.239.583.371.868.093-.471.206-.941.3-1.418a79.079,79.079,0,0,0,8.715-8.079,1.188,1.188,0,0,1,.5,1.352A114.974,114.974,0,0,0,636.3,109.5c-.106,1.525-.172,3.056-.351,4.573a12.357,12.357,0,0,1-.411,2.579,2.613,2.613,0,0,1-.968,1.484c-1.219.961-2.936.948-4.414.908a12.206,12.206,0,0,1-4.109-.716c-.251-.079-.5-.165-.755-.265a4.183,4.183,0,0,1-2.366-2.081,2.757,2.757,0,0,1-.173-.55,2.66,2.66,0,0,1-.165-.5c-.67-3.26-.564-6.879-.835-10.2-.047-.6-.1-1.187-.159-1.783A80.633,80.633,0,0,0,629.438,97.552Z" transform="translate(-1374.023 -240)" fill="#f7c14e"/>
    <path id="Path_8813" data-name="Path 8813" d="M629.392,97.426c-.047.292.218.417.271.669.027.133-.006.259.08.378a.4.4,0,0,0,.292.172,1.332,1.332,0,0,0,.828-.378c.285-.205.563-.424.828-.656a41.485,41.485,0,0,0,3.142-3.247c.55-.6,1.1-1.186,1.65-1.783.418-.451,1.127-1.007.935-1.7a.145.145,0,0,0-.106-.106.154.154,0,0,0-.239-.04c-1.418,1.2-2.83,2.406-4.248,3.605-.623.523-1.24,1.054-1.863,1.577-.318.272-.629.537-.947.8C629.789,96.909,629.445,97.115,629.392,97.426Z" transform="translate(-1374.023 -240)" fill="#f35c6c"/>
    <path id="Path_8814" data-name="Path 8814" d="M681.418,124.275c-1.206-1.982-3.327-3.042-5.4-3.89-2.24-.915-4.712-1.551-6.714-2.95a4.942,4.942,0,0,1-1.935-2.366c-.325-.961-.259-2.061-.849-2.929a2.181,2.181,0,0,0-2.75-.729,2.15,2.15,0,0,0-1.067,2.406,8.41,8.41,0,0,0,1.312,4.433,8.774,8.774,0,0,0,3.977,3.288,27.27,27.27,0,0,0,5.355,1.451,14.217,14.217,0,0,1,5.3,1.8c1.856,1.279,2.333,3.533,2.73,5.607.073.385.61.318.716,0A7.322,7.322,0,0,0,681.418,124.275Z" transform="translate(-1374.023 -240)" fill="#003b98"/>
    <path id="Path_8815" data-name="Path 8815" d="M676.574,107.222a10.636,10.636,0,0,0-2.791.312.375.375,0,0,0-.258.457.37.37,0,0,0,.457.258,9.748,9.748,0,0,1,2.592-.285.375.375,0,0,0,.371-.371A.371.371,0,0,0,676.574,107.222Z" transform="translate(-1374.023 -240)" fill="#003b98"/>
    <path id="Path_8816" data-name="Path 8816" d="M675.666,109.144a.335.335,0,0,0-.266-.106c-.278.02-.55.047-.828.066a.4.4,0,0,0-.265.106.367.367,0,0,0-.106.266.393.393,0,0,0,.106.265.333.333,0,0,0,.265.106c.278-.02.55-.047.828-.067a.392.392,0,0,0,.266-.106.368.368,0,0,0,.106-.265A.387.387,0,0,0,675.666,109.144Z" transform="translate(-1374.023 -240)" fill="#003b98"/>
    <path id="Path_8817" data-name="Path 8817" d="M689.444,114.214a1.687,1.687,0,0,0-.643-.3,7.166,7.166,0,0,0-1.345-.325.447.447,0,0,0-.365.106.377.377,0,0,0-.212.431c.166.954.338,1.909.5,2.863a.375.375,0,0,0,.623.166A7.738,7.738,0,0,0,689.438,115C689.544,114.744,689.676,114.446,689.444,114.214Z" transform="translate(-1374.023 -240)" fill="#003b98"/>
    <path id="Path_8818" data-name="Path 8818" d="M698.63,126.786a.285.285,0,0,0-.066-.125.246.246,0,0,0-.106-.093.386.386,0,0,0-.285-.04.354.354,0,0,0-.219.172c-.093.159-.186.325-.278.484a.386.386,0,0,0-.04.285.288.288,0,0,0,.066.126.246.246,0,0,0,.106.093.4.4,0,0,0,.285.04.359.359,0,0,0,.219-.173c.093-.159.185-.324.278-.484A.355.355,0,0,0,698.63,126.786Z" transform="translate(-1374.023 -240)" fill="#003b98"/>
    <path id="Path_8819" data-name="Path 8819" d="M698.955,128.5a.369.369,0,0,0-.265-.106.434.434,0,0,0-.266.106c-.278.279-.55.557-.828.829a.381.381,0,0,0-.106.265.394.394,0,0,0,.106.265.365.365,0,0,0,.265.106.431.431,0,0,0,.265-.106c.279-.278.55-.557.829-.828a.386.386,0,0,0,0-.531Z" transform="translate(-1374.023 -240)" fill="#003b98"/>
    <path id="Path_8820" data-name="Path 8820" d="M623.507,89.977c2.6-.941,3.963,2.015,4.732,3.943a25.237,25.237,0,0,1,1.04,3.241c.053.132.106.258.159.391a79.552,79.552,0,0,1-7.827,5.382c-.225-2.472-.477-4.944-.577-7.416C620.948,93.49,621.293,90.786,623.507,89.977Z" transform="translate(-1374.023 -240)" fill="#f7c14e"/>
    <path id="Path_8821" data-name="Path 8821" d="M625.369,64.739c-.106-.073-.212-.139-.318-.212a3.234,3.234,0,0,0,.3-1.047.761.761,0,0,0-.245-.756c-.279-.179-.63-.027-.922.046-.338.08-.682.166-1.02.245a.722.722,0,0,1-.06-.272.348.348,0,0,0-.212-.318.418.418,0,0,0-.159-.192.381.381,0,0,0-.451.06,7.079,7.079,0,0,0-1.915,2.479c-.047.113-.086.225-.126.345q2.724-.07,5.448-.079A1.084,1.084,0,0,0,625.369,64.739Z" transform="translate(-1374.023 -240)" fill="#f7c14e"/>
    <path id="Path_8822" data-name="Path 8822" d="M621.008,67.237a2.2,2.2,0,0,0,1.385-.007c.093-.026.179-.06.272-.086a5.139,5.139,0,0,0,.835-.278,9.463,9.463,0,0,0,1.093-.557,1.917,1.917,0,0,0,.245-.159c-1.557.013-3.108.04-4.665.079A1.313,1.313,0,0,0,621.008,67.237Z" transform="translate(-1374.023 -240)" fill="#f7c14e"/>
    <path id="Path_8823" data-name="Path 8823" d="M625.369,66.012a.674.674,0,0,0,.47-.6.624.624,0,0,0-.132-.378q-2.724.01-5.448.079a2.466,2.466,0,0,0-.08,1.113c1.558-.04,3.109-.066,4.666-.079l.007-.007A2.362,2.362,0,0,0,625.369,66.012Z" transform="translate(-1374.023 -240)" fill="#fbddb1"/>
    <path id="Path_8824" data-name="Path 8824" d="M694.673,144.707c-1.59,1.969-4.049,2.943-5.706,4.852a7.434,7.434,0,0,1-2.79,2.465,4.679,4.679,0,0,1-3.493-.059c-.663-.272-.948.8-.3,1.073a5.6,5.6,0,0,0,3.817.146,6.682,6.682,0,0,0,3.129-2.353,15.377,15.377,0,0,1,3.008-2.7,14.578,14.578,0,0,0,3.1-2.644C695.906,144.939,695.124,144.151,694.673,144.707Z" transform="translate(-1374.023 -240)" fill="#003b98"/>
    <path id="Path_8825" data-name="Path 8825" d="M690,134.859a5.945,5.945,0,0,0-5.746,2.525.557.557,0,1,0,.961.564,4.762,4.762,0,0,1,4.487-2.015.573.573,0,0,0,.682-.391A.559.559,0,0,0,690,134.859Z" transform="translate(-1374.023 -240)" fill="#003b98"/>
  </g>
</svg>
