<svg xmlns="http://www.w3.org/2000/svg" width="197.118" height="126.052" viewBox="0 0 197.118 126.052">
  <g id="Group_289" data-name="Group 289" transform="translate(270.141 161)">
    <path id="Path_8853" data-name="Path 8853" d="M1247.98,107.994c-6.26-13.535-22.5-24.532-38.78-18.331-16.09,6.458-21.49,22.513-37.8,28.2a33.165,33.165,0,0,1-7.54,1.638c-42,4.343-55.72,35.554-34.91,59.634a49.429,49.429,0,0,0,24.53,15.257C1230.97,215.347,1263.47,141.713,1247.98,107.994Z" transform="translate(-1374.023 -240)" fill="#d0e4ff"/>
    <path id="Path_8854" data-name="Path 8854" d="M1275.93,134.868c-21.32-6.524-43.37-5.964-65.11-3.8a20.737,20.737,0,0,0-3.63-.816.485.485,0,0,0-.34.822c.09.077.2.155.29.226a5.8,5.8,0,0,0-1.02.03,3,3,0,0,0-.56.113c-.78-.208-1.57-.387-2.37-.53a.484.484,0,0,0-.37.882c.06.035.12.077.18.113-.46.053-.9.107-1.36.155a24.525,24.525,0,0,0-4.58-.179.482.482,0,0,0-.37.78c-.08.012-.15.018-.22.03a28.092,28.092,0,0,0-4.42-.208.536.536,0,0,0-.48.423c-.54-.018-1.09-.012-1.64.024a.515.515,0,0,0-.45.685c-.3.041-.6.089-.91.131a4.847,4.847,0,0,0-2.9.172.574.574,0,0,0-.14.084,29.354,29.354,0,0,0-3.82-.572.485.485,0,0,0-.24.9c.25.119.49.244.73.375l-.05.006h-.02a5.445,5.445,0,0,1-2.5-1.257.492.492,0,0,0-.68,0,.476.476,0,0,0,0,.679c.08.071.16.131.24.2-.35-.048-.69-.09-1.03-.138-.41-.053-.57.447-.39.745a34.583,34.583,0,0,0-3.67-.024c-.51.024-.69.858-.13.948.1.017.2.035.3.059-.59-.042-1.18-.077-1.76-.113a1.031,1.031,0,0,0-1.02.381,62.618,62.618,0,0,0-8.78.733.467.467,0,0,0-.33.62q-.915.1-1.83.268a.483.483,0,0,0-.21.8c.11.1.23.208.35.31-.06.018-.11.041-.17.059-.26.03-.51.06-.78.09l-.16-.03a.585.585,0,0,0-.25,0,5.538,5.538,0,0,1-1.73-1.281c-.42-.459-1.1.226-.68.679a6.878,6.878,0,0,0,.95.84c-1.26.143-2.51.28-3.77.411a.486.486,0,0,0-.41.727c0,.012.01.024.02.042l-3.82-.59a.488.488,0,0,0-.59.339.48.48,0,0,0,.33.6l1.84.28c-.23.066-.46.131-.69.2-.06-.018-.12-.03-.18-.048a.5.5,0,0,0-.6.34.724.724,0,0,0,0,.208,30.43,30.43,0,0,0-6.07,1.132c-.02.006-.04.018-.06.024a17.594,17.594,0,0,0-3.43.608.526.526,0,0,0-.35.512,24.228,24.228,0,0,0-4.57,1.305.487.487,0,0,0,0,.929c.07.024.15.042.22.059-1.71.68-3.42,1.4-5.1,2.163-.44.2-.87.4-1.31.6a.4.4,0,0,0-.24.447,151.552,151.552,0,0,0-24.73,13.761c-1.09.751-.12,2.848.97,2.1.11-.077.23-.155.35-.238,2.41,11.164,7.73,20.946,15.07,27.88.48.453,1.31-.012,1.42-.726a61.145,61.145,0,0,0,.66-10.116,10.719,10.719,0,0,0,4.7,2.025,9.562,9.562,0,0,0,3.37-.053c1.54-.3,2.99-1.221,4.54-1.352,1.57-.132,3.08.661,4.53,1.334,1.51.7,3.02,1.412,4.52,2.115,2.95,1.364,5.9,2.716,8.86,4.015,11.6,5.07,23.61,9.365,35.94,9.961,12.5.608,24.35-3.616,36.05-8.7A87.517,87.517,0,0,0,1241.49,183a55.843,55.843,0,0,0,12.17-12.188c8.07-10.771,14-23.836,22.66-33.94A1.314,1.314,0,0,0,1275.93,134.868Z" transform="translate(-1374.023 -240)" fill="#68cd9f"/>
    <path id="Path_8855" data-name="Path 8855" d="M1249.23,148.027a3.019,3.019,0,0,0-2.2-.369,9.884,9.884,0,0,0-2.18.691q-1.065.429-2.1.935a21.722,21.722,0,0,0-3.74,2.3,14.338,14.338,0,0,0-3.35,3.628.421.421,0,0,0,.03.524.479.479,0,0,0,.45.6,5.1,5.1,0,0,0,2.1-.4,6.254,6.254,0,0,0,.93-.524,2.281,2.281,0,0,1,.8-.4,5.281,5.281,0,0,1,1.1.066,4.747,4.747,0,0,0,.97-.048,5.082,5.082,0,0,0,1.76-.595,4.951,4.951,0,0,0,1.42-1.192,4.225,4.225,0,0,1,.3-.387.532.532,0,0,1,.47-.125c.17.006.33.012.49.006a.8.8,0,0,0,.12-.006c.12-.006.24-.012.37-.03a4.254,4.254,0,0,0,1.86-.733.783.783,0,0,0,.4-.774.632.632,0,0,0-.22-.381,4.675,4.675,0,0,0,.45-.9C1249.69,149.273,1249.86,148.492,1249.23,148.027Z" transform="translate(-1374.023 -240)" fill="#76aa9e"/>
    <path id="Path_8856" data-name="Path 8856" d="M1183.45,146.7a24.112,24.112,0,0,0-2.19-1.185,16.947,16.947,0,0,0-2.3-1.233c-3.8-1.6-8.03-1.341-12.07-1.5a.866.866,0,0,0-.93.816c-.51.495-.58,1.454.33,1.609a9.414,9.414,0,0,1,5.23,2.859c1.04,1.043,2.2,2.1,3.76,2.169.82.036,1.48-.429,2.28-.465a8.339,8.339,0,0,1,2.58.8c1.29.394,2.89.364,3.75-.851A2.171,2.171,0,0,0,1183.45,146.7Z" transform="translate(-1374.023 -240)" fill="#76aa9e"/>
    <path id="Path_8857" data-name="Path 8857" d="M1204.94,141.135c-.65-.489-1.49-.763-2.19-1.186a17.173,17.173,0,0,0-2.3-1.233c-3.81-1.6-8.04-1.34-12.07-1.5a.86.86,0,0,0-.93.816c-.52.494-.58,1.454.32,1.608a9.415,9.415,0,0,1,5.24,2.86c1.04,1.042,2.2,2.1,3.75,2.168.83.036,1.49-.428,2.29-.464a8.339,8.339,0,0,1,2.58.8c1.29.393,2.89.363,3.75-.852A2.171,2.171,0,0,0,1204.94,141.135Z" transform="translate(-1374.023 -240)" fill="#76aa9e"/>
    <path id="Path_8858" data-name="Path 8858" d="M1159.63,154.9c-.64-.488-1.49-.762-2.18-1.185a17.574,17.574,0,0,0-2.3-1.233c-3.81-1.6-8.04-1.341-12.08-1.5a.852.852,0,0,0-.92.817c-.52.494-.59,1.453.32,1.608a9.41,9.41,0,0,1,5.23,2.86c1.05,1.042,2.2,2.1,3.76,2.168.83.036,1.49-.429,2.29-.465a8.308,8.308,0,0,1,2.57.8c1.29.393,2.89.363,3.75-.852A2.154,2.154,0,0,0,1159.63,154.9Z" transform="translate(-1374.023 -240)" fill="#76aa9e"/>
    <path id="Path_8859" data-name="Path 8859" d="M1212.56,135.916a1.559,1.559,0,0,1-1.56-1.555V123.1a1.555,1.555,0,1,1,3.11,0v11.259A1.557,1.557,0,0,1,1212.56,135.916Z" transform="translate(-1374.023 -240)" fill="#00215c"/>
    <path id="Path_8860" data-name="Path 8860" d="M1221.34,126.867a.665.665,0,0,0-.36-.566.7.7,0,0,0-.63-.5,7.194,7.194,0,0,0-7.28,4.212,4.255,4.255,0,0,0-3.18.828,3.9,3.9,0,0,0-1.24,1.519c-.02.042-.04.089-.06.131a4.881,4.881,0,0,0-3.92.7,4.329,4.329,0,0,0-1.51,3.819,4.74,4.74,0,0,0-4.19,1.59,3.53,3.53,0,0,0-.62,3.253,4.385,4.385,0,0,0-3.95,2.854,3.532,3.532,0,0,0,.3,3.312c.79.864,2.37.679,3.35.3a9.024,9.024,0,0,1,1.61-.739,4.464,4.464,0,0,0,1.62-.429,3.729,3.729,0,0,0,1.2-1.168c.06-.1.12-.2.18-.309.01-.03.03-.072.04-.108a.639.639,0,0,1,.09.006,2.315,2.315,0,0,0,.85-.119,4.183,4.183,0,0,0,1.93-1.257q3.165-1.331,6.34-2.663c1.03-.435,2.06-.864,3.09-1.3.95-.4,1.92-.751,2.83-1.234a4.849,4.849,0,0,0,2.05-1.989,11.246,11.246,0,0,0,.91-2.842A25.971,25.971,0,0,0,1221.34,126.867Z" transform="translate(-1374.023 -240)" fill="#003b98"/>
    <path id="Path_8861" data-name="Path 8861" d="M1219.08,97.658c-.45-4.254-1.09-8.453-1.93-12.54q-.315-1.519-.66-3.014a8.251,8.251,0,0,0-.77-2.234c-.94-1.561-2.25-.8-3.08.578a24.87,24.87,0,0,0-2,4.837c-.41,1.275-.76,2.609-1.06,3.968a95.94,95.94,0,0,0-4.68,20.136c-.46,3.711-.64,7.959.82,11.17a8.637,8.637,0,0,0,6.06,5.2c2.33.423,4.51-1.132,5.95-4.14,1.52-3.158,2.02-7.131,2.07-11.069A115.094,115.094,0,0,0,1219.08,97.658Z" transform="translate(-1374.023 -240)" fill="#003b98"/>
    <path id="Path_8862" data-name="Path 8862" d="M1220.5,100.976c-.32-1.882-.75-3.717-1.14-5.558q-.6-2.833-1.21-5.665c-.18-.876-1.13-1.114-1.24,0a18.34,18.34,0,0,0,.29,4.26,37.084,37.084,0,0,1,.16,4.48c0,1.489.12,2.925.23,4.4a15.268,15.268,0,0,1-.26,4.224,40.257,40.257,0,0,0-.61,4.015,33.176,33.176,0,0,1-.49,4.033,11.641,11.641,0,0,1-2.55,5.391,4.659,4.659,0,0,1-5.11,1.526c-.64-.233-1.06.971-.62,1.757a2.647,2.647,0,0,0,.57.733.733.733,0,0,0,.16.238,2.538,2.538,0,0,0,.97.6,7.274,7.274,0,0,0,2.17.911,4.086,4.086,0,0,0,2.94-.578A9.2,9.2,0,0,0,1219,120.4a45.474,45.474,0,0,0,1.65-9.425A38.482,38.482,0,0,0,1220.5,100.976Z" transform="translate(-1374.023 -240)" fill="#00215c"/>
    <path id="Path_8863" data-name="Path 8863" d="M1240.99,142.6q-11.055-.982-22.14-1.424-3.18-.124-6.37-.208a.573.573,0,0,0-.54.3c-5.81,2.436-11.61,4.879-17.38,7.4-5.93,2.591-11.84,5.26-17.66,8.084-5.79,2.8-11.5,5.755-17.08,8.936s-11.03,6.565-16.29,10.247c-4.18,2.931-8.24,6.047-12.13,9.353-.17-.53-.32-1.072-.44-1.614-.17-.811-1.41-.465-1.23.339a19.632,19.632,0,0,0,.61,2.175c-.63.554-1.27,1.108-1.9,1.674-.59.524-1.16,1.048-1.74,1.584-.61.566.3,1.472.91.912,1.06-.983,2.14-1.942,3.22-2.89,2.79,6.583,8.9,11.325,15.5,13.941a53.7,53.7,0,0,0,13.34,3.175,66.913,66.913,0,0,0,14.24.173,68.1,68.1,0,0,0,14.04-2.836c2.18-.691,4.3-1.406,5.95-3.062,1.76-1.775,3.35-3.759,4.99-5.642q10.095-11.537,20.1-23.162,10.035-11.661,19.98-23.413c.82-.977,1.65-1.954,2.47-2.925A.664.664,0,0,0,1240.99,142.6Z" transform="translate(-1374.023 -240)" fill="#dfecff"/>
    <path id="Path_8864" data-name="Path 8864" d="M1124.01,158.662a1.559,1.559,0,0,1-1.56-1.555v-11.26a1.555,1.555,0,0,1,3.11,0v11.26A1.557,1.557,0,0,1,1124.01,158.662Z" transform="translate(-1374.023 -240)" fill="#00215c"/>
    <path id="Path_8865" data-name="Path 8865" d="M1219.49,124.889a8.623,8.623,0,0,0-4.3,1.591,8.4,8.4,0,0,0-1.63,1.543c-.23.291-.43.619-.66.911s-.54.2-.87.232a4.341,4.341,0,0,0-3.52,2.455,1.885,1.885,0,0,1-.12.256,1.946,1.946,0,0,1-.52-.048,4.855,4.855,0,0,0-1.06.078,5.24,5.24,0,0,0-1.96.78,5.5,5.5,0,0,0-2.39,3.318,4.851,4.851,0,0,0-3.46,1.424,6.477,6.477,0,0,0-1.74,3.759,4.081,4.081,0,0,0-2.78,2.783.643.643,0,0,0,1.24.339,2.783,2.783,0,0,1,2.3-1.978.648.648,0,0,0,.47-.619,5.327,5.327,0,0,1,1.32-3.295,3.525,3.525,0,0,1,2.99-1.132.66.66,0,0,0,.82-.619,4.114,4.114,0,0,1,1.97-2.937,4.045,4.045,0,0,1,1.66-.6c.7-.077,1.48.226,2.04-.345a3.425,3.425,0,0,0,.48-.829,3.193,3.193,0,0,1,.64-.78,2.9,2.9,0,0,1,1.68-.727,3.8,3.8,0,0,0,1.04-.125,1.846,1.846,0,0,0,.88-.739,9.6,9.6,0,0,1,1.29-1.549,7.206,7.206,0,0,1,4.17-1.858.664.664,0,0,0,.65-.644A.632.632,0,0,0,1219.49,124.889Z" transform="translate(-1374.023 -240)" fill="#3590ff"/>
    <path id="Path_8866" data-name="Path 8866" d="M1276.31,93.78h-57.02v39.128h57.02Z" transform="translate(-1374.023 -240)" fill="#8ebeff"/>
    <path id="Path_8867" data-name="Path 8867" d="M1219.15,93.78h79.24a1.234,1.234,0,0,0,1.23-1.239V88.508a1.234,1.234,0,0,0-1.23-1.239h-79.24a1.242,1.242,0,0,0-1.24,1.239v4.033A1.246,1.246,0,0,0,1219.15,93.78Z" transform="translate(-1374.023 -240)" fill="#dfecff"/>
    <path id="Path_8868" data-name="Path 8868" d="M1299.62,89.526h-81.71v.959h81.71Z" transform="translate(-1374.023 -240)" fill="#a6ccff"/>
    <path id="Path_8869" data-name="Path 8869" d="M1243.56,107.923h-21.07V132.9h21.07Z" transform="translate(-1374.023 -240)" fill="#3590ff"/>
    <path id="Path_8870" data-name="Path 8870" d="M1233.03,107.923h-10.54V132.9h10.54Z" transform="translate(-1374.023 -240)" fill="#3590ff"/>
    <path id="Path_8871" data-name="Path 8871" d="M1233.52,107.923h-1V132.9h1Z" transform="translate(-1374.023 -240)" fill="#003b98"/>
    <path id="Path_8872" data-name="Path 8872" d="M1259.68,110.342h-13.09V127.41h13.09Z" transform="translate(-1374.023 -240)" fill="#3590ff"/>
    <path id="Path_8873" data-name="Path 8873" d="M1259.68,118.241h-13.09v1.269h13.09Z" transform="translate(-1374.023 -240)" fill="#8ebeff"/>
    <path id="Path_8874" data-name="Path 8874" d="M1259.68,119.51h-13.09v.637h13.09Z" transform="translate(-1374.023 -240)" fill="#003b98"/>
    <path id="Path_8875" data-name="Path 8875" d="M1259.68,110.342h-13.09v.637h13.09Z" transform="translate(-1374.023 -240)" fill="#003b98"/>
    <path id="Path_8876" data-name="Path 8876" d="M1222.45,107.923h21.16a.406.406,0,0,0,.4-.4v-.792h-21.98v.792A.412.412,0,0,0,1222.45,107.923Z" transform="translate(-1374.023 -240)" fill="#dfecff"/>
    <path id="Path_8877" data-name="Path 8877" d="M1221.8,106.3h22.45a.508.508,0,0,0,.51-.513V105.1h-23.48v.685A.513.513,0,0,0,1221.8,106.3Z" transform="translate(-1374.023 -240)" fill="#dfecff"/>
    <path id="Path_8878" data-name="Path 8878" d="M1244.01,106.309h-21.97v.429h21.97Z" transform="translate(-1374.023 -240)" fill="#a6ccff"/>
    <path id="Path_8879" data-name="Path 8879" d="M1301,93.78h-32.72v39.128H1301Z" transform="translate(-1374.023 -240)" fill="#3590ff"/>
    <path id="Path_8880" data-name="Path 8880" d="M1240.45,132.711h-24.23v3.14h24.23Z" transform="translate(-1374.023 -240)" fill="#3590ff"/>
    <path id="Path_8881" data-name="Path 8881" d="M1243.52,131.7h-21.03v1.007h21.03Z" transform="translate(-1374.023 -240)" fill="#003b98"/>
    <path id="Path_8882" data-name="Path 8882" d="M1239.39,121.172h-12.78v1.007h12.78Z" transform="translate(-1374.023 -240)" fill="#003b98"/>
    <path id="Path_8883" data-name="Path 8883" d="M1237.23,135.851H1213v3.14h24.23Z" transform="translate(-1374.023 -240)" fill="#8ebeff"/>
    <path id="Path_8884" data-name="Path 8884" d="M1234.02,138.99h-24.23v3.14h24.23Z" transform="translate(-1374.023 -240)" fill="#3590ff"/>
    <path id="Path_8885" data-name="Path 8885" d="M1234.02,142.13h9.54v-9.419h-3.11v3.14h-3.22v3.14h-3.21Z" transform="translate(-1374.023 -240)" fill="#003b98"/>
    <path id="Path_8886" data-name="Path 8886" d="M1240.06,96.854c-.72,0-1.43.03-2.14.072-.5.03-1.15.03-1.4.31s-.11.673-.08.953c.02.262.21.435.73.477.68.054,1.41.024,2.1.03.45.006,1.2.1,1.39-.2a1.211,1.211,0,0,0,.12-.447,4.238,4.238,0,0,0,.04-.619C1240.82,97.211,1240.6,96.854,1240.06,96.854Z" transform="translate(-1374.023 -240)" fill="#3590ff"/>
    <path id="Path_8887" data-name="Path 8887" d="M1243.38,99.392c-.71,0-1.43.03-2.14.071-.5.03-1.15.03-1.39.31s-.12.673-.09.953c.03.262.22.435.73.477.69.053,1.42.023,2.1.029.45.006,1.2.1,1.4-.2a1.031,1.031,0,0,0,.11-.447,4.245,4.245,0,0,0,.05-.619A.691.691,0,0,0,1243.38,99.392Z" transform="translate(-1374.023 -240)" fill="#3590ff"/>
    <path id="Path_8888" data-name="Path 8888" d="M1221.44,100.5c-.72,0-1.43.03-2.14.071a.407.407,0,0,0-.08.006v1.764c.48.006.97,0,1.43.006s1.2.1,1.4-.2a1.031,1.031,0,0,0,.11-.447,4.249,4.249,0,0,0,.05-.619A.7.7,0,0,0,1221.44,100.5Z" transform="translate(-1374.023 -240)" fill="#3590ff"/>
    <path id="Path_8889" data-name="Path 8889" d="M1257.09,132.264c-.03-.065-.06-.137-.09-.2-.82-1.418-2.99-2.222-4.75-2.609a2.793,2.793,0,0,0,.27-1.109.607.607,0,0,0,.7-.137,1.437,1.437,0,0,0,.34-1.3.651.651,0,0,0-.45-.447,4.381,4.381,0,0,0-1.06-.131,2.85,2.85,0,0,0-.75-.191,3.667,3.667,0,0,0-2.52.733,9.967,9.967,0,0,0-1.63,1.46,1.988,1.988,0,0,0-1.29.482,4.35,4.35,0,0,0-1.75-1.168,3.9,3.9,0,0,0-2.77.131,6.584,6.584,0,0,0-2,1.5c-3.28.131-6.44,1.483-6.9,5.218-.05.447.12.972.04,1.383-.1.536-.55.714-.92,1.084a7.177,7.177,0,0,0-1.66,2.687,7.65,7.65,0,0,0-.32,3.7,6.2,6.2,0,0,0-1.02,1.889,6.841,6.841,0,0,0,.36,5.391c-.1.167-.19.334-.27.495a2.505,2.505,0,0,0-.13,2.216,1.1,1.1,0,0,0,.11.447,4.336,4.336,0,0,0,1.2,1.417,6.1,6.1,0,0,0,1.56.96c2.1.869,4.84.274,5.87-1.913a3.351,3.351,0,0,0,.17-.423,5.967,5.967,0,0,0,4.69-3.485,5.881,5.881,0,0,0,2.79-.4,15,15,0,0,0,2.33-1.388,6.363,6.363,0,0,0,1.46-.3,9.106,9.106,0,0,0,2.43-.113c1.66-.328,2.56-1.6,3.47-2.919a23.883,23.883,0,0,0,2.63-5.028C1257.94,138.311,1259.83,133.194,1257.09,132.264Z" transform="translate(-1374.023 -240)" fill="#003b98"/>
    <path id="Path_8890" data-name="Path 8890" d="M1166.53,145.15a1.55,1.55,0,0,1-1.55-1.554v-11.26a1.55,1.55,0,1,1,3.1,0V143.6A1.55,1.55,0,0,1,1166.53,145.15Z" transform="translate(-1374.023 -240)" fill="#00215c"/>
    <path id="Path_8891" data-name="Path 8891" d="M1144.46,150.6a1.559,1.559,0,0,1-1.56-1.555V137.781a1.555,1.555,0,1,1,3.11,0V149.04A1.551,1.551,0,0,1,1144.46,150.6Z" transform="translate(-1374.023 -240)" fill="#00215c"/>
    <path id="Path_8892" data-name="Path 8892" d="M1173.05,118.05a50.668,50.668,0,0,0-1.93-7.673c-.21-.619-.43-1.233-.66-1.847a3.943,3.943,0,0,0-.77-1.364c-.94-.953-2.25-.494-3.08.352a12.784,12.784,0,0,0-1.99,2.96,19.278,19.278,0,0,0-1.07,2.431,40.771,40.771,0,0,0-4.68,12.314c-.45,2.27-.63,4.867.83,6.833a8.79,8.79,0,0,0,6.05,3.181,6.549,6.549,0,0,0,5.96-2.532,11.084,11.084,0,0,0,2.06-6.767A42.589,42.589,0,0,0,1173.05,118.05Z" transform="translate(-1374.023 -240)" fill="#003b98"/>
    <path id="Path_8893" data-name="Path 8893" d="M1188.45,139.723a1.557,1.557,0,0,1-1.55-1.555V126.909a1.555,1.555,0,1,1,3.11,0v11.259A1.555,1.555,0,0,1,1188.45,139.723Z" transform="translate(-1374.023 -240)" fill="#00215c"/>
    <path id="Path_8894" data-name="Path 8894" d="M1194.98,107.988a79.865,79.865,0,0,0-1.93-9.681c-.21-.781-.43-1.561-.66-2.329a5.655,5.655,0,0,0-.77-1.722c-.94-1.2-2.26-.619-3.08.447a16.669,16.669,0,0,0-2,3.729,28.01,28.01,0,0,0-1.07,3.062,61.084,61.084,0,0,0-4.68,15.543c-.45,2.865-.63,6.142.83,8.62a8.429,8.429,0,0,0,6.05,4.016c2.34.327,4.52-.87,5.96-3.194a16.679,16.679,0,0,0,2.06-8.543A67.443,67.443,0,0,0,1194.98,107.988Z" transform="translate(-1374.023 -240)" fill="#003b98"/>
    <path id="Path_8895" data-name="Path 8895" d="M1150.84,123.8a51.839,51.839,0,0,0-1.93-7.673c-.21-.62-.43-1.234-.66-1.847a3.936,3.936,0,0,0-.77-1.364c-.94-.954-2.25-.5-3.08.351a12.493,12.493,0,0,0-2,2.961,17.843,17.843,0,0,0-1.06,2.431,41.046,41.046,0,0,0-4.69,12.313c-.45,2.27-.63,4.868.83,6.834a8.794,8.794,0,0,0,6.05,3.181,6.539,6.539,0,0,0,5.96-2.532,11.087,11.087,0,0,0,2.06-6.768A42.55,42.55,0,0,0,1150.84,123.8Z" transform="translate(-1374.023 -240)" fill="#003b98"/>
    <path id="Path_8896" data-name="Path 8896" d="M1252.3,125.86a4.488,4.488,0,0,0-3.48.548,10.986,10.986,0,0,0-1.42,1.275,2.527,2.527,0,0,1-1.3.614,4.515,4.515,0,0,0-5.16-.685,7.426,7.426,0,0,0-1.19.953c-.41.328-1.12.077-1.61.089a5.815,5.815,0,0,0-5.34,3.849,5.715,5.715,0,0,0-.35,1.733c-.01.286.02.56.02.846.01.268-.17.352-.37.519-1.85,1.608-3.43,3.86-3.05,6.44.03.232.21.691.16.828a6.6,6.6,0,0,1-.5.78,7.182,7.182,0,0,0-.53,5.731c.26.781,1.5.447,1.24-.339a5.866,5.866,0,0,1-.02-3.771,6.882,6.882,0,0,1,.86-1.651c.42-.667.09-1.245.03-1.948a5.264,5.264,0,0,1,1.34-3.771,12.3,12.3,0,0,1,1.43-1.43,2.01,2.01,0,0,0,.57-.673,2.441,2.441,0,0,0,.11-1.108,4.6,4.6,0,0,1,4.73-4.748,2.763,2.763,0,0,0,1.94-.28,8.615,8.615,0,0,1,1.31-1.013,3.275,3.275,0,0,1,2.84.1,3.073,3.073,0,0,1,.63.452,1.3,1.3,0,0,0,.42.364,1.279,1.279,0,0,0,.67.012,3.788,3.788,0,0,0,1.97-.936,6.634,6.634,0,0,1,1.7-1.376,3.151,3.151,0,0,1,2.01-.161C1252.76,127.3,1253.1,126.057,1252.3,125.86Z" transform="translate(-1374.023 -240)" fill="#3590ff"/>
    <path id="Path_8897" data-name="Path 8897" d="M1174.29,123.043a33.146,33.146,0,0,0-.97-6.345.647.647,0,0,0-1.17-.155,6.955,6.955,0,0,0-.82,4.015,34.833,34.833,0,0,1-.12,4.456,10.915,10.915,0,0,1-.48,1.966.526.526,0,0,0-.14.257c-.03.131-.06.262-.1.393-.21.542-.45,1.078-.7,1.608-.19.4-.38.8-.58,1.192a8.839,8.839,0,0,1-1.79,1.918,9.32,9.32,0,0,1-2,.637l-2.52.608a.6.6,0,0,0-.12.054.63.63,0,0,0-.62.3.652.652,0,0,0,.24.881,7.164,7.164,0,0,0,3.4.638,7.537,7.537,0,0,0,4.38-1.293,8.752,8.752,0,0,0,1.61-1.156C1174.46,130.591,1174.57,126.385,1174.29,123.043Zm-4.98,10.151a.854.854,0,0,1,.1-.066c.3-.214.61-.429.89-.661a5.55,5.55,0,0,1-.56.489C1169.6,133.039,1169.46,133.122,1169.31,133.194Z" transform="translate(-1374.023 -240)" fill="#00215c"/>
    <path id="Path_8898" data-name="Path 8898" d="M1195.91,114.154c-.24-2.573-.63-5.123-.98-7.673-.08-.62-.16-1.239-.25-1.859a4.067,4.067,0,0,0-.4-1.787c-.71-.983-1.61.072-1.78,1.037a18.914,18.914,0,0,0,.05,3.908c.06,1.293.07,2.591.06,3.884s-.04,2.591-.08,3.884a21.885,21.885,0,0,1-.3,3.533,21.726,21.726,0,0,1-1.33,3.419c-.4,1.091-.44,2.532-1.09,3.45a1.084,1.084,0,0,1-1.13.447,12.483,12.483,0,0,0-1.63-.155,12.675,12.675,0,0,0-3.4.762.918.918,0,0,0-.15,1.484c0,.006.01.006.02.012a.692.692,0,0,0,.29.375,7.678,7.678,0,0,0,5.44,1.37,7,7,0,0,0,4.26-2.973C1196.05,123.728,1196.33,118.688,1195.91,114.154Z" transform="translate(-1374.023 -240)" fill="#00215c"/>
    <path id="Path_8899" data-name="Path 8899" d="M1151.85,127c-.15-1.2-.3-2.4-.45-3.6-.07-.608-.14-1.222-.22-1.829a1.682,1.682,0,0,0-.69-1.287.653.653,0,0,0-.95.387,14.878,14.878,0,0,0-.32,4.939c.03,1.757.11,3.509.11,5.266,0,.81-.02,1.627-.08,2.437a19.113,19.113,0,0,1-1.46,2.424c-.37.537-.73,1.073-1.1,1.615-.28.411-.56,1.042-1.06,1.227a12.546,12.546,0,0,1-1.65.262c-.57.131-1.1.393-1.67.536-.07.018-.15.03-.22.042a3.4,3.4,0,0,1-.65-.125.666.666,0,0,0-.24-.018,2.721,2.721,0,0,1-.33-.155,2.175,2.175,0,0,0-1.72-.262.654.654,0,0,0-.29,1.072,6.868,6.868,0,0,0,4.91,1.805,6.8,6.8,0,0,0,3.11-.947,7.906,7.906,0,0,0,3.15-2.258C1152.72,135.309,1152.33,130.894,1151.85,127Zm-1.3.048c0-.084-.01-.161-.01-.245.04.28.07.554.1.834a.484.484,0,0,0-.08.012C1150.56,127.451,1150.55,127.248,1150.55,127.052Z" transform="translate(-1374.023 -240)" fill="#00215c"/>
    <path id="Path_8900" data-name="Path 8900" d="M1173.37,159.263c-.76-1.948-2.7-2.77-4.68-2.835a8.952,8.952,0,0,0-2.92.4c-.07.023-.15.047-.22.071a1.624,1.624,0,0,0-.53-.191,2.612,2.612,0,0,0-2.2.048c-.1.042-.19.09-.29.137-.03-.018-.06-.042-.1-.065a1.768,1.768,0,0,0-.78-1.365,1.891,1.891,0,0,0-1.57-.172c-.22-.125-.44-.245-.66-.352a.555.555,0,0,1-.04-.119c-.31-.715-1.24-.822-1.92-.882a7.07,7.07,0,0,0-1.05-.006c-.33-.071-.66-.131-1-.172a13.348,13.348,0,0,0-3.74.029,13.151,13.151,0,0,0-1.79.4c-.16.047-.34.113-.54.166a1.648,1.648,0,0,0-.4-.78,1.551,1.551,0,0,0-1.04-.5,4.1,4.1,0,0,0,.01-.607,2.39,2.39,0,0,0,.65-2.127,2.453,2.453,0,0,0-1.45-1.74,3.715,3.715,0,0,0-1.35-.321,1.4,1.4,0,0,0,.11-.965c-.23-1.037-1.24-1.5-2.13-1.847-.39-.149-.78-.28-1.18-.393a14.052,14.052,0,0,0-2.92-2.33,19.5,19.5,0,0,0-7.43-2.371,32.234,32.234,0,0,0-7.61-.1,33.419,33.419,0,0,0-14.4,4.974c-.53.34-1.06.692-1.56,1.061a.675.675,0,0,0-.24.882.715.715,0,0,0,.22.214.511.511,0,0,0-.18.441,58.056,58.056,0,0,0,4.9,17.11,58.892,58.892,0,0,0,9.71,14.72,55.648,55.648,0,0,0,6.44,6.113,8.339,8.339,0,0,0,3.15,1.989.849.849,0,0,0,.76.56,5.822,5.822,0,0,0,4.95-2.281c.25-.328.42-.715.68-1.037a2.489,2.489,0,0,1,1.19-.584,6.443,6.443,0,0,0,2.34-1.465,8.3,8.3,0,0,0,1.47-2.187c.15-.28.33-.649.64-.774.43-.167.93-.09,1.37-.256,1.59-.614,1.53-2.526,2.68-3.509a7.349,7.349,0,0,0,1.68-1.525,2.119,2.119,0,0,0,.19-.429c.32-.256.64-.513.96-.763a2.782,2.782,0,0,0,2.07-.876c.46-.53.76-1.411,1.54-1.519.98-.137,1.95.322,2.94.191a2.358,2.358,0,0,0,2.09-1.787,1.855,1.855,0,0,0-.06-.876,1.221,1.221,0,0,0-.06-.149c.12-.024.23-.048.35-.071a2.93,2.93,0,0,0,1-.34c.46-.28.61-.721.89-1.144a5.634,5.634,0,0,1,2.25-1.632c1.11-.584,2.25-1.126,3.41-1.632,1.04-.459,2.12-.84,3.16-1.3a3.316,3.316,0,0,0,2.03-2.02.81.81,0,0,0,.01-.435A.676.676,0,0,0,1173.37,159.263Z" transform="translate(-1374.023 -240)" fill="#3590ff"/>
    <path id="Path_8901" data-name="Path 8901" d="M1136.92,160.782a9.107,9.107,0,0,1-2.55-.029c1.04-.965,2.12-1.9,3.22-2.806.96-.787-.41-2.145-1.37-1.364a72.012,72.012,0,0,0-8.2,7.9,49.467,49.467,0,0,1,2.23-13.059c.37-1.185-1.49-1.7-1.86-.512a51.237,51.237,0,0,0,.31,31.556c.39,1.174,2.26.668,1.86-.512a49.238,49.238,0,0,1-2.56-14.53c.04-.036.08-.066.12-.107q2.175-2.6,4.59-4.981a.978.978,0,0,0,.18.066,10.4,10.4,0,0,0,4.04.31.966.966,0,0,0-.01-1.931Z" transform="translate(-1374.023 -240)" fill="#003b98"/>
    <path id="Path_8902" data-name="Path 8902" d="M1154.44,160.026a4.2,4.2,0,0,0-1.89,1.34c-.04-.155-.09-.31-.13-.465a6.49,6.49,0,0,0-.52-1.686,1.1,1.1,0,0,0-2.03.805.8.8,0,0,0,.48.637,2.078,2.078,0,0,0,.07.238c.07.263.14.519.22.781.16.607.34,1.215.5,1.823a1.145,1.145,0,0,0,.13.28,51.345,51.345,0,0,0-1.98,7.441c-.26,1.209,1.6,1.727,1.86.512.38-1.793.76-3.586,1.28-5.344.42-1.424.92-3.932,2.52-4.5C1156.12,161.473,1155.62,159.609,1154.44,160.026Z" transform="translate(-1374.023 -240)" fill="#003b98"/>
    <path id="Path_8903" data-name="Path 8903" d="M1137.62,140.891a.807.807,0,0,0-.41-.209c-5.35-1.251-11.33-2.4-16.13,1.049a1.049,1.049,0,0,0,.1,1.74,4.322,4.322,0,0,0-1.3,1.87.964.964,0,0,0,.25.941,1.046,1.046,0,0,1,.11.078,20.41,20.41,0,0,0-2.22,8.966.935.935,0,0,0,.27.691,30.163,30.163,0,0,0-.19,5.117,1.035,1.035,0,0,0,1.41.876,37.062,37.062,0,0,0,.6,8.537c.23,1.221,2.09.7,1.86-.512a29.3,29.3,0,0,1,1.64-17.307c2.47-5.469,7.49-10.7,13.98-9.907C1138.79,142.958,1138.8,141.082,1137.62,140.891Z" transform="translate(-1374.023 -240)" fill="#0044ab"/>
    <path id="Path_8904" data-name="Path 8904" d="M1155.14,153.348l-.16-.018c-1.71-.715-3.78-.185-5.62.4-.52.137-1.03.3-1.54.488a.953.953,0,0,0-1.05.656,17.572,17.572,0,0,0-.7,2.776.968.968,0,0,0,1.76.745c1.53-2.336,4.14-2.723,6.68-3.188.21.018.41.036.62.06C1156.37,155.433,1156.35,153.5,1155.14,153.348Z" transform="translate(-1374.023 -240)" fill="#0044ab"/>
    <path id="Path_8905" data-name="Path 8905" d="M1166.62,156.683a6.628,6.628,0,0,0-3.41,1.085c-1.03.679-.06,2.353.97,1.668a4.741,4.741,0,0,1,2.44-.822C1167.85,158.554,1167.86,156.624,1166.62,156.683Z" transform="translate(-1374.023 -240)" fill="#0044ab"/>
    <path id="Path_8906" data-name="Path 8906" d="M1149.73,185.839a4.552,4.552,0,0,0-3.03-1.149.966.966,0,0,0,0,1.93,2.492,2.492,0,0,1,1.67.584.963.963,0,0,0,1.36-1.365Z" transform="translate(-1374.023 -240)" fill="#8ebeff"/>
    <path id="Path_8907" data-name="Path 8907" d="M1153.9,184.535a1.063,1.063,0,0,0-.58-.441c-.3-.119-.59-.244-.89-.363a.994.994,0,0,0-.75.1.969.969,0,0,0-.44.578,1.016,1.016,0,0,0,.1.744,1.063,1.063,0,0,0,.58.441c.29.119.59.244.89.364a.975.975,0,0,0,.74-.1.948.948,0,0,0,.45-.578A.967.967,0,0,0,1153.9,184.535Z" transform="translate(-1374.023 -240)" fill="#8ebeff"/>
    <path id="Path_8908" data-name="Path 8908" d="M1169.04,174.556c-.39-.149-.78-.292-1.17-.441a.974.974,0,0,0-1.19.673,1,1,0,0,0,.68,1.186c.39.149.78.292,1.17.441a.964.964,0,0,0,1.18-.673A.986.986,0,0,0,1169.04,174.556Z" transform="translate(-1374.023 -240)" fill="#8ebeff"/>
    <path id="Path_8909" data-name="Path 8909" d="M1175.45,176.635a7.088,7.088,0,0,0-2.38-.894.994.994,0,0,0-1.19.673.973.973,0,0,0,.67,1.186,5.472,5.472,0,0,1,1.93.7A.962.962,0,0,0,1175.45,176.635Z" transform="translate(-1374.023 -240)" fill="#8ebeff"/>
    <path id="Path_8910" data-name="Path 8910" d="M1170.84,177.493l-1.35-.179a.963.963,0,0,0-.96.965.987.987,0,0,0,.96.965l1.35.179a.964.964,0,0,0,.96-.965A1,1,0,0,0,1170.84,177.493Z" transform="translate(-1374.023 -240)" fill="#8ebeff"/>
    <path id="Path_8911" data-name="Path 8911" d="M1183.15,158.239a.894.894,0,0,0-.58-.441l-.53-.09a1.1,1.1,0,0,0-.75.1.969.969,0,0,0-.44.578,1.018,1.018,0,0,0,.1.744.9.9,0,0,0,.57.441l.54.09a1.1,1.1,0,0,0,.75-.1.966.966,0,0,0,.34-1.322Z" transform="translate(-1374.023 -240)" fill="#8ebeff"/>
    <path id="Path_8912" data-name="Path 8912" d="M1188.98,159.227a.946.946,0,0,0-.57-.44l-.45-.09a1.059,1.059,0,0,0-.75.1.97.97,0,0,0-.44.577,1.018,1.018,0,0,0,.1.745.94.94,0,0,0,.58.441l.44.089a1.052,1.052,0,0,0,.75-.1.972.972,0,0,0,.44-.578A.925.925,0,0,0,1188.98,159.227Z" transform="translate(-1374.023 -240)" fill="#8ebeff"/>
    <path id="Path_8913" data-name="Path 8913" d="M1204.29,150.173l-.63-.179a.968.968,0,0,0-1.18.673.979.979,0,0,0,.67,1.186l.63.178a.968.968,0,0,0,1.18-.673A.98.98,0,0,0,1204.29,150.173Z" transform="translate(-1374.023 -240)" fill="#8ebeff"/>
    <path id="Path_8914" data-name="Path 8914" d="M1210.53,152.639a1.069,1.069,0,0,0-.45-.578c-.17-.119-.35-.238-.53-.357a.967.967,0,0,0-1.42,1.09,1.123,1.123,0,0,0,.44.578l.54.357a.948.948,0,0,0,.74.1.958.958,0,0,0,.58-.441A1.073,1.073,0,0,0,1210.53,152.639Z" transform="translate(-1374.023 -240)" fill="#8ebeff"/>
    <path id="Path_8915" data-name="Path 8915" d="M1206.44,153.4l-.81-.179a.989.989,0,0,0-1.19.673.978.978,0,0,0,.68,1.185q.39.09.81.179a.983.983,0,0,0,1.18-.673A.972.972,0,0,0,1206.44,153.4Z" transform="translate(-1374.023 -240)" fill="#8ebeff"/>
    <path id="Path_8916" data-name="Path 8916" d="M1196.39,188.478q-.39-.088-.81-.179a.964.964,0,0,0-.51,1.859l.81.179a.964.964,0,1,0,.51-1.859Z" transform="translate(-1374.023 -240)" fill="#8ebeff"/>
    <path id="Path_8917" data-name="Path 8917" d="M1204.32,180.037a.947.947,0,0,0-.57-.441l-.45-.089a1.059,1.059,0,0,0-.75.1.972.972,0,0,0-.44.578,1.02,1.02,0,0,0,.1.745.938.938,0,0,0,.58.44l.44.09a1.057,1.057,0,0,0,.75-.1.975.975,0,0,0,.44-.578A.93.93,0,0,0,1204.32,180.037Z" transform="translate(-1374.023 -240)" fill="#8ebeff"/>
    <path id="Path_8918" data-name="Path 8918" d="M1165.98,192.607l-.99-.358a.975.975,0,0,0-1.19.673,1,1,0,0,0,.67,1.186l.99.357a.973.973,0,0,0,1.19-.673A.988.988,0,0,0,1165.98,192.607Z" transform="translate(-1374.023 -240)" fill="#8ebeff"/>
    <path id="Path_8919" data-name="Path 8919" d="M1201.16,166.376a.966.966,0,0,0,0,1.931A.966.966,0,0,0,1201.16,166.376Z" transform="translate(-1374.023 -240)" fill="#8ebeff"/>
    <path id="Path_8920" data-name="Path 8920" d="M1223.75,143.852a5.236,5.236,0,0,0-2.13-.036.975.975,0,0,0-.68,1.185.993.993,0,0,0,1.19.673,3.864,3.864,0,0,1,.55-.035,2.241,2.241,0,0,1,.55.071.994.994,0,0,0,1.19-.673A.966.966,0,0,0,1223.75,143.852Z" transform="translate(-1374.023 -240)" fill="#8ebeff"/>
    <path id="Path_8921" data-name="Path 8921" d="M1226.4,146.979c-.05-.066-.11-.131-.15-.2a1.027,1.027,0,0,0-.43-.25l-.26-.089a.724.724,0,0,0-.39-.018.71.71,0,0,0-.36.113.742.742,0,0,0-.27.25.8.8,0,0,0-.17.328,2.264,2.264,0,0,1-.04.256.96.96,0,0,0,.14.489l.14.2a1.017,1.017,0,0,0,.43.25l.27.09a1.077,1.077,0,0,0,.74-.1.734.734,0,0,0,.27-.25.788.788,0,0,0,.17-.327,2.282,2.282,0,0,1,.04-.257A1.038,1.038,0,0,0,1226.4,146.979Z" transform="translate(-1374.023 -240)" fill="#8ebeff"/>
    <path id="Path_8922" data-name="Path 8922" d="M1222.42,158.477a.966.966,0,0,0,0,1.93A.966.966,0,0,0,1222.42,158.477Z" transform="translate(-1374.023 -240)" fill="#8ebeff"/>
    <path id="Path_8923" data-name="Path 8923" d="M1160.58,145.835a3.319,3.319,0,0,1-.45-.25,2,2,0,0,1-.21-.143c-.03-.024-.06-.041-.09-.065-.01-.012-.03-.024-.04-.036-.13-.107-.25-.22-.37-.34l-.18-.2c-.02-.03-.05-.06-.07-.09-.01,0-.02-.011-.02-.017a.017.017,0,0,1-.01-.018.522.522,0,0,0-.29-.221.479.479,0,0,0-.59.334.435.435,0,0,0,.05.369,4.864,4.864,0,0,0,1.8,1.507.529.529,0,0,0,.37.048.473.473,0,0,0,.28-.22A.488.488,0,0,0,1160.58,145.835Z" transform="translate(-1374.023 -240)" fill="#76aa9e"/>
    <path id="Path_8924" data-name="Path 8924" d="M1159.28,147.206a.492.492,0,0,0-.22-.286l-.9-.447a.509.509,0,0,0-.37-.048.466.466,0,0,0-.33.59.422.422,0,0,0,.22.286c.3.149.59.3.9.447a.5.5,0,0,0,.37.048.47.47,0,0,0,.28-.221A.481.481,0,0,0,1159.28,147.206Z" transform="translate(-1374.023 -240)" fill="#76aa9e"/>
    <path id="Path_8925" data-name="Path 8925" d="M1184.49,141.01a.5.5,0,0,0-.6-.34,5.731,5.731,0,0,1-1.43.131c.06-.137.13-.274.21-.417a.483.483,0,0,0-.54-.709,7.85,7.85,0,0,0-1.67.608.484.484,0,0,0,.49.834c.15-.071.3-.137.45-.2a1.347,1.347,0,0,0-.05.172.494.494,0,0,0,.34.6,6.861,6.861,0,0,0,2.46-.089A.5.5,0,0,0,1184.49,141.01Z" transform="translate(-1374.023 -240)" fill="#76aa9e"/>
    <path id="Path_8926" data-name="Path 8926" d="M1186.91,142.63l-.05-.113a.478.478,0,0,0-.17-.173c-.04-.018-.08-.029-.11-.047a.478.478,0,0,0-.26,0l-.36.089a.37.37,0,0,0-.16.083.322.322,0,0,0-.13.137.533.533,0,0,0-.06.179.408.408,0,0,0,.01.191l.05.113a.47.47,0,0,0,.17.173c.03.018.08.03.11.047a.478.478,0,0,0,.26,0c.12-.029.24-.059.35-.089a.41.41,0,0,0,.17-.083.323.323,0,0,0,.13-.137.533.533,0,0,0,.06-.179A.408.408,0,0,0,1186.91,142.63Z" transform="translate(-1374.023 -240)" fill="#76aa9e"/>
    <path id="Path_8927" data-name="Path 8927" d="M1199.11,134.731a.439.439,0,0,0-.12-.214l-.54-.626a.391.391,0,0,0-.16-.1.407.407,0,0,0-.36,0,.338.338,0,0,0-.16.1.481.481,0,0,0-.14.34.663.663,0,0,0,.02.131.439.439,0,0,0,.12.214c.14.155.27.316.41.471a.491.491,0,0,0-.34-.137,3.109,3.109,0,0,1-.74.006,2.558,2.558,0,0,1-.38-.078c-.07-.018-.14-.041-.21-.065a.716.716,0,0,0-.1-.042l-.03-.018a.541.541,0,0,0-.37-.048.467.467,0,0,0-.29.221.5.5,0,0,0,.17.661,3.611,3.611,0,0,0,1.95.328.51.51,0,0,0,.34-.143.446.446,0,0,0,.14-.34.6.6,0,0,0-.07-.262l.06.072a.4.4,0,0,0,.16.1.4.4,0,0,0,.18.042.407.407,0,0,0,.19-.042.316.316,0,0,0,.15-.1.446.446,0,0,0,.14-.34C1199.12,134.82,1199.12,134.779,1199.11,134.731Z" transform="translate(-1374.023 -240)" fill="#76aa9e"/>
    <path id="Path_8928" data-name="Path 8928" d="M1167.7,153.955a1.727,1.727,0,0,0-.63.126c-.22.083-.33.131-.55.2h0a.555.555,0,0,0-.1,0h-.01c-.01,0-.01-.006-.02-.006a.372.372,0,0,0-.06-.024.477.477,0,0,0-.24-.387.513.513,0,0,0-.49,0c-.46.2-.92.393-1.38.6a.484.484,0,0,0-.17.661.491.491,0,0,0,.66.173l.9-.387a1.228,1.228,0,0,0,.76.339,1.463,1.463,0,0,0,.7-.137c.16-.065.2-.089.34-.137a1.391,1.391,0,0,1,.15-.042.277.277,0,0,0,.05-.011.353.353,0,0,1,.08,0,.488.488,0,0,0,.48-.483A.473.473,0,0,0,1167.7,153.955Z" transform="translate(-1374.023 -240)" fill="#76aa9e"/>
    <path id="Path_8929" data-name="Path 8929" d="M1150.96,147.944a3.739,3.739,0,0,1-.82-.345,3.523,3.523,0,0,1-.4-.239c-.07-.041-.13-.089-.19-.131-.03-.017-.06-.041-.09-.059.05.036-.07-.054-.06-.054a.493.493,0,0,0-.68,0,.485.485,0,0,0,0,.679,3.494,3.494,0,0,0,.22.28,2.913,2.913,0,0,1-.91-.262.5.5,0,0,0-.66.173.5.5,0,0,0,.17.661,3.564,3.564,0,0,0,1,.346,2.418,2.418,0,0,0,1.07.018.791.791,0,0,0,.47-.376,5.154,5.154,0,0,0,.63.245.484.484,0,0,0,.59-.34A.5.5,0,0,0,1150.96,147.944Z" transform="translate(-1374.023 -240)" fill="#76aa9e"/>
    <path id="Path_8930" data-name="Path 8930" d="M1174.45,136.762a2.652,2.652,0,0,0-1.89.042c-.48-.137-.95-.268-1.43-.4a.484.484,0,0,0-.25.935l.89.25.44.126a.847.847,0,0,0,.65.011,1.664,1.664,0,0,1,1.33-.023.5.5,0,0,0,.6-.34A.5.5,0,0,0,1174.45,136.762Z" transform="translate(-1374.023 -240)" fill="#76aa9e"/>
    <path id="Path_8931" data-name="Path 8931" d="M1180.17,154.313a7.092,7.092,0,0,1-2.32-.6.466.466,0,0,0-.54.22.488.488,0,0,0,.07.584c.32.244.64.489.95.733.1.077.2.155.3.238a4.512,4.512,0,0,1-.49.012,4.023,4.023,0,0,1-1.27-.262.5.5,0,0,0-.55.22.777.777,0,0,0,.12.972.494.494,0,0,0,.68,0,.241.241,0,0,0,.07-.1,5.045,5.045,0,0,0,.95.125,4.47,4.47,0,0,0,.74-.029,3.354,3.354,0,0,0,.76-.149.615.615,0,0,0,.34-.894.741.741,0,0,0-.1-.125l.29.018a.483.483,0,0,0,0-.965Z" transform="translate(-1374.023 -240)" fill="#76aa9e"/>
    <path id="Path_8932" data-name="Path 8932" d="M1217.73,172.4c-.88.179-1.75.358-2.63.536-.51.1-.41.781,0,.93.15.053.3.107.44.16a5.365,5.365,0,0,1-.61.555,5.816,5.816,0,0,1-1.7.911.5.5,0,0,0-.24.768c-.77.56-1.54,1.126-2.31,1.686-.49.364-.02,1.2.49.834,1.02-.744,2.04-1.489,3.05-2.234a.523.523,0,0,0,.22-.53,6.728,6.728,0,0,0,1.6-1.114c.32-.31.81-.727.62-1.227l-.03-.071c.45-.09.9-.185,1.35-.275C1218.59,173.209,1218.34,172.28,1217.73,172.4Z" transform="translate(-1374.023 -240)" fill="#76aa9e"/>
    <path id="Path_8933" data-name="Path 8933" d="M1237.75,160.455a.486.486,0,0,0-.68,0,.776.776,0,0,1-.45.292,7.629,7.629,0,0,1-.79.161l-1.95.321a.489.489,0,0,0-.11.882,6.757,6.757,0,0,1,.81.518,2.654,2.654,0,0,1,.28.215c0,.006.03.023.05.041-.01.006-.01.006-.01.012.02-.024-.09.06-.12.078a1.153,1.153,0,0,1-.29.143,1.637,1.637,0,0,1-.7.089.5.5,0,0,0-.6.34.49.49,0,0,0,.34.6,2.619,2.619,0,0,0,1.27-.107,1.791,1.791,0,0,0,1.01-.75.968.968,0,0,0-.4-1.216l-.12-.089c.32-.054.63-.1.94-.155a2.322,2.322,0,0,0,1.52-.673A.517.517,0,0,0,1237.75,160.455Z" transform="translate(-1374.023 -240)" fill="#76aa9e"/>
    <path id="Path_8934" data-name="Path 8934" d="M1235.19,165.251a.441.441,0,0,0-.12-.215l-.1-.077a.459.459,0,0,0-.24-.066h-.45a.368.368,0,0,0-.18.042.4.4,0,0,0-.16.1.63.63,0,0,0-.1.155.4.4,0,0,0-.04.185c.01.041.01.083.02.131a.44.44,0,0,0,.12.214l.1.078a.5.5,0,0,0,.24.065h.45a.343.343,0,0,0,.18-.042.434.434,0,0,0,.26-.256.393.393,0,0,0,.04-.184A.536.536,0,0,0,1235.19,165.251Z" transform="translate(-1374.023 -240)" fill="#76aa9e"/>
    <path id="Path_8935" data-name="Path 8935" d="M1214.95,185.041a.506.506,0,0,0-.67-.173c-.11.054-.22.108-.33.155s-.15.066-.27.113c-.24.09-.47.173-.71.245a9.359,9.359,0,0,1-1.44.31.49.49,0,0,0-.34.6.5.5,0,0,0,.59.34,9.747,9.747,0,0,0,2.99-.924A.49.49,0,0,0,1214.95,185.041Z" transform="translate(-1374.023 -240)" fill="#76aa9e"/>
    <path id="Path_8936" data-name="Path 8936" d="M1213.56,187.037a.561.561,0,0,0-.13-.215l-.09-.077a.524.524,0,0,0-.25-.066h-.27a.367.367,0,0,0-.18.042.316.316,0,0,0-.15.1.455.455,0,0,0-.11.155.4.4,0,0,0-.04.185c.01.041.01.083.02.131a.457.457,0,0,0,.13.214l.09.078a.528.528,0,0,0,.24.065h.27a.419.419,0,0,0,.19-.041.312.312,0,0,0,.15-.1.327.327,0,0,0,.1-.155.4.4,0,0,0,.05-.184A.662.662,0,0,1,1213.56,187.037Z" transform="translate(-1374.023 -240)" fill="#76aa9e"/>
    <path id="Path_8937" data-name="Path 8937" d="M1245.71,139.693c-1.85.536-4.38,1.561-4.26,3.92.01.125.03.25.05.37,0,.017.01.125.02.208-.03,0-.07.006-.1.006a2.771,2.771,0,0,0-.33.054,2.485,2.485,0,0,0-1.1.637,2.565,2.565,0,0,0-.75,2.091,4.031,4.031,0,0,0-2,3.223c-.05.62.92.614.96,0a3.092,3.092,0,0,1,1.83-2.55.49.49,0,0,0,.22-.542,1.575,1.575,0,0,1,.74-1.775c.35-.209.76-.113,1.1-.31a.966.966,0,0,0,.38-1.025,2.235,2.235,0,0,1,.09-1.2,2.66,2.66,0,0,1,.78-1.025,6.96,6.96,0,0,1,2.63-1.144A.486.486,0,0,0,1245.71,139.693Z" transform="translate(-1374.023 -240)" fill="#3590ff"/>
    <path id="Path_8938" data-name="Path 8938" d="M1206.77,139.866a4.108,4.108,0,0,0-1.7.816,3.749,3.749,0,0,0-.62.626,3.064,3.064,0,0,0-.27.375c-.04.054-.08.167-.12.238a4.876,4.876,0,0,0-.65-.029,3.916,3.916,0,0,0-.84.172,8.661,8.661,0,0,0-1.55.739c-.54.3-.05,1.138.49.834a6.653,6.653,0,0,1,1.6-.721,2.207,2.207,0,0,1,.79-.053.84.84,0,0,0,.87-.3c.14-.2.24-.429.4-.62a3.18,3.18,0,0,1,.52-.524,3.25,3.25,0,0,1,1.34-.62C1207.63,140.664,1207.37,139.735,1206.77,139.866Z" transform="translate(-1374.023 -240)" fill="#3590ff"/>
    <path id="Path_8939" data-name="Path 8939" d="M1216.5,181.526c-11.85,4.981-24.94,3.861-36.99.215a.706.706,0,0,0-.7.137c-.4-.441-1.23-.459-1.35.268a50.762,50.762,0,0,0-.7,7.274,24.541,24.541,0,0,0,.45,6.9,2.8,2.8,0,0,0,1.23,1.751c16.02.232,29.45-4.045,40.26-11q-.57-2.5-1.2-4.987A.823.823,0,0,0,1216.5,181.526Z" transform="translate(-1374.023 -240)" fill="#3590ff"/>
    <path id="Path_8940" data-name="Path 8940" d="M1222.21,168.652c-2.1-7.315-4.42-14.577-6.69-21.845a1.216,1.216,0,0,0,.01-.274,11.554,11.554,0,0,1,.09-1.954.958.958,0,0,0,.58-.834c.2-3.325.28-6.893-1.86-9.663-2.11-2.741-5.28-2.7-8.46-2.675a107.4,107.4,0,0,0-11.76.685c-2.99.357-6.05,1.054-8.1,3.437a.935.935,0,0,0-.19.965.96.96,0,0,0-.02,1.329c3.04,3.384,4.94,7.566,6.97,11.581q3.315,6.55,6.62,13.094c1.07,2.109,2.14,4.212,3.24,6.3a31.464,31.464,0,0,0,3.28,5.487c1.32,1.6,2.92,2.687,4.08,4.438.78,1.186,1.95,2.062,3.38,1.68a6.468,6.468,0,0,0,7.88-1.8C1223.61,175.73,1223.17,172,1222.21,168.652Z" transform="translate(-1374.023 -240)" fill="#002b72"/>
    <path id="Path_8941" data-name="Path 8941" d="M1228.97,157.858c-1.06-2.288-2.2-4.546-3.31-6.81-.49-1.007-.96-2.025-1.47-3.026a23.714,23.714,0,0,0-5.27-7.632c-.14-.125-.29-.244-.43-.357l-.21-.2c-2.18-1.942-4.89-2.627-7.68-3.02-.79-.137-1.59-.256-2.4-.363a123.245,123.245,0,0,0-13.75-1.162,33.439,33.439,0,0,0-3.7.1c-3.49,0-7.09.614-9.95,2.729-3,2.216-5.11,5.731-6.78,9a25.209,25.209,0,0,0-3.05,11.039c-.04,3.116.71,6.863,3.78,8.347a.788.788,0,0,0,.79-.036,9.518,9.518,0,0,0,1.28.22c-1.09,4.421-1.86,9.4-1.16,13.869.71,4.534,5.36,6.667,9.34,7.822,4.57,1.329,9.43,1.406,14.15,1.311,4.75-.1,10.34-.232,14.64-2.5,4.58-2.413,3.79-8.287,3.2-12.737a20.024,20.024,0,0,0,3.99,1.233c1.82.375,3.88.649,5.57-.346,1.67-.983,2.53-2.937,3.16-4.676A16.194,16.194,0,0,0,1228.97,157.858Z" transform="translate(-1374.023 -240)" fill="#f35c6c"/>
    <path id="Path_8942" data-name="Path 8942" d="M1217.96,175.831a9.554,9.554,0,0,0-2.6-3.122,17.778,17.778,0,0,1-2.93-3.687,21.4,21.4,0,0,1-2.75-7.715,48.07,48.07,0,0,1,.88-8.722c.74-4.605,1.66-9.216,2.23-13.839.19-1.555-.15-3.08-1.69-3.783-1.46-.673-2.99-.161-4.38.441a.65.65,0,0,0-.67.25c-2.32,2.729-3.34,6.315-4.06,9.758a43.332,43.332,0,0,0,1.26,22.364,29.365,29.365,0,0,0,4.32,8.794c1.75,2.263,4.6,4.527,7.66,4.1a3.22,3.22,0,0,0,2.37-1.513A3.549,3.549,0,0,0,1217.96,175.831Z" transform="translate(-1374.023 -240)" fill="#002b72"/>
    <path id="Path_8943" data-name="Path 8943" d="M1216.3,161.087a9.485,9.485,0,0,0-.79-2.586,15.141,15.141,0,0,0-3.86-5.373.81.81,0,0,0-1.34.351,13.814,13.814,0,0,1-.65,1.811.5.5,0,0,0-.06-.095c-2.34-2.877-7.1-3.854-8.84.191-.62,1.435-1.24,3.741-.37,5.165a4.931,4.931,0,0,0,1.62,1.441c1.15.757,2.33,1.478,3.5,2.205s2.35,1.435,3.54,2.138a10.4,10.4,0,0,0,2.82,1.555c.94.185,1.34-.411,1.78-1.12.61-.977,1.19-1.984,1.77-2.979A4.3,4.3,0,0,0,1216.3,161.087Z" transform="translate(-1374.023 -240)" fill="#f7c14e"/>
    <path id="Path_8944" data-name="Path 8944" d="M1192.75,133.48a7.8,7.8,0,0,0-10.04,2.77.713.713,0,0,0,0,.8,97.172,97.172,0,0,0-3.62,10.462.751.751,0,0,0-.11.238,117.01,117.01,0,0,0-4.37,18.629.831.831,0,0,0-1.22.679,50.976,50.976,0,0,0-.45,7.989c.08,1.048.91,2.347,1.89,1.87a1.162,1.162,0,0,0,1.15-.214,3.258,3.258,0,0,0,1.32-1.233,26.8,26.8,0,0,0,2.17-4.421c2.69-6.583,3.52-13.761,6.32-20.3a.822.822,0,0,0,.05-.53c.58-1.441,1.17-2.889,1.77-4.325q1.4-3.405,2.84-6.791c.47-1.12,1.6-2.836,1.39-4.206.1.018.2.036.3.059C1192.98,135.13,1193.61,133.909,1192.75,133.48Z" transform="translate(-1374.023 -240)" fill="#002b72"/>
    <path id="Path_8945" data-name="Path 8945" d="M1186.08,153.6c-.48-1.376-1.77-1.608-3.07-1.662a15.5,15.5,0,0,0-4.81.274,2.09,2.09,0,0,0-.41-2.162.815.815,0,0,0-1.26.16,13.8,13.8,0,0,0-2.33,11.772.724.724,0,0,0,.6.56c.79,1.132,2.35,1.317,3.62,1.358a5.166,5.166,0,0,0,4.08-1.5,15.647,15.647,0,0,0,2.79-4.521C1185.87,156.6,1186.58,155.028,1186.08,153.6Z" transform="translate(-1374.023 -240)" fill="#f7c14e"/>
    <path id="Path_8946" data-name="Path 8946" d="M1209.86,112.969a7.584,7.584,0,0,0-5.21,4.2q-.345.035-.69.035c-.88-.017-1.44-.017-1.41-1.012a20.281,20.281,0,0,1,.83-3.676c.32-1.388,1.01-4.2-.47-5.177a2.605,2.605,0,0,0-1.93-.173,27.287,27.287,0,0,1-3.68.459,12.18,12.18,0,0,1-6.99-1.7.715.715,0,0,0-.53-.113.877.877,0,0,0-1.12.226c-3.86,5.064-5.11,11.778-4.42,18.021a5.319,5.319,0,0,0,1.4,3.468,7.16,7.16,0,0,0,3.88,1.519,29.249,29.249,0,0,0,3.79.351c-.22,2.181-.39,4.367-.47,6.547a4.247,4.247,0,0,0,1.34,3.706,7.128,7.128,0,0,0,4.07,1.37c3.05.137,5.11-1.454,5.55-4.456.56-3.807.96-7.649,1.44-11.468a.888.888,0,0,0-.03-.334,7.7,7.7,0,0,1,1.13-1.966c.55-.149,1.15-.22,1.75-.345,2.63-.572,5.11-2.359,5.52-5.171C1213.96,114.917,1212.47,112.492,1209.86,112.969Z" transform="translate(-1374.023 -240)" fill="#f7c14e"/>
    <path id="Path_8947" data-name="Path 8947" d="M1204.68,108.1a1.462,1.462,0,0,0-1.13-.727,5.307,5.307,0,0,0-1.65.1c-.58.1-1.15.232-1.72.37-1.21.285-2.43.548-3.67.744a28.613,28.613,0,0,1-4.06.381c-.67.012-1.35,0-2.02-.059-.34-.03-.67-.066-1-.107-.22-.03-.52-.119-.68.095a.176.176,0,0,0,0,.2.141.141,0,0,0,.08.16,22.387,22.387,0,0,0,6.55,1.7,27.262,27.262,0,0,0,3.34.161,21.427,21.427,0,0,0,3.5-.262,7.144,7.144,0,0,0,1.6-.453,1.552,1.552,0,0,0,1-.947A1.931,1.931,0,0,0,1204.68,108.1Z" transform="translate(-1374.023 -240)" fill="#f35c6c"/>
    <path id="Path_8948" data-name="Path 8948" d="M1213.02,102.793a5.55,5.55,0,0,0-3.32-1.572,3.953,3.953,0,0,0-.95.071c-.26.048-.41.107-.61-.089-.37-.381-.63-.894-1-1.3a9.147,9.147,0,0,0-5.89-2.931,9.634,9.634,0,0,0-3.47.369,5.506,5.506,0,0,1-2.01.292,3.936,3.936,0,0,1-1.41-.506,20.292,20.292,0,0,0-2.94-1.608,4.664,4.664,0,0,0-3.51.28,8.665,8.665,0,0,0-4.45,5.88,6.586,6.586,0,0,0,1.72,6.148,19.031,19.031,0,0,0-.56,5.577v.006a1.285,1.285,0,0,0-.04.19c-.02.113.1.233.2.2a.147.147,0,0,0,.23-.042c.01-.018.01-.03.02-.048a.134.134,0,0,0,.12-.113,13.462,13.462,0,0,1,1.77-4.659,8.954,8.954,0,0,0,2.06.584,21.768,21.768,0,0,0,4.22.268,28.8,28.8,0,0,0,4.29-.47c1.42-.256,2.79-.662,4.19-1,.11-.024.22-.054.33-.072.09.036.19.072.28.114,1.27.649.91,2.52.72,3.687a47.262,47.262,0,0,0-.85,6.714.932.932,0,0,0,1.57.65,11.66,11.66,0,0,1,6.69-5.922c.24-.018.49-.024.73-.024l.09.036a3.139,3.139,0,0,0,3.24-1.245,6.024,6.024,0,0,0,1.06-3.372A8.008,8.008,0,0,0,1213.02,102.793Z" transform="translate(-1374.023 -240)" fill="#3590ff"/>
    <path id="Path_8949" data-name="Path 8949" d="M1209.55,121.446a14.372,14.372,0,0,0-3.65.852,3.448,3.448,0,0,0-1.67,2.044c-.45,1.144-1.62,5.141.37,5.51a.818.818,0,0,0,.68-.167c2-.494,3.63-2.686,4.66-4.325C1210.65,124.229,1212.2,121.1,1209.55,121.446Z" transform="translate(-1374.023 -240)" fill="#3590ff"/>
    <path id="Path_8950" data-name="Path 8950" d="M1200.5,128.851c-1.2.137-2.41.25-3.62.334a24.99,24.99,0,0,1-3.6.089c-.16-.012-.19.173-.11.268l-.18,2.413c-.01.22-.15.733.21.751a1.225,1.225,0,0,0,.43-.12c.21-.071.42-.142.62-.22a45.442,45.442,0,0,0,4.34-1.894,6.572,6.572,0,0,0,2.02-1.353C1200.7,129.036,1200.65,128.833,1200.5,128.851Z" transform="translate(-1374.023 -240)" fill="#f35c6c"/>
    <path id="Path_8951" data-name="Path 8951" d="M1225.82,161.646c-.35-.989-1.55-1.531-2.55-1.864-.59-.2-1.34-.429-1.63-1.031-.4-.792.17-1.752.57-2.431a.493.493,0,0,0-.42-.726,6.906,6.906,0,0,1-2.34-.358,2.3,2.3,0,0,1-1.41-1.817c-.48-2.109-.83-4.259-1.25-6.38-.1-.531-.81-.4-.92.035a.431.431,0,0,0-.32.441,29.86,29.86,0,0,1-.09,3.783c-.11,1.221-.34,2.419-.51,3.634a7.465,7.465,0,0,0,.07,3.259,4.985,4.985,0,0,0,.71,1.4,5.992,5.992,0,0,1,.57,2.043c-.16,1.233-1.19,2.163-1.81,3.241a.486.486,0,0,0,.84.489l1.62-2.836c.24-.429.48-.864.73-1.287.22-.357.47-.7.92-.727a4.452,4.452,0,0,1,1.36.256c.48.132.96.286,1.43.459a14.962,14.962,0,0,1,2.5,1.233,2.142,2.142,0,0,0,.95.489.472.472,0,0,0,.13,0,.781.781,0,0,0,.85-1.305Z" transform="translate(-1374.023 -240)" fill="#003b98"/>
    <path id="Path_8952" data-name="Path 8952" d="M1175.65,152.24c.33-.525-.5-1.013-.83-.489a11.576,11.576,0,0,0-1.67,5.791,16.614,16.614,0,0,0,.18,3.068,5.5,5.5,0,0,0,1.1,2.776c.39.482,1.07-.2.68-.679a4.92,4.92,0,0,1-.88-2.55,15.687,15.687,0,0,1-.12-2.74A10.6,10.6,0,0,1,1175.65,152.24Z" transform="translate(-1374.023 -240)" fill="#003b98"/>
    <path id="Path_8953" data-name="Path 8953" d="M1198.38,143.3a7.578,7.578,0,0,1-5.26-1.555.487.487,0,0,0-.66.173.5.5,0,0,0,.18.661,8.389,8.389,0,0,0,5.74,1.686C1199,144.215,1199,143.25,1198.38,143.3Z" transform="translate(-1374.023 -240)" fill="#003b98"/>
    <path id="Path_8954" data-name="Path 8954" d="M1204.66,183.3a51.237,51.237,0,0,1-17.37-2.687c-1.58-.536-3.14-1.156-4.67-1.847-.56-.256-1.05.578-.49.834a52.136,52.136,0,0,0,17.39,4.51c.23.018.47.03.71.047-.13.006-.26.012-.38.024a15.121,15.121,0,0,0-2.73.948,19.882,19.882,0,0,1-5.8.7c-.52,0-.67.845-.13.947,4.72.858,10.13.9,13.81-2.651A.483.483,0,0,0,1204.66,183.3Z" transform="translate(-1374.023 -240)" fill="#003b98"/>
    <path id="Path_8955" data-name="Path 8955" d="M1211.08,154.474a2.082,2.082,0,0,0-.37-.608.665.665,0,0,0-.26-.215.311.311,0,0,0-.1-.012s-.01,0-.01-.005a.161.161,0,0,0-.2.113,4.05,4.05,0,0,1-.16.691,6.394,6.394,0,0,1-.28.607c-.11.233.07.417.22.584a2.409,2.409,0,0,0,.46.417c.09.06.18.113.26.167a.878.878,0,0,0,.33.131c.25.012.28-.262.29-.447A3.129,3.129,0,0,0,1211.08,154.474Z" transform="translate(-1374.023 -240)" fill="#f35c6c"/>
    <path id="Path_8956" data-name="Path 8956" d="M1178.52,150.828a.173.173,0,0,0-.16-.161c-.01,0-.02,0-.02.006a.159.159,0,0,0-.21-.054,4.792,4.792,0,0,0-.88.632,1.317,1.317,0,0,0-.5.858.394.394,0,0,0,.24.441,1.115,1.115,0,0,0,.5-.024,1.4,1.4,0,0,0,.9-.453,1.151,1.151,0,0,0,.14-.578C1178.54,151.269,1178.53,151.048,1178.52,150.828Z" transform="translate(-1374.023 -240)" fill="#f35c6c"/>
    <path id="Path_8957" data-name="Path 8957" d="M1197.29,98.058a.759.759,0,0,0-.55-.256c-.24-.03-.48-.042-.72-.06-.14-.012-.27-.024-.41-.03a1.1,1.1,0,0,0-.37,0,.318.318,0,0,0-.19.512l.04.024a1.324,1.324,0,0,0,.55.876,1.432,1.432,0,0,0,1.28-.173.991.991,0,0,0,.43-.363A.472.472,0,0,0,1197.29,98.058Z" transform="translate(-1374.023 -240)" fill="#003b98"/>
    <path id="Path_8958" data-name="Path 8958" d="M1186.19,103.3a.3.3,0,0,0-.26-.149c-.03-.03-.06-.065-.09-.1-.01-.018-.03-.036-.04-.054l-.01-.006-.01-.006c-.02-.036-.05-.071-.07-.107a2.345,2.345,0,0,1-.15-.244.633.633,0,0,0-.06-.119.026.026,0,0,0-.01-.024l-.03-.072a2.135,2.135,0,0,1-.13-1.03.325.325,0,0,0-.65,0,2.877,2.877,0,0,0,.25,1.417,2.373,2.373,0,0,0,.37.6,1.126,1.126,0,0,0,.25.262.459.459,0,0,0,.51.054A.305.305,0,0,0,1186.19,103.3Z" transform="translate(-1374.023 -240)" fill="#003b98"/>
    <path id="Path_8959" data-name="Path 8959" d="M1187.02,102.3a3.239,3.239,0,0,1-.19-.679c-.01-.1-.01-.209-.02-.31a.329.329,0,0,0-.32-.322.322.322,0,0,0-.32.322,2.886,2.886,0,0,0,.23,1.162.311.311,0,0,0,.15.19.3.3,0,0,0,.25.03.33.33,0,0,0,.19-.149A.3.3,0,0,0,1187.02,102.3Z" transform="translate(-1374.023 -240)" fill="#003b98"/>
    <path id="Path_8960" data-name="Path 8960" d="M1212.35,103.693a3.719,3.719,0,0,0-.98-1.1.3.3,0,0,0-.25-.03.324.324,0,0,0-.2.149.362.362,0,0,0-.03.25.4.4,0,0,0,.15.191l-.01-.006a3.377,3.377,0,0,1,.54.536,3.8,3.8,0,0,1,.22.34.333.333,0,0,0,.45.113A.342.342,0,0,0,1212.35,103.693Z" transform="translate(-1374.023 -240)" fill="#003b98"/>
    <path id="Path_8961" data-name="Path 8961" d="M1211.83,105.123c-.08-.238-.15-.477-.23-.715a.3.3,0,0,0-.15-.191.308.308,0,0,0-.25-.029.326.326,0,0,0-.19.149.313.313,0,0,0-.03.25l.23.715a.329.329,0,0,0,.15.19.323.323,0,0,0,.44-.119A.314.314,0,0,0,1211.83,105.123Z" transform="translate(-1374.023 -240)" fill="#003b98"/>
    <path id="Path_8962" data-name="Path 8962" d="M1202.44,108.072a41.629,41.629,0,0,1-8.73.714,13.364,13.364,0,0,1-3.8-.518,7.721,7.721,0,0,1-3.02-1.966,11.384,11.384,0,0,0-2.98-2.389.322.322,0,0,0-.47.191,3.624,3.624,0,0,0-.09.81,7.716,7.716,0,0,0,5.11,5.153c3.02,1.073,6.42.662,9.51.2a11.437,11.437,0,0,0,4.72-1.6A.327.327,0,0,0,1202.44,108.072Z" transform="translate(-1374.023 -240)" fill="#003b98"/>
    <path id="Path_8963" data-name="Path 8963" d="M1191.61,196.5a3.6,3.6,0,0,0-.41-1.966,1.717,1.717,0,0,0-.97-.625c-.35-.125-.72-.245-1.08-.364a9.144,9.144,0,0,1-3.89-2.061c-.43-.447-1.11.232-.68.679a9.032,9.032,0,0,0,3.65,2.085c.65.227,1.35.388,1.97.668.3.131.33.548.39.834a4.717,4.717,0,0,1,.03,1.245.464.464,0,0,0,.41.47.485.485,0,0,0,.53-.345c.03-.084.06-.161.09-.244A.381.381,0,0,0,1191.61,196.5Z" transform="translate(-1374.023 -240)" fill="#003b98"/>
    <path id="Path_8964" data-name="Path 8964" d="M1218.5,185.464c-.05-.9-.06-1.823-.17-2.717-.08-.631-.39-1.257-1.1-1.286a.5.5,0,0,0-.47.351c-1.61,4.534-6.98,5.856-11.18,6.637a51.015,51.015,0,0,1-15.32.482c-1.41-.167-2.81-.393-4.2-.691a13.489,13.489,0,0,1-3.84-1.346.546.546,0,0,0-.69.81c5.16,2.877,11.14,3.693,16.97,3.8,5.9.107,12.04-.268,17.49-2.711a7.026,7.026,0,0,0,2.04-1.138A2.606,2.606,0,0,0,1218.5,185.464Z" transform="translate(-1374.023 -240)" fill="#003b98"/>
    <path id="Path_8965" data-name="Path 8965" d="M1212.83,113.332c-2.2-.751-4.34.465-6.04,1.757a.484.484,0,0,0,.49.834c1.49-1.132,3.35-2.323,5.29-1.656C1213.15,114.464,1213.41,113.534,1212.83,113.332Z" transform="translate(-1374.023 -240)" fill="#003b98"/>
  </g>
</svg>
