<svg xmlns="http://www.w3.org/2000/svg" width="24.819" height="24.819" viewBox="0 0 24.819 24.819">
  <g id="Outline" transform="translate(-16 -16)">
    <path id="Path_8643" data-name="Path 8643" d="M37.924,19.309a.414.414,0,0,0,.414-.414v-.827A2.071,2.071,0,0,0,36.269,16H21.378a2.071,2.071,0,0,0-2.068,2.068V36.683h.827V18.068a1.242,1.242,0,0,1,1.241-1.241H34.616a2.058,2.058,0,0,0-.415,1.241V38.751a1.241,1.241,0,0,1-2.482,0v-.827a.414.414,0,0,0-.414-.414H16.414a.414.414,0,0,0-.414.414v.827a2.071,2.071,0,0,0,2.068,2.068H32.96a2.071,2.071,0,0,0,2.068-2.068V19.309ZM18.068,39.992a1.242,1.242,0,0,1-1.241-1.241v-.414H30.892v.414a2.058,2.058,0,0,0,.415,1.241Zm18.2-23.165a1.242,1.242,0,0,1,1.241,1.241v.414H35.028v-.414A1.242,1.242,0,0,1,36.269,16.827Z"/>
    <path id="Path_8644" data-name="Path 8644" d="M184,58.482a1.056,1.056,0,0,0,.418.855,1.754,1.754,0,0,0,2.919,1.209,1.084,1.084,0,0,0,1.209-1.209,1.084,1.084,0,0,0,0-1.71,1.754,1.754,0,0,0-2.919-1.209,1.084,1.084,0,0,0-1.209,1.209A1.056,1.056,0,0,0,184,58.482Zm1.019-.24a.414.414,0,0,0,.259-.624.246.246,0,0,1,.34-.34.414.414,0,0,0,.624-.259.246.246,0,0,1,.48,0,.414.414,0,0,0,.624.259.246.246,0,0,1,.34.34.414.414,0,0,0,.259.624.246.246,0,0,1,0,.48.414.414,0,0,0-.259.624.246.246,0,0,1-.34.34.414.414,0,0,0-.624.259.246.246,0,0,1-.48,0,.414.414,0,0,0-.624-.259.246.246,0,0,1-.34-.34.414.414,0,0,0-.259-.624.246.246,0,0,1,0-.48Z" transform="translate(-159.312 -37.932)"/>
    <path id="Path_8645" data-name="Path 8645" d="M192,200h4.137v.827H192Z" transform="translate(-166.9 -174.486)"/>
    <path id="Path_8646" data-name="Path 8646" d="M216,168h4.137v.827H216Z" transform="translate(-189.659 -144.141)"/>
    <path id="Path_8647" data-name="Path 8647" d="M168,168h1.655v.827H168Z" transform="translate(-144.141 -144.141)"/>
    <path id="Path_8648" data-name="Path 8648" d="M152,240h9.928v.827H152Z" transform="translate(-128.968 -212.418)"/>
    <path id="Path_8649" data-name="Path 8649" d="M120,240h.827v.827H120Z" transform="translate(-98.622 -212.418)"/>
    <path id="Path_8650" data-name="Path 8650" d="M152,272h6.618v.827H152Z" transform="translate(-128.968 -242.763)"/>
    <path id="Path_8651" data-name="Path 8651" d="M296,272h2.482v.827H296Z" transform="translate(-265.522 -242.763)"/>
    <path id="Path_8652" data-name="Path 8652" d="M152,304h9.928v.827H152Z" transform="translate(-128.968 -273.108)"/>
    <path id="Path_8653" data-name="Path 8653" d="M120,304h.827v.827H120Z" transform="translate(-98.622 -273.108)"/>
    <path id="Path_8654" data-name="Path 8654" d="M152,336h2.482v.827H152Z" transform="translate(-128.968 -303.454)"/>
    <path id="Path_8655" data-name="Path 8655" d="M216,336h6.618v.827H216Z" transform="translate(-189.659 -303.454)"/>
    <path id="Path_8656" data-name="Path 8656" d="M152,368h6.618v.827H152Z" transform="translate(-128.968 -333.799)"/>
    <path id="Path_8657" data-name="Path 8657" d="M120,368h.827v.827H120Z" transform="translate(-98.622 -333.799)"/>
    <path id="Path_8658" data-name="Path 8658" d="M152,400h9.928v.827H152Z" transform="translate(-128.968 -364.145)"/>
    <path id="Path_8659" data-name="Path 8659" d="M296,368h2.482v.827H296Z" transform="translate(-265.522 -333.799)"/>
    <path id="Path_8660" data-name="Path 8660" d="M403.723,113.655h-.414a1.655,1.655,0,1,0-3.309,0v13.237a.411.411,0,0,0,.044.185h0l1.241,2.482a.414.414,0,0,0,.74,0l1.241-2.482h0a.411.411,0,0,0,.044-.185v-12.41h.414a.414.414,0,0,1,.414.414v4.55h.827V114.9a1.242,1.242,0,0,0-1.241-1.241Zm-2.068-.827a.828.828,0,0,1,.827.827h-1.655A.828.828,0,0,1,401.655,112.827Zm.827,13.651h-1.655v-6.2h1.655Zm0-7.032h-1.655v-.827h1.655Zm-.827,9-.572-1.143h1.143Zm.827-10.657h-1.655v-3.309h1.655Z" transform="translate(-364.145 -91.036)"/>
  </g>
</svg>
