<svg xmlns="http://www.w3.org/2000/svg" width="14.3" height="14.3" viewBox="0 0 14.3 14.3">
  <g id="tick" transform="translate(0.15 0.15)">
    <g id="Group_249" data-name="Group 249">
      <g id="Group_248" data-name="Group 248">
        <path id="Path_169" data-name="Path 169" d="M11.334,0H2.666A2.669,2.669,0,0,0,0,2.666v8.668A2.669,2.669,0,0,0,2.666,14h8.668A2.669,2.669,0,0,0,14,11.334V2.666A2.669,2.669,0,0,0,11.334,0ZM13.59,11.334a2.258,2.258,0,0,1-2.256,2.256H2.666A2.258,2.258,0,0,1,.41,11.334V2.666A2.258,2.258,0,0,1,2.666.41h8.668A2.258,2.258,0,0,1,13.59,2.666Z" fill="#fff" stroke="#fff" stroke-width="0.3"/>
      </g>
    </g>
    <g id="Group_251" data-name="Group 251" transform="translate(1.641 2.97)">
      <g id="Group_250" data-name="Group 250">
        <path id="Path_170" data-name="Path 170" d="M70.511,108.853a.752.752,0,0,0-1.063,0l-6.02,6.023L61.3,112.742a.752.752,0,0,0-1.064,1.063l2.663,2.666a.752.752,0,0,0,1.064,0l6.552-6.555a.752.752,0,0,0,0-1.063Zm-.29.773-6.552,6.555a.342.342,0,0,1-.484,0l-2.663-2.666a.342.342,0,1,1,.484-.483l2.276,2.279a.205.205,0,0,0,.29,0l6.165-6.168a.342.342,0,0,1,.483.483Z" transform="translate(-60.013 -108.633)" fill="#fff" stroke="#fff" stroke-width="0.3"/>
      </g>
    </g>
  </g>
</svg>
