<svg xmlns="http://www.w3.org/2000/svg" width="24.843" height="25.482" viewBox="0 0 24.843 25.482">
  <g id="Tutorials" transform="translate(-6.422 0)">
    <path id="Path_8637" data-name="Path 8637" d="M348.618,175.423a1.293,1.293,0,0,0,.9-.368.373.373,0,1,0-.519-.536.55.55,0,0,1-.384.157h-.109a.55.55,0,0,1-.384-.157.373.373,0,1,0-.519.536,1.293,1.293,0,0,0,.9.368Z" transform="translate(-324.096 -165.733)"/>
    <path id="Path_8638" data-name="Path 8638" d="M213.318,301.311a.614.614,0,0,0,.621-.013l2.318-1.428a.613.613,0,0,0,0-1.044l-2.318-1.428a.613.613,0,0,0-.935.522v2.857A.614.614,0,0,0,213.318,301.311Zm.432-3.153,1.93,1.189-1.93,1.189Z" transform="translate(-196.3 -282.509)"/>
    <path id="Path_8639" data-name="Path 8639" d="M185.037,399.564H181.45a1.15,1.15,0,0,0-2.177,0H178.8a.373.373,0,0,0,0,.747h.476a1.151,1.151,0,0,0,2.177,0h3.587a.373.373,0,0,0,0-.747Zm-4.675.778a.4.4,0,1,1,.4-.4A.4.4,0,0,1,180.362,400.341Z" transform="translate(-163.442 -378.938)"/>
    <path id="Path_8640" data-name="Path 8640" d="M31.265,18.076V15.46a3.157,3.157,0,0,0-3.153-3.153H26.207V10.986a3.005,3.005,0,0,0,1.42-2.551V8.143h.6a1.519,1.519,0,0,0,1.116-2.551V4.3a3.742,3.742,0,0,0-1.365-2.894.373.373,0,1,0-.475.576A3,3,0,0,1,28.592,4.3v.845a1.518,1.518,0,0,0-.37-.046h-.606a2.219,2.219,0,0,0-2.207-2.01H21.833a.523.523,0,0,0-.523.523V5.1h-.6a1.516,1.516,0,0,0-.369.046V1.529A.779.779,0,0,1,21.539.869l.222.14a1.872,1.872,0,0,0,1,.288h2.828a3.006,3.006,0,0,1,.462.035A.373.373,0,0,0,26.165.6a3.754,3.754,0,0,0-.577-.044H22.76a1.127,1.127,0,0,1-.6-.173l-.222-.14A1.526,1.526,0,0,0,19.6,1.529V5.591a1.519,1.519,0,0,0,1.116,2.552h.6v.292a3.005,3.005,0,0,0,1.42,2.551v.52H17.308a5.679,5.679,0,0,0,.236-1.625,5.561,5.561,0,1,0-5.561,5.632q.205,0,.407-.015v7.123a.953.953,0,0,0,.952.952h2.842V24.1a.916.916,0,0,0,.915.915h1.188A.916.916,0,0,0,19.2,24.1v-.526h.55v1.536a.373.373,0,0,0,.373.373H28.3a.373.373,0,0,0,.373-.373V23.82a.373.373,0,0,0-.747,0v.916H20.5V23.573h3.11a.953.953,0,0,0,.952-.952V20.493H27.93v1.584a.373.373,0,0,0,.747,0V20.493h.665a1.924,1.924,0,0,0,1.923-1.923v-.494ZM29,6.622a.775.775,0,0,1-.774.774h-.6V5.849h.6A.775.775,0,0,1,29,6.622ZM20.714,7.4a.774.774,0,0,1,0-1.548h.6V7.4Zm1.343,1.039V7.774s0,0,0,0,0,0,0,0V5.48s0,0,0,0,0,0,0,0V3.839H25.41a1.472,1.472,0,0,1,1.47,1.47V8.435a2.261,2.261,0,0,1-2.259,2.259h-.306A2.261,2.261,0,0,1,22.057,8.435Zm1.42,2.885a2.994,2.994,0,0,0,.838.12h.306a3,3,0,0,0,.839-.12v1.6a.8.8,0,0,1-.8.8h-.1V12.458a.953.953,0,0,0-.952-.952h-.133Zm.715,8.427h-.446A.55.55,0,0,1,23.2,19.2V18.45h1.3v1.3h-.3Zm-.582-7.494a.206.206,0,0,1,.206.205v.761a.952.952,0,0,0-.206-.023H16.476a5.652,5.652,0,0,0,.55-.943H23.61ZM7.168,9.882a4.815,4.815,0,1,1,4.814,4.885A4.856,4.856,0,0,1,7.168,9.882ZM18.456,24.1a.169.169,0,0,1-.169.169H17.1a.169.169,0,0,1-.169-.169v-.526h1.526Zm5.359-1.477a.206.206,0,0,1-.206.205H13.342a.206.206,0,0,1-.206-.205v-7.23a5.533,5.533,0,0,0,2.7-1.449H23.61a.206.206,0,0,1,.206.205V17.7H21.8a.373.373,0,1,0,0,.747h.649V19.2a1.3,1.3,0,0,0,1.3,1.3h.07ZM30.4,19.08a1.178,1.178,0,0,1-1.06.667h-4.1v-1.3h3.725a.373.373,0,1,0,0-.747h-.289V15.331a.373.373,0,0,0-.747,0V17.7H24.562v-3.23h.1A1.552,1.552,0,0,0,26.2,13.053h1.911a2.41,2.41,0,0,1,2.407,2.407v3.11a1.124,1.124,0,0,1-.116.51Z" transform="translate(0 0)"/>
    <path id="Path_8641" data-name="Path 8641" d="M42.2,159.866a.5.5,0,0,0,0-.949l-3.643-1.1a.633.633,0,0,0-.367,0l-3.644,1.1a.5.5,0,0,0-.265.755v1.233a.373.373,0,1,0,.747,0v-.894l.566.171v1.72a.641.641,0,0,0,.478.621l2.076.539a.9.9,0,0,0,.451,0l2.076-.539a.641.641,0,0,0,.479-.621v-1.72Zm-3.827-1.325,2.817.851-2.817.851-2.817-.851Zm2.034,3.281-2,.519a.15.15,0,0,1-.075,0l-2-.519v-1.413l1.85.559a.633.633,0,0,0,.367,0l1.85-.559Z" transform="translate(-26.393 -149.936)"/>
  </g>
</svg>
