<svg xmlns="http://www.w3.org/2000/svg" width="30.646" height="27.802" viewBox="0 0 30.646 27.802">
  <g id="upload" transform="translate(0.001 0)">
    <path id="Path_107" data-name="Path 107" d="M24.749,7.716A9.588,9.588,0,0,0,5.943,7.71a6.712,6.712,0,0,0,.773,13.38h4.794a.959.959,0,0,0,0-1.918H6.716a4.794,4.794,0,1,1,.057-9.588.959.959,0,0,0,.953-.853,7.671,7.671,0,0,1,15.24,0,1.016,1.016,0,0,0,1.01.853,4.794,4.794,0,1,1,0,9.588H19.181a.959.959,0,0,0,0,1.918h4.794a6.712,6.712,0,0,0,.774-13.374Zm0,0" transform="translate(0 0)" fill="#fff"/>
    <path id="Path_108" data-name="Path 108" d="M180.651,197.861a.959.959,0,0,0,1.38-1.332l-.024-.024-4.066-4.067a.959.959,0,0,0-1.356,0l0,0-4.066,4.067a.959.959,0,1,0,1.332,1.379l.024-.024,2.431-2.432V207.5a.959.959,0,1,0,1.917,0V195.429Zm0,0" transform="translate(-161.915 -180.654)" fill="#fff"/>
  </g>
</svg>
